Merriweather-SemiWideItalic.ufo
<glyph name="exclam" format="2">
  <advance width="517.0652173913044"/>
  <unicode hex="0021"/>
  <outline>
    <contour>
      <point x="316.85869565217394" y="1736.0" type="line"/>
      <point x="178.79347826086956" y="489.6630434782609" type="line"/>
      <point x="315.5869565217391" y="489.6630434782609" type="line"/>
      <point x="548.0978260869566" y="1736.0" type="line"/>
    </contour>
    <contour>
      <point x="69.80434782608695" y="107.92391304347827" type="curve" smooth="yes"/>
      <point x="65.01086956521739" y="32.619565217391305"/>
      <point x="111.8913043478261" y="-18.630434782608695"/>
      <point x="172.8804347826087" y="-18.630434782608695" type="curve" smooth="yes"/>
      <point x="247.17391304347825" y="-18.630434782608695"/>
      <point x="312.57608695652175" y="25.565217391304348"/>
      <point x="318.73913043478257" y="119.90217391304348" type="curve" smooth="yes"/>
      <point x="324.2173913043478" y="187.2608695652174"/>
      <point x="290.9130434782609" y="250.56521739130434"/>
      <point x="211.34782608695653" y="250.56521739130434" type="curve" smooth="yes"/>
      <point x="140.42391304347825" y="250.56521739130434"/>
      <point x="75.59782608695653" y="196.05434782608697"/>
    </contour>
  </outline>
</glyph>
<glyph name="numbersign" format="2">
  <advance width="1368.4565217391305"/>
  <unicode hex="0023"/>
  <outline>
    <contour>
      <point x="337.30434782608694" y="413.0" type="line"/>
      <point x="273.30434782608694" y="0.0" type="line"/>
      <point x="391.30434782608694" y="0.0" type="line"/>
      <point x="456.30434782608694" y="413.0" type="line"/>
      <point x="848.1521739130435" y="413.0" type="line"/>
      <point x="785.1521739130435" y="0.0" type="line"/>
      <point x="903.1521739130435" y="0.0" type="line"/>
      <point x="966.1521739130435" y="413.0" type="line"/>
      <point x="1220.4565217391305" y="413.0" type="line"/>
      <point x="1241.608695652174" y="568.0652173913044" type="line"/>
      <point x="991.3043478260869" y="568.0652173913044" type="line"/>
      <point x="1055.6847826086955" y="954.9347826086956" type="line"/>
      <point x="1295.304347826087" y="954.9347826086956" type="line"/>
      <point x="1316.4565217391305" y="1108.0" type="line"/>
      <point x="1077.1521739130435" y="1108.0" type="line"/>
      <point x="1147.1521739130435" y="1539.0" type="line"/>
      <point x="1028.1521739130435" y="1539.0" type="line"/>
      <point x="958.1521739130435" y="1108.0" type="line"/>
      <point x="567.304347826087" y="1108.0" type="line"/>
      <point x="635.304347826087" y="1539.0" type="line"/>
      <point x="517.304347826087" y="1539.0" type="line"/>
      <point x="449.30434782608694" y="1108.0" type="line"/>
      <point x="204.0" y="1108.0" type="line"/>
      <point x="182.84782608695653" y="954.9347826086956" type="line"/>
      <point x="425.1521739130435" y="954.9347826086956" type="line"/>
      <point x="362.4021739130435" y="568.0652173913044" type="line"/>
      <point x="130.15217391304347" y="568.0652173913044" type="line"/>
      <point x="109.0" y="413.0" type="line"/>
    </contour>
    <contour>
      <point x="873.3043478260869" y="568.0652173913044" type="line"/>
      <point x="479.4021739130435" y="568.0652173913044" type="line"/>
      <point x="544.1521739130435" y="954.9347826086956" type="line"/>
      <point x="936.6847826086956" y="954.9347826086956" type="line"/>
    </contour>
  </outline>
</glyph>
<glyph name="dollar" format="2">
  <advance width="1306.391304347826"/>
  <unicode hex="0024"/>
  <outline>
    <contour>
      <point x="457.64130434782606" y="-231.30434782608697" type="line"/>
      <point x="607.195652173913" y="-231.30434782608697" type="line"/>
      <point x="643.1413043478261" y="-20.0" type="line"/>
      <point x="976.2173913043479" y="2.5760869565217392"/>
      <point x="1174.5" y="195.83695652173913"/>
      <point x="1164.2282608695652" y="428.0" type="curve" smooth="yes"/>
      <point x="1157.3804347826087" y="605.858695652174"/>
      <point x="1037.6304347826087" y="703.1086956521739"/>
      <point x="789.4782608695652" y="838.75" type="curve"/>
      <point x="627.2608695652175" y="928.1630434782609"/>
      <point x="467.59782608695656" y="1004.9021739130435"/>
      <point x="467.59782608695656" y="1169.554347826087" type="curve" smooth="yes"/>
      <point x="467.59782608695656" y="1327.3804347826087"/>
      <point x="618.7608695652174" y="1406.9673913043478"/>
      <point x="777.3152173913043" y="1406.9673913043478" type="curve" smooth="yes"/>
      <point x="868.391304347826" y="1406.9673913043478"/>
      <point x="966.8478260869565" y="1380.75"/>
      <point x="1009.2173913043479" y="1351.4891304347825" type="curve"/>
      <point x="1037.7934782608695" y="1167.7608695652175" type="line"/>
      <point x="1173.7173913043478" y="1167.7608695652175" type="line"/>
      <point x="1217.8152173913043" y="1425.8369565217392" type="line"/>
      <point x="1165.608695652174" y="1455.891304347826"/>
      <point x="1059.8695652173915" y="1488.3152173913043"/>
      <point x="901.5" y="1501.3695652173913" type="curve"/>
      <point x="931.7065217391305" y="1693.0326086956522" type="line"/>
      <point x="781.5217391304348" y="1693.0326086956522" type="line"/>
      <point x="751.945652173913" y="1503.3695652173913" type="line"/>
      <point x="468.59782608695656" y="1486.7391304347825"/>
      <point x="245.96739130434784" y="1322.413043478261"/>
      <point x="258.29347826086956" y="1077.7391304347825" type="curve" smooth="yes"/>
      <point x="269.25000000000006" y="863.0652173913043"/>
      <point x="451.78260869565213" y="769.4021739130435"/>
      <point x="652.8913043478261" y="654.0434782608696" type="curve"/>
      <point x="804.9021739130435" y="568.8369565217391"/>
      <point x="949.3478260869565" y="493.30434782608694"/>
      <point x="949.3478260869565" y="333.3369565217391" type="curve" smooth="yes"/>
      <point x="949.3478260869565" y="162.5"/>
      <point x="780.3804347826087" y="75.6086956521739"/>
      <point x="602.0543478260869" y="75.6086956521739" type="curve" smooth="yes"/>
      <point x="505.4673913043478" y="75.6086956521739"/>
      <point x="388.21739130434787" y="101.29347826086956"/>
      <point x="322.8369565217392" y="147.77173913043478" type="curve"/>
      <point x="308.5217391304348" y="351.5" type="line"/>
      <point x="164.70652173913044" y="351.5" type="line"/>
      <point x="117.03260869565217" y="67.83695652173913" type="line"/>
      <point x="160.03260869565216" y="35.83695652173913"/>
      <point x="316.7065217391304" y="-6.423913043478261"/>
      <point x="492.95652173913044" y="-19.369565217391305" type="curve"/>
    </contour>
  </outline>
</glyph>
<glyph name="ampersand" format="2">
  <advance width="1579.7173913043478"/>
  <unicode hex="0026"/>
  <outline>
    <contour>
      <point x="582.7499999999999" y="-17.891304347826086" type="curve" smooth="yes"/>
      <point x="710.2934782608696" y="-17.891304347826086"/>
      <point x="858.7173913043478" y="4.75"/>
      <point x="973.8152173913044" y="60.434782608695656" type="curve"/>
      <point x="1057.336956521739" y="2.369565217391304"/>
      <point x="1135.086956521739" y="-18.42391304347826"/>
      <point x="1233.3478260869565" y="-18.42391304347826" type="curve" smooth="yes"/>
      <point x="1291.2934782608697" y="-18.42391304347826"/>
      <point x="1371.6195652173915" y="-9.489130434782608"/>
      <point x="1434.3260869565217" y="7.934782608695652" type="curve"/>
      <point x="1437.4347826086957" y="99.47826086956522" type="line"/>
      <point x="1387.75" y="94.84782608695653"/>
      <point x="1322.4891304347825" y="104.27173913043478"/>
      <point x="1268.6521739130435" y="119.90217391304347" type="curve"/>
      <point x="1228.108695652174" y="131.3804347826087"/>
      <point x="1189.1521739130435" y="149.5978260869565"/>
      <point x="1155.25" y="172.18478260869566" type="curve"/>
      <point x="1265.032608695652" y="266.29347826086956"/>
      <point x="1347.8804347826087" y="394.46739130434787"/>
      <point x="1347.8804347826087" y="561.0652173913044" type="curve" smooth="yes"/>
      <point x="1347.8804347826087" y="591.445652173913"/>
      <point x="1344.8260869565217" y="611.5652173913044"/>
      <point x="1341.7717391304348" y="627.9891304347826" type="curve"/>
      <point x="1359.195652173913" y="625.9347826086956"/>
      <point x="1379.6739130434783" y="624.5652173913044"/>
      <point x="1398.4673913043478" y="624.5652173913044" type="curve" smooth="yes"/>
      <point x="1444.7282608695652" y="624.5652173913044"/>
      <point x="1499.5108695652175" y="632.6195652173913"/>
      <point x="1542.8804347826087" y="653.25" type="curve"/>
      <point x="1541.5652173913045" y="803.7717391304348" type="line"/>
      <point x="1503.7282608695652" y="783.25"/>
      <point x="1452.5217391304348" y="776.5108695652174"/>
      <point x="1383.1521739130435" y="776.5108695652174" type="curve" smooth="yes"/>
      <point x="1255.7391304347827" y="776.5108695652174"/>
      <point x="1206.9565217391303" y="798.6739130434783"/>
      <point x="1104.2717391304348" y="798.6739130434783" type="curve" smooth="yes"/>
      <point x="1051.9239130434783" y="798.6739130434783"/>
      <point x="1012.9347826086957" y="793.0978260869565"/>
      <point x="996.304347826087" y="776.4673913043479" type="curve"/>
      <point x="997.25" y="629.3586956521739" type="line"/>
      <point x="1023.1413043478261" y="647.195652173913"/>
      <point x="1057.9347826086957" y="647.3586956521739"/>
      <point x="1097.2826086956522" y="647.3586956521739" type="curve" smooth="yes"/>
      <point x="1120.2391304347825" y="647.3586956521739"/>
      <point x="1135.3478260869565" y="647.3586956521739"/>
      <point x="1154.8804347826085" y="645.9891304347826" type="curve"/>
      <point x="1165.0978260869565" y="613.2391304347826"/>
      <point x="1175.1521739130433" y="565.2826086956522"/>
      <point x="1175.1521739130433" y="516.3804347826087" type="curve" smooth="yes"/>
      <point x="1175.1521739130433" y="406.14130434782606"/>
      <point x="1122.6086956521738" y="298.42391304347825"/>
      <point x="1063.9239130434783" y="238.84782608695653" type="curve"/>
      <point x="902.5434782608696" y="371.65217391304344"/>
      <point x="760.7608695652174" y="561.9782608695651"/>
      <point x="647.0652173913044" y="760.4130434782609" type="curve"/>
      <point x="856.0869565217391" y="858.0434782608696"/>
      <point x="1138.7391304347827" y="988.8913043478261"/>
      <point x="1138.7391304347827" y="1227.6304347826087" type="curve" smooth="yes"/>
      <point x="1138.7391304347827" y="1372.978260869565"/>
      <point x="1034.1847826086957" y="1507.0978260869565"/>
      <point x="793.0108695652174" y="1507.0978260869565" type="curve" smooth="yes"/>
      <point x="524.0652173913044" y="1507.0978260869565"/>
      <point x="313.77173913043475" y="1343.3586956521738"/>
      <point x="313.77173913043475" y="1098.2717391304348" type="curve" smooth="yes"/>
      <point x="313.77173913043475" y="985.9565217391304"/>
      <point x="357.82608695652175" y="866.4673913043478"/>
      <point x="412.3478260869565" y="756.0" type="curve"/>
      <point x="227.8804347826087" y="671.3043478260869"/>
      <point x="41.94565217391305" y="555.2608695652174"/>
      <point x="41.94565217391305" y="344.1630434782609" type="curve" smooth="yes"/>
      <point x="41.94565217391305" y="114.16304347826087"/>
      <point x="263.6847826086956" y="-17.891304347826086"/>
    </contour>
    <contour>
      <point x="630.0869565217391" y="81.1413043478261" type="curve" smooth="yes"/>
      <point x="382.7608695652174" y="81.1413043478261"/>
      <point x="261.52173913043475" y="206.58695652173913"/>
      <point x="261.52173913043475" y="357.30434782608694" type="curve" smooth="yes"/>
      <point x="261.52173913043475" y="493.445652173913"/>
      <point x="359.8695652173913" y="582.7717391304349"/>
      <point x="464.10869565217394" y="655.7826086956521" type="curve"/>
      <point x="581.3804347826086" y="464.1413043478261"/>
      <point x="684.4565217391305" y="296.9347826086956"/>
      <point x="885.2282608695652" y="126.5217391304348" type="curve"/>
      <point x="828.4782608695652" y="99.98913043478261"/>
      <point x="727.6413043478261" y="81.1413043478261"/>
    </contour>
    <contour>
      <point x="603.8695652173913" y="845.641304347826" type="curve"/>
      <point x="570.2391304347825" y="914.8913043478261"/>
      <point x="530.3804347826086" y="1017.4347826086956"/>
      <point x="530.3804347826086" y="1125.1413043478262" type="curve" smooth="yes"/>
      <point x="530.3804347826086" y="1306.5978260869567"/>
      <point x="643.8478260869566" y="1412.75"/>
      <point x="765.5434782608696" y="1412.75" type="curve" smooth="yes"/>
      <point x="885.9347826086957" y="1412.75"/>
      <point x="930.2173913043479" y="1309.945652173913"/>
      <point x="930.2173913043479" y="1218.25" type="curve" smooth="yes"/>
      <point x="930.2173913043479" y="1032.6521739130435"/>
      <point x="751.25" y="929.804347826087"/>
    </contour>
  </outline>
</glyph>
<glyph name="parenleft" format="2">
  <advance width="827.1195652173913"/>
  <unicode hex="0028"/>
  <outline>
    <contour>
      <point x="169.83695652173913" y="544.3695652173914" type="curve" smooth="yes"/>
      <point x="168.8913043478261" y="-5.945652173913045"/>
      <point x="455.9130434782609" y="-277.30434782608694"/>
      <point x="528.8586956521739" y="-325.30434782608694" type="curve"/>
      <point x="634.6630434782609" y="-267.1630434782609" type="line"/>
      <point x="556.1847826086956" y="-204.3695652173913"/>
      <point x="359.57608695652175" y="83.22826086956522"/>
      <point x="367.7717391304348" y="560.1413043478261" type="curve" smooth="yes"/>
      <point x="374.07608695652175" y="1020.4565217391305"/>
      <point x="555.6195652173914" y="1393.5652173913043"/>
      <point x="895.5652173913044" y="1645.3695652173913" type="curve"/>
      <point x="808.5434782608696" y="1706.4021739130435" type="line"/>
      <point x="440.4673913043478" y="1493.2173913043478"/>
      <point x="170.7826086956522" y="1084.1847826086955"/>
    </contour>
  </outline>
</glyph>
<glyph name="period" format="2">
  <advance width="455.64130434782606"/>
  <unicode hex="002E"/>
  <outline>
    <contour>
      <point x="59.652173913043484" y="107.92391304347827" type="curve" smooth="yes"/>
      <point x="53.85869565217391" y="32.619565217391305"/>
      <point x="101.73913043478261" y="-18.630434782608695"/>
      <point x="162.72826086956522" y="-18.630434782608695" type="curve" smooth="yes"/>
      <point x="237.02173913043478" y="-18.630434782608695"/>
      <point x="302.4239130434783" y="25.565217391304348"/>
      <point x="308.5869565217392" y="119.90217391304348" type="curve" smooth="yes"/>
      <point x="313.38043478260875" y="187.2608695652174"/>
      <point x="280.7608695652174" y="250.56521739130434"/>
      <point x="201.19565217391306" y="250.56521739130434" type="curve" smooth="yes"/>
      <point x="130.27173913043478" y="250.56521739130434"/>
      <point x="65.44565217391305" y="196.05434782608697"/>
    </contour>
  </outline>
</glyph>
<glyph name="five" format="2">
  <advance width="1129.7608695652175"/>
  <unicode hex="0035"/>
  <outline>
    <contour>
      <point x="66.0" y="98.6086956521739" type="curve"/>
      <point x="52.32608695652174" y="-3.0434782608695654" type="line"/>
      <point x="88.54347826086958" y="-11.782608695652174"/>
      <point x="168.82608695652175" y="-21.565217391304348"/>
      <point x="262.8478260869565" y="-21.565217391304348" type="curve" smooth="yes"/>
      <point x="698.5652173913043" y="-21.565217391304348"/>
      <point x="1041.7391304347825" y="244.22826086956522"/>
      <point x="1041.7391304347825" y="563.4673913043479" type="curve" smooth="yes"/>
      <point x="1041.7391304347825" y="783.9239130434783"/>
      <point x="915.2065217391305" y="930.7391304347826"/>
      <point x="656.4782608695652" y="930.7391304347826" type="curve" smooth="yes"/>
      <point x="520.2065217391304" y="930.7391304347826"/>
      <point x="392.05434782608694" y="901.695652173913"/>
      <point x="334.5652173913043" y="875.0652173913044" type="curve"/>
      <point x="469.695652173913" y="1322.2608695652173" type="line"/>
      <point x="1069.282608695652" y="1321.6304347826087" type="line"/>
      <point x="1124.3804347826087" y="1512.6304347826087" type="line"/>
      <point x="981.945652173913" y="1512.6304347826087" type="line"/>
      <point x="950.4673913043479" y="1486.0" type="line"/>
      <point x="318.1304347826087" y="1486.0" type="line"/>
      <point x="151.7173913043478" y="782.3478260869565" type="line"/>
      <point x="200.59782608695653" y="747.3043478260869" type="line"/>
      <point x="272.5108695652174" y="775.4130434782609"/>
      <point x="401.60869565217394" y="809.4130434782608"/>
      <point x="515.8152173913044" y="809.4130434782608" type="curve" smooth="yes"/>
      <point x="719.7934782608696" y="809.4130434782608"/>
      <point x="804.4673913043479" y="706.3478260869565"/>
      <point x="804.4673913043479" y="559.6086956521739" type="curve" smooth="yes"/>
      <point x="804.4673913043479" y="276.0652173913044"/>
      <point x="548.7934782608695" y="86.71739130434783"/>
      <point x="217.6086956521739" y="86.71739130434783" type="curve" smooth="yes"/>
      <point x="135.4673913043478" y="86.71739130434783"/>
      <point x="98.27173913043478" y="92.6086956521739"/>
    </contour>
  </outline>
</glyph>
<glyph name="six" format="2">
  <advance width="1197.195652173913"/>
  <unicode hex="0036"/>
  <outline>
    <contour>
      <point x="549.7717391304348" y="-22.52173913043478" type="curve" smooth="yes"/>
      <point x="885.6086956521739" y="-22.52173913043478"/>
      <point x="1125.1739130434783" y="266.1086956521739"/>
      <point x="1125.1739130434783" y="568.6304347826087" type="curve" smooth="yes"/>
      <point x="1125.1739130434783" y="781.0326086956521"/>
      <point x="1001.5108695652174" y="957.1521739130435"/>
      <point x="736.2934782608695" y="957.1521739130435" type="curve" smooth="yes"/>
      <point x="552.1630434782609" y="957.1521739130435"/>
      <point x="429.3152173913043" y="870.7065217391304"/>
      <point x="364.04347826086956" y="803.9673913043478" type="curve"/>
      <point x="453.3804347826087" y="1062.5326086956522"/>
      <point x="694.2391304347826" y="1343.5978260869565"/>
      <point x="1034.2934782608695" y="1441.8260869565217" type="curve"/>
      <point x="998.1521739130435" y="1531.4782608695652" type="line"/>
      <point x="441.05434782608694" y="1399.3695652173915"/>
      <point x="88.71739130434783" y="946.0978260869565"/>
      <point x="88.71739130434783" y="485.44565217391306" type="curve" smooth="yes"/>
      <point x="88.71739130434783" y="215.1304347826087"/>
      <point x="247.22826086956525" y="-22.52173913043478"/>
    </contour>
    <contour>
      <point x="573.8913043478261" y="79.66304347826087" type="curve" smooth="yes"/>
      <point x="384.7717391304348" y="79.66304347826087"/>
      <point x="311.94565217391306" y="238.91304347826087"/>
      <point x="311.94565217391306" y="428.6521739130435" type="curve" smooth="yes"/>
      <point x="311.94565217391306" y="518.2173913043478"/>
      <point x="320.8478260869565" y="588.7608695652174"/>
      <point x="342.05434782608694" y="670.6413043478261" type="curve"/>
      <point x="383.5326086956522" y="722.6413043478261"/>
      <point x="477.5869565217392" y="832.5652173913043"/>
      <point x="665.5434782608696" y="832.5652173913043" type="curve" smooth="yes"/>
      <point x="803.7934782608696" y="832.5652173913043"/>
      <point x="896.0" y="732.2173913043479"/>
      <point x="896.0" y="538.2173913043478" type="curve" smooth="yes"/>
      <point x="896.0" y="338.5217391304348"/>
      <point x="796.9782608695652" y="79.66304347826087"/>
    </contour>
  </outline>
</glyph>
<glyph name="seven" format="2">
  <advance width="1158.8586956521738"/>
  <unicode hex="0037"/>
  <outline>
    <contour>
      <point x="1022.2173913043479" y="1329.163043478261" type="line"/>
      <point x="300.4130434782609" y="0.0" type="line"/>
      <point x="555.7391304347826" y="-0.6304347826086957" type="line"/>
      <point x="1205.4673913043478" y="1443.9021739130435" type="line"/>
      <point x="1173.6304347826087" y="1486.0" type="line"/>
      <point x="203.2173913043478" y="1486.0" type="line"/>
      <point x="135.74999999999997" y="1128.9456521739132" type="line"/>
      <point x="284.32608695652175" y="1102.054347826087" type="line"/>
      <point x="379.6304347826087" y="1329.8478260869565" type="line"/>
    </contour>
  </outline>
</glyph>
<glyph name="eight" format="2">
  <advance width="1231.7065217391305"/>
  <unicode hex="0038"/>
  <outline>
    <contour>
      <point x="543.8260869565216" y="-21.782608695652172" type="curve" smooth="yes"/>
      <point x="852.5760869565217" y="-21.782608695652172"/>
      <point x="1114.5760869565217" y="132.6195652173913"/>
      <point x="1114.5760869565215" y="392.51086956521743" type="curve" smooth="yes"/>
      <point x="1114.5760869565217" y="562.9239130434783"/>
      <point x="959.304347826087" y="685.6739130434783"/>
      <point x="799.0978260869565" y="786.6195652173913" type="curve"/>
      <point x="1029.1521739130435" y="876.1086956521739"/>
      <point x="1179.1739130434783" y="1023.4565217391305"/>
      <point x="1179.1739130434783" y="1200.6304347826087" type="curve" smooth="yes"/>
      <point x="1179.1739130434783" y="1378.2282608695652"/>
      <point x="998.6847826086956" y="1502.0"/>
      <point x="754.7826086956522" y="1502.0" type="curve" smooth="yes"/>
      <point x="446.5" y="1502.0"/>
      <point x="236.33695652173913" y="1343.1195652173913"/>
      <point x="236.33695652173913" y="1135.5326086956522" type="curve" smooth="yes"/>
      <point x="236.33695652173913" y="976.695652173913"/>
      <point x="370.55434782608694" y="851.1739130434783"/>
      <point x="482.4021739130435" y="768.4347826086956" type="curve"/>
      <point x="239.88043478260872" y="694.3152173913044"/>
      <point x="65.33695652173914" y="546.1086956521739"/>
      <point x="65.33695652173913" y="340.9347826086956" type="curve" smooth="yes"/>
      <point x="65.33695652173913" y="88.10869565217392"/>
      <point x="317.42391304347825" y="-21.782608695652172"/>
    </contour>
    <contour>
      <point x="705.445652173913" y="849.6413043478261" type="curve"/>
      <point x="566.8152173913043" y="935.3260869565217"/>
      <point x="445.20652173913044" y="1030.7608695652173"/>
      <point x="445.20652173913044" y="1162.5652173913045" type="curve" smooth="yes"/>
      <point x="445.20652173913044" y="1310.2608695652175"/>
      <point x="571.804347826087" y="1410.5434782608695"/>
      <point x="739.6739130434783" y="1410.5434782608695" type="curve" smooth="yes"/>
      <point x="869.2173913043479" y="1410.5434782608695"/>
      <point x="978.0217391304349" y="1344.1086956521738"/>
      <point x="978.0217391304348" y="1190.195652173913" type="curve" smooth="yes"/>
      <point x="978.0217391304348" y="1034.9239130434783"/>
      <point x="876.4130434782609" y="914.1739130434784"/>
    </contour>
    <contour>
      <point x="570.304347826087" y="79.25" type="curve" smooth="yes"/>
      <point x="394.90217391304344" y="79.25"/>
      <point x="285.3695652173913" y="197.04347826086956"/>
      <point x="285.36956521739137" y="351.3804347826087" type="curve" smooth="yes"/>
      <point x="285.3695652173913" y="516.6630434782609"/>
      <point x="403.4673913043478" y="648.7717391304348"/>
      <point x="565.0" y="700.8804347826086" type="curve"/>
      <point x="745.2717391304348" y="587.1956521739131"/>
      <point x="892.9239130434783" y="502.53260869565213"/>
      <point x="892.9239130434783" y="353.0652173913044" type="curve" smooth="yes"/>
      <point x="892.9239130434783" y="182.94565217391303"/>
      <point x="754.5326086956522" y="79.25"/>
    </contour>
  </outline>
</glyph>
<glyph name="nine" format="2">
  <advance width="1214.6521739130435"/>
  <unicode hex="0039"/>
  <outline>
    <contour>
      <point x="291.5760869565217" y="-65.48913043478261" type="line"/>
      <point x="860.6847826086956" y="72.46739130434783"/>
      <point x="1174.6739130434783" y="518.1304347826087"/>
      <point x="1174.6739130434783" y="993.2608695652174" type="curve" smooth="yes"/>
      <point x="1174.6739130434783" y="1285.0543478260868"/>
      <point x="1002.2934782608696" y="1498.1521739130435"/>
      <point x="706.054347826087" y="1496.782608695652" type="curve" smooth="yes"/>
      <point x="350.5652173913044" y="1495.4130434782608"/>
      <point x="124.54347826086956" y="1200.967391304348"/>
      <point x="124.54347826086956" y="931.8586956521739" type="curve" smooth="yes"/>
      <point x="124.54347826086956" y="708.2282608695651"/>
      <point x="256.0869565217391" y="513.2173913043478"/>
      <point x="523.4130434782609" y="513.2173913043478" type="curve" smooth="yes"/>
      <point x="708.1195652173913" y="513.2173913043478"/>
      <point x="830.608695652174" y="590.5"/>
      <point x="898.5108695652174" y="660.2934782608695" type="curve"/>
      <point x="809.2282608695651" y="393.84782608695656"/>
      <point x="606.8695652173914" y="128.1304347826087"/>
      <point x="252.54347826086956" y="25.054347826086957" type="curve"/>
    </contour>
    <contour>
      <point x="585.9021739130435" y="640.695652173913" type="curve" smooth="yes"/>
      <point x="441.4130434782609" y="640.695652173913"/>
      <point x="351.9782608695652" y="764.1195652173914"/>
      <point x="351.9782608695652" y="967.4347826086956" type="curve" smooth="yes"/>
      <point x="351.9782608695652" y="1149.5108695652175"/>
      <point x="454.94565217391306" y="1394.0217391304348"/>
      <point x="683.7717391304348" y="1394.0217391304348" type="curve" smooth="yes"/>
      <point x="862.8586956521739" y="1394.0217391304348"/>
      <point x="946.9782608695652" y="1246.945652173913"/>
      <point x="946.9782608695652" y="1031.75" type="curve" smooth="yes"/>
      <point x="946.9782608695652" y="952.7391304347826"/>
      <point x="936.9239130434783" y="872.5108695652174"/>
      <point x="918.2391304347826" y="800.358695652174" type="curve"/>
      <point x="873.3913043478261" y="747.9347826086956"/>
      <point x="773.108695652174" y="640.695652173913"/>
    </contour>
  </outline>
</glyph>
<glyph name="less" format="2">
  <advance width="1294.021739130435"/>
  <unicode hex="003C"/>
  <outline>
    <contour>
      <point x="134.31521739130434" y="700.8913043478261" type="line"/>
      <point x="121.36956521739131" y="590.5869565217391" type="line"/>
      <point x="1065.021739130435" y="85.05434782608695" type="line"/>
      <point x="1083.9673913043478" y="247.15217391304347" type="line"/>
      <point x="315.80434782608694" y="642.3695652173913" type="line"/>
      <point x="1185.5652173913045" y="1024.5869565217392" type="line"/>
      <point x="1207.7173913043478" y="1205.054347826087" type="line"/>
    </contour>
  </outline>
</glyph>
<glyph name="equal" format="2">
  <advance width="1181.2391304347827"/>
  <unicode hex="003D"/>
  <outline>
    <contour>
      <point x="220.8913043478261" y="970.8695652173913" type="line"/>
      <point x="204.4782608695652" y="824.0108695652174" type="line"/>
      <point x="1053.2934782608695" y="824.0108695652174" type="line"/>
      <point x="1071.0760869565217" y="970.8695652173913" type="line"/>
    </contour>
    <contour>
      <point x="151.6304347826087" y="462.35869565217394" type="line"/>
      <point x="135.84782608695653" y="315.5" type="line"/>
      <point x="984.3478260869565" y="315.5" type="line"/>
      <point x="1002.1304347826086" y="462.35869565217394" type="line"/>
    </contour>
  </outline>
</glyph>
<glyph name="at" format="2">
  <advance width="2017.1739130434783"/>
  <unicode hex="0040"/>
  <outline>
    <contour>
      <point x="102.68478260869566" y="332.54347826086956" type="curve" smooth="yes"/>
      <point x="102.68478260869566" y="-163.2391304347826"/>
      <point x="429.29347826086956" y="-500.0"/>
      <point x="947.054347826087" y="-500.0" type="curve" smooth="yes"/>
      <point x="1135.771739130435" y="-500.0"/>
      <point x="1292.1413043478262" y="-455.3695652173913"/>
      <point x="1387.8260869565217" y="-386.0" type="curve"/>
      <point x="1361.1413043478262" y="-316.0" type="line"/>
      <point x="1295.1413043478262" y="-348.7391304347826"/>
      <point x="1151.1413043478262" y="-398.0"/>
      <point x="967.054347826087" y="-398.0" type="curve" smooth="yes"/>
      <point x="554.2065217391304" y="-398.0"/>
      <point x="260.5978260869565" y="-115.30434782608695"/>
      <point x="260.5978260869565" y="365.0" type="curve" smooth="yes"/>
      <point x="260.5978260869565" y="895.0"/>
      <point x="620.445652173913" y="1407.0"/>
      <point x="1182.2934782608697" y="1407.0" type="curve" smooth="yes"/>
      <point x="1518.1413043478262" y="1407.0"/>
      <point x="1806.6847826086957" y="1253.0"/>
      <point x="1806.6847826086957" y="825.0" type="curve" smooth="yes"/>
      <point x="1806.6847826086957" y="473.9130434782609"/>
      <point x="1608.9673913043478" y="103.07608695652173"/>
      <point x="1437.4565217391305" y="103.07608695652173" type="curve" smooth="yes"/>
      <point x="1411.0760869565217" y="103.07608695652173"/>
      <point x="1400.554347826087" y="134.56521739130434"/>
      <point x="1399.8695652173913" y="167.70652173913044" type="curve" smooth="yes"/>
      <point x="1397.1304347826087" y="204.9673913043478"/>
      <point x="1402.0869565217392" y="287.57608695652175"/>
      <point x="1412.0869565217392" y="388.2608695652174" type="curve" smooth="yes"/>
      <point x="1433.4021739130435" y="585.6304347826087"/>
      <point x="1487.8260869565217" y="880.0434782608696"/>
      <point x="1528.5108695652175" y="1030.0434782608695" type="curve"/>
      <point x="1367.8152173913043" y="996.4782608695652" type="line"/>
      <point x="1308.0760869565217" y="1034.4782608695652"/>
      <point x="1199.1195652173913" y="1052.3152173913043"/>
      <point x="1140.75" y="1052.3152173913043" type="curve" smooth="yes"/>
      <point x="749.4456521739131" y="1052.3152173913043"/>
      <point x="554.0" y="703.1413043478261"/>
      <point x="552.6304347826087" y="409.3152173913044" type="curve" smooth="yes"/>
      <point x="550.945652173913" y="119.31521739130434"/>
      <point x="713.195652173913" y="-37.26086956521739"/>
      <point x="864.3369565217391" y="-37.26086956521739" type="curve" smooth="yes"/>
      <point x="1022.5000000000001" y="-37.26086956521739"/>
      <point x="1170.4673913043478" y="210.04347826086956"/>
      <point x="1267.4565217391305" y="441.4782608695652" type="curve"/>
      <point x="1239.2934782608697" y="331.25"/>
      <point x="1229.2282608695652" y="214.04347826086956"/>
      <point x="1229.2282608695652" y="168.04347826086956" type="curve" smooth="yes"/>
      <point x="1229.2282608695652" y="62.630434782608695"/>
      <point x="1244.4239130434783" y="-27.532608695652172"/>
      <point x="1340.108695652174" y="-27.532608695652172" type="curve" smooth="yes"/>
      <point x="1629.554347826087" y="-27.532608695652172"/>
      <point x="1948.8586956521738" y="334.1847826086956"/>
      <point x="1948.8586956521738" y="876.2608695652174" type="curve" smooth="yes"/>
      <point x="1948.8586956521738" y="1305.7717391304348"/>
      <point x="1625.9021739130435" y="1513.0"/>
      <point x="1250.2934782608697" y="1513.0" type="curve" smooth="yes"/>
      <point x="636.5869565217392" y="1513.0"/>
      <point x="102.68478260869566" y="1037.858695652174"/>
    </contour>
    <contour>
      <point x="744.3478260869566" y="420.5217391304348" type="curve" smooth="yes"/>
      <point x="744.3478260869566" y="659.8369565217391"/>
      <point x="844.2934782608696" y="937.1304347826087"/>
      <point x="1125.228260869565" y="937.1304347826087" type="curve" smooth="yes"/>
      <point x="1181.7065217391305" y="937.1304347826087"/>
      <point x="1282.6086956521738" y="906.7717391304348"/>
      <point x="1317.9891304347827" y="858.5" type="curve"/>
      <point x="1238.8260869565217" y="531.304347826087"/>
      <point x="1031.9673913043478" y="121.27173913043478"/>
      <point x="903.6847826086956" y="121.27173913043478" type="curve" smooth="yes"/>
      <point x="806.3586956521739" y="121.27173913043478"/>
      <point x="744.3478260869566" y="256.0108695652174"/>
    </contour>
  </outline>
</glyph>
<glyph name="C" format="2">
  <advance width="1364.7065217391305"/>
  <unicode hex="0043"/>
  <anchor x="682.2826086956522" y="0.0" name="bottom"/>
  <anchor x="869.2282608695652" y="1486.0" name="top"/>
  <outline>
    <contour>
      <point x="699.5" y="-16.0" type="curve" smooth="yes"/>
      <point x="942.7608695652174" y="-16.0"/>
      <point x="1101.554347826087" y="47.03260869565217"/>
      <point x="1199.304347826087" y="90.28260869565217" type="curve"/>
      <point x="1240.25" y="411.7391304347826" type="line"/>
      <point x="1108.0434782608697" y="411.7391304347826" type="line"/>
      <point x="1086.7282608695652" y="338.79347826086956"/>
      <point x="1062.413043478261" y="248.52173913043478"/>
      <point x="1036.9999999999998" y="187.66304347826087" type="curve"/>
      <point x="972.695652173913" y="121.1413043478261"/>
      <point x="826.6195652173913" y="100.28260869565217"/>
      <point x="729.5869565217391" y="100.28260869565217" type="curve" smooth="yes"/>
      <point x="437.29347826086956" y="100.28260869565217"/>
      <point x="327.27173913043475" y="366.3586956521739"/>
      <point x="327.27173913043475" y="646.6521739130435" type="curve" smooth="yes"/>
      <point x="327.27173913043475" y="1026.9673913043478"/>
      <point x="523.1521739130434" y="1397.4891304347825"/>
      <point x="895.4347826086956" y="1397.4891304347825" type="curve" smooth="yes"/>
      <point x="1025.2826086956522" y="1397.4891304347825"/>
      <point x="1088.9782608695652" y="1378.1630434782608"/>
      <point x="1134.25" y="1357.891304347826" type="curve"/>
      <point x="1153.6521739130435" y="1077.4891304347825" type="line"/>
      <point x="1293.4130434782608" y="1077.4891304347825" type="line"/>
      <point x="1355.7826086956522" y="1444.5217391304348" type="line"/>
      <point x="1281.945652173913" y="1453.5760869565217"/>
      <point x="1124.5326086956522" y="1502.6304347826087"/>
      <point x="923.4673913043478" y="1502.6304347826087" type="curve" smooth="yes"/>
      <point x="454.8478260869565" y="1502.6304347826087"/>
      <point x="91.22826086956522" y="1161.9782608695652"/>
      <point x="91.22826086956522" y="623.0869565217391" type="curve" smooth="yes"/>
      <point x="91.22826086956522" y="303.90217391304344"/>
      <point x="251.05434782608697" y="-16.0"/>
    </contour>
  </outline>
</glyph>
<glyph name="H" format="2">
  <advance width="1628.8478260869565"/>
  <unicode hex="0048"/>
  <anchor x="747.9456521739131" y="0.0" name="bottom"/>
  <anchor x="1492.413043478261" y="0.0" name="bottomright"/>
  <anchor x="950.9565217391304" y="1486.0" name="top"/>
  <outline>
    <contour>
      <point x="-5.782608695652175" y="0.0" type="line"/>
      <point x="549.6304347826087" y="0.0" type="line"/>
      <point x="560.2608695652174" y="88.19565217391305" type="line"/>
      <point x="380.21739130434787" y="112.82608695652173" type="line"/>
      <point x="549.9565217391305" y="1375.913043478261" type="line"/>
      <point x="727.9456521739131" y="1397.804347826087" type="line"/>
      <point x="738.5760869565217" y="1486.0" type="line"/>
      <point x="191.3804347826087" y="1486.0" type="line"/>
      <point x="180.75" y="1397.804347826087" type="line"/>
      <point x="330.0108695652174" y="1375.913043478261" type="line"/>
      <point x="160.27173913043478" y="112.82608695652173" type="line"/>
      <point x="4.847826086956522" y="88.19565217391305" type="line"/>
    </contour>
    <contour>
      <point x="430.92391304347825" y="700.3260869565217" type="line"/>
      <point x="1272.9347826086957" y="700.3260869565217" type="line"/>
      <point x="1272.25" y="814.4130434782609" type="line"/>
      <point x="429.554347826087" y="814.4130434782609" type="line"/>
    </contour>
    <contour>
      <point x="938.1630434782609" y="0.0" type="line"/>
      <point x="1489.467391304348" y="0.0" type="line"/>
      <point x="1499.4130434782608" y="88.19565217391305" type="line"/>
      <point x="1344.3695652173915" y="112.82608695652173" type="line"/>
      <point x="1514.108695652174" y="1375.913043478261" type="line"/>
      <point x="1668.6847826086955" y="1397.804347826087" type="line"/>
      <point x="1678.6304347826087" y="1486.0" type="line"/>
      <point x="1131.4347826086957" y="1486.0" type="line"/>
      <point x="1121.4891304347825" y="1397.804347826087" type="line"/>
      <point x="1294.1630434782608" y="1375.913043478261" type="line"/>
      <point x="1124.4239130434783" y="112.82608695652173" type="line"/>
      <point x="948.1086956521739" y="88.19565217391305" type="line"/>
    </contour>
  </outline>
</glyph>
<glyph name="J" format="2">
  <advance width="714.9021739130435"/>
  <unicode hex="004A"/>
  <anchor x="297.90217391304344" y="-164.0" name="btm"/>
  <anchor x="504.30434782608694" y="1486.0" name="top"/>
  <outline>
    <contour>
      <point x="-147.54347826086956" y="-336.0" type="line"/>
      <point x="101.97826086956522" y="-298.84782608695656"/>
      <point x="316.3152173913043" y="-217.6086956521739"/>
      <point x="405.5217391304348" y="53.51086956521739" type="curve" smooth="yes"/>
      <point x="456.7717391304348" y="200.68478260869566"/>
      <point x="505.3586956521739" y="685.6739130434783"/>
      <point x="586.2391304347826" y="1377.5978260869565" type="curve"/>
      <point x="757.5652173913044" y="1397.4891304347825" type="line"/>
      <point x="767.5108695652174" y="1486.0" type="line"/>
      <point x="215.49999999999997" y="1486.0" type="line"/>
      <point x="205.18478260869566" y="1397.4891304347825" type="line"/>
      <point x="370.9782608695652" y="1376.9673913043478" type="line"/>
      <point x="323.60869565217394" y="959.7934782608695"/>
      <point x="267.55434782608694" y="441.67391304347825"/>
      <point x="205.07608695652175" y="108.48913043478261" type="curve" smooth="yes"/>
      <point x="162.8586956521739" y="-114.3586956521739"/>
      <point x="21.97826086956522" y="-200.7173913043478"/>
      <point x="-186.1086956521739" y="-255.5978260869565" type="curve"/>
    </contour>
  </outline>
</glyph>
<glyph name="K" format="2">
  <advance width="1467.7934782608695"/>
  <unicode hex="004B"/>
  <anchor x="717.6739130434783" y="0.0" name="bottom"/>
  <anchor x="855.054347826087" y="1486.0" name="top"/>
  <outline>
    <contour>
      <point x="-2.0000000000000004" y="33.41304347826087" type="line"/>
      <point x="331.8152173913044" y="0.0" type="line"/>
      <point x="556.7934782608696" y="54.78260869565217" type="line"/>
      <point x="440.7391304347826" y="104.63043478260869" type="line"/>
      <point x="497.3152173913044" y="990.7173913043478" type="line"/>
      <point x="667.7391304347826" y="1389.608695652174" type="line"/>
      <point x="734.7934782608696" y="1452.5869565217392" type="line"/>
      <point x="409.195652173913" y="1486.0" type="line"/>
      <point x="184.5326086956522" y="1431.217391304348" type="line"/>
      <point x="282.0978260869565" y="1384.108695652174" type="line"/>
      <point x="212.91304347826087" y="498.0217391304348" type="line"/>
      <point x="52.76086956521739" y="96.39130434782608" type="line"/>
    </contour>
    <contour>
      <point x="419.2717391304348" y="528.1956521739131" type="line"/>
      <point x="1072.5217391304348" y="1094.2173913043478" type="line"/>
      <point x="1472.608695652174" y="1389.6086956521738" type="line"/>
      <point x="1522.641304347826" y="1451.9565217391305" type="line"/>
      <point x="1223.75" y="1486.0" type="line"/>
      <point x="1049.2065217391305" y="1431.2173913043478" type="line"/>
      <point x="1148.1413043478262" y="1384.108695652174" type="line"/>
      <point x="659.9239130434783" y="848.6304347826087" type="line"/>
    </contour>
    <contour>
      <point x="1403.0434782608695" y="0.0" type="line"/>
      <point x="1418.8260869565217" y="87.03260869565217" type="line"/>
      <point x="1289.5" y="118.40217391304348" type="line"/>
      <point x="1241.554347826087" y="143.34782608695653"/>
      <point x="1193.2934782608695" y="236.80434782608697"/>
      <point x="1070.478260869565" y="430.4891304347826" type="curve" smooth="yes"/>
      <point x="999.6739130434783" y="537.75"/>
      <point x="883.0326086956521" y="755.5543478260869"/>
      <point x="812.7608695652174" y="862.2934782608696" type="curve"/>
      <point x="664.2717391304348" y="721.8804347826086" type="line"/>
      <point x="727.4782608695652" y="597.0869565217391"/>
      <point x="815.2826086956521" y="423.6413043478261"/>
      <point x="881.4021739130435" y="305.7608695652174" type="curve" smooth="yes"/>
      <point x="964.6847826086956" y="159.19565217391306"/>
      <point x="1050.4673913043478" y="4.630434782608695"/>
      <point x="1104.5652173913043" y="0.0" type="curve"/>
    </contour>
  </outline>
</glyph>
<glyph name="L" format="2">
  <advance width="1264.8913043478262"/>
  <unicode hex="004C"/>
  <anchor x="562.9782608695652" y="0.0" name="bottom"/>
  <anchor x="851.5217391304348" y="1110.0" name="car"/>
  <anchor x="974.6086956521739" y="1618.0" name="caron"/>
  <anchor x="379.38043478260875" y="743.0" name="center"/>
  <anchor x="471.1195652173913" y="1486.0" name="top"/>
  <anchor x="1397.978510869565" y="1486.0" name="topright"/>
  <outline>
    <contour>
      <point x="-2.0000000000000004" y="33.41304347826087" type="line"/>
      <point x="714.608695652174" y="0.0" type="line"/>
      <point x="1167.2391304347825" y="293.0869565217391" type="line"/>
      <point x="1134.2826086956522" y="481.9347826086957" type="line"/>
      <point x="983.4130434782609" y="253.30434782608697" type="line"/>
      <point x="508.7173913043478" y="110.07608695652175" type="line"/>
      <point x="497.00000000000006" y="988.5108695652175" type="line"/>
      <point x="681.4347826086957" y="1389.608695652174" type="line"/>
      <point x="754.7934782608696" y="1452.5869565217392" type="line"/>
      <point x="415.5" y="1486.0" type="line"/>
      <point x="184.5326086956522" y="1431.217391304348" type="line"/>
      <point x="282.0978260869565" y="1384.108695652174" type="line"/>
      <point x="212.91304347826087" y="498.0217391304348" type="line"/>
      <point x="52.76086956521739" y="96.39130434782608" type="line"/>
    </contour>
  </outline>
</glyph>
<glyph name="N" format="2">
  <advance width="1603.6630434782608"/>
  <unicode hex="004E"/>
  <anchor x="718.945652173913" y="0.0" name="bottom"/>
  <anchor x="887.3369565217391" y="1486.0" name="top"/>
  <outline>
    <contour>
      <point x="-5.782608695652175" y="0.0" type="line"/>
      <point x="505.4347826086956" y="0.0" type="line"/>
      <point x="513.4347826086956" y="88.19565217391305" type="line"/>
      <point x="321.85869565217394" y="113.45652173913044" type="line"/>
      <point x="467.39130434782606" y="1395.3260869565217" type="line"/>
      <point x="427.25" y="1392.0108695652175" type="line"/>
      <point x="553.3913043478261" y="1057.2391304347827" type="line"/>
      <point x="1087.7826086956522" y="0.0" type="line"/>
      <point x="1311.8695652173913" y="0.0" type="line"/>
      <point x="1502.445652173913" y="1374.4347826086955" type="line"/>
      <point x="1661.9673913043478" y="1397.804347826087" type="line"/>
      <point x="1672.5978260869565" y="1486.0" type="line"/>
      <point x="1168.945652173913" y="1486.0" type="line"/>
      <point x="1159.6847826086957" y="1397.804347826087" type="line"/>
      <point x="1343.695652173913" y="1374.4347826086957" type="line"/>
      <point x="1191.5434782608695" y="101.3913043478261" type="line"/>
      <point x="1239.108695652174" y="100.91304347826086" type="line"/>
      <point x="1112.967391304348" y="434.3152173913044" type="line"/>
      <point x="578.8260869565217" y="1486.0" type="line"/>
      <point x="191.3804347826087" y="1486.0" type="line"/>
      <point x="180.75" y="1397.804347826087" type="line"/>
      <point x="332.75" y="1375.913043478261" type="line"/>
      <point x="160.27173913043478" y="112.82608695652173" type="line"/>
      <point x="4.847826086956522" y="88.19565217391305" type="line"/>
    </contour>
  </outline>
</glyph>
<glyph name="U" format="2">
  <advance width="1505.6304347826085"/>
  <unicode hex="0055"/>
  <anchor x="618.4782608695651" y="0.0" name="bottom"/>
  <anchor x="853.6521739130435" y="20.0" name="ogonek"/>
  <anchor x="904.6847826086957" y="1486.0" name="top"/>
  <anchor x="1445.7391304347825" y="1486.0" name="topright"/>
  <outline>
    <contour>
      <point x="1436.3478260869565" y="1377.5978260869565" type="line"/>
      <point x="1575.9782608695652" y="1398.1195652173915" type="line"/>
      <point x="1585.2391304347825" y="1486.0" type="line"/>
      <point x="1143.967391304348" y="1486.0" type="line"/>
      <point x="1134.7065217391303" y="1397.804347826087" type="line"/>
      <point x="1285.8043478260868" y="1375.9130434782608" type="line"/>
      <point x="1185.4891304347825" y="612.0" type="line" smooth="yes"/>
      <point x="1139.1195652173913" y="258.29347826086956"/>
      <point x="1000.0434782608696" y="89.92391304347825"/>
      <point x="723.25" y="89.92391304347825" type="curve" smooth="yes"/>
      <point x="485.07608695652175" y="89.92391304347825"/>
      <point x="386.95652173913044" y="223.1413043478261"/>
      <point x="386.95652173913044" y="461.2173913043478" type="curve" smooth="yes"/>
      <point x="386.95652173913044" y="509.5869565217391"/>
      <point x="390.95652173913044" y="562.2717391304349"/>
      <point x="398.95652173913044" y="618.9565217391305" type="curve" smooth="yes"/>
      <point x="500.95652173913044" y="1375.913043478261" type="line"/>
      <point x="682.0978260869565" y="1397.804347826087" type="line"/>
      <point x="692.7282608695651" y="1486.0" type="line"/>
      <point x="145.5326086956522" y="1486.0" type="line"/>
      <point x="134.90217391304347" y="1397.804347826087" type="line"/>
      <point x="281.01086956521743" y="1375.913043478261" type="line"/>
      <point x="177.0108695652174" y="604.6956521739131" type="line" smooth="yes"/>
      <point x="170.32608695652175" y="558.2173913043479"/>
      <point x="167.6413043478261" y="514.4239130434783"/>
      <point x="167.6413043478261" y="473.3152173913044" type="curve" smooth="yes"/>
      <point x="167.6413043478261" y="155.73913043478262"/>
      <point x="350.9347826086957" y="-20.0"/>
      <point x="697.3586956521739" y="-20.0" type="curve" smooth="yes"/>
      <point x="1070.0978260869567" y="-20.0"/>
      <point x="1276.7173913043478" y="158.30434782608697"/>
      <point x="1336.0326086956522" y="612.0" type="curve" smooth="yes"/>
    </contour>
  </outline>
</glyph>
<glyph name="W" format="2">
  <advance width="2020.5978260869565"/>
  <unicode hex="0057"/>
  <anchor x="848.5217391304348" y="0.0" name="bottom"/>
  <anchor x="1069.5978260869565" y="1486.0" name="top"/>
  <outline>
    <contour>
      <point x="441.82608695652175" y="-16.16304347826087" type="line"/>
      <point x="633.2717391304348" y="-10.0" type="line"/>
      <point x="1186.5108695652175" y="1209.5760869565217" type="line"/>
      <point x="1063.141304347826" y="1253.4021739130435" type="line"/>
      <point x="710.1739130434783" y="459.0217391304348" type="line"/>
      <point x="560.858695652174" y="93.95652173913044" type="line"/>
      <point x="611.8478260869565" y="87.69565217391303" type="line"/>
      <point x="561.0434782608696" y="459.0217391304348" type="line"/>
      <point x="415.7608695652174" y="1376.2282608695652" type="line"/>
      <point x="621.1086956521739" y="1397.804347826087" type="line"/>
      <point x="629.1086956521739" y="1486.0" type="line"/>
      <point x="63.08695652173913" y="1486.0" type="line"/>
      <point x="54.5108695652174" y="1397.804347826087" type="line"/>
      <point x="189.0326086956522" y="1376.2282608695652" type="line"/>
    </contour>
    <contour>
      <point x="1232.391304347826" y="-16.16304347826087" type="line"/>
      <point x="1423.8369565217392" y="-10.0" type="line"/>
      <point x="2076.2065217391305" y="1377.5978260869565" type="line"/>
      <point x="2198.989130434783" y="1397.804347826087" type="line"/>
      <point x="2207.5652173913045" y="1486.0" type="line"/>
      <point x="1749.5108695652173" y="1486.0" type="line"/>
      <point x="1740.5652173913043" y="1397.804347826087" type="line"/>
      <point x="1918.1847826086957" y="1376.2282608695652" type="line"/>
      <point x="1503.4782608695652" y="459.0217391304348" type="line"/>
      <point x="1348.6847826086955" y="93.95652173913044" type="line"/>
      <point x="1405.1521739130435" y="87.69565217391303" type="line"/>
      <point x="1359.8260869565217" y="459.0217391304348" type="line"/>
      <point x="1226.8695652173913" y="1376.2282608695652" type="line"/>
      <point x="1418.5217391304348" y="1397.804347826087" type="line"/>
      <point x="1426.5217391304348" y="1486.0" type="line"/>
      <point x="857.7608695652174" y="1486.0" type="line"/>
      <point x="849.1847826086956" y="1397.804347826087" type="line"/>
      <point x="997.4021739130435" y="1376.2282608695652" type="line"/>
    </contour>
  </outline>
</glyph>
<glyph name="X" format="2">
  <advance width="1424.4782608695652"/>
  <unicode hex="0058"/>
  <anchor x="571.141304347826" y="0.0" name="bottom"/>
  <anchor x="1348.9347826086957" y="0.0" name="bottomright"/>
  <anchor x="722.2826086956521" y="746.0" name="center"/>
  <anchor x="828.7934782608695" y="1660.0" name="top"/>
  <outline>
    <contour>
      <point x="-67.6304347826087" y="0.0" type="line"/>
      <point x="440.48913043478257" y="0.0" type="line"/>
      <point x="449.75" y="88.19565217391305" type="line"/>
      <point x="280.53260869565213" y="113.45652173913044" type="line"/>
      <point x="680.4130434782609" y="632.4565217391304" type="line"/>
      <point x="817.7608695652175" y="771.0978260869565" type="line"/>
      <point x="1352.836956521739" y="1377.5978260869565" type="line"/>
      <point x="1507.5760869565217" y="1397.804347826087" type="line"/>
      <point x="1516.8369565217392" y="1486.0" type="line"/>
      <point x="994.8152173913043" y="1486.0" type="line"/>
      <point x="985.5543478260869" y="1397.804347826087" type="line"/>
      <point x="1164.2065217391303" y="1376.2282608695652" type="line"/>
      <point x="759.6739130434784" y="868.1195652173913" type="line"/>
      <point x="622.9565217391304" y="744.0" type="line"/>
      <point x="86.27173913043478" y="112.08695652173914" type="line"/>
      <point x="-58.369565217391305" y="88.19565217391305" type="line"/>
    </contour>
    <contour>
      <point x="743.7717391304348" y="0.0" type="line"/>
      <point x="1344.0978260869565" y="0.0" type="line"/>
      <point x="1349.9347826086955" y="88.19565217391305" type="line"/>
      <point x="1183.7173913043478" y="113.45652173913044" type="line"/>
      <point x="824.5" y="765.6195652173913" type="line"/>
      <point x="760.9347826086957" y="871.2717391304348" type="line"/>
      <point x="513.2717391304348" y="1377.9130434782608" type="line"/>
      <point x="697.5434782608696" y="1397.804347826087" type="line"/>
      <point x="706.804347826087" y="1486.0" type="line"/>
      <point x="128.6304347826087" y="1486.0" type="line"/>
      <point x="119.36956521739131" y="1397.804347826087" type="line"/>
      <point x="272.27173913043475" y="1374.858695652174" type="line"/>
      <point x="612.4347826086956" y="749.4782608695652" type="line"/>
      <point x="674.6847826086957" y="629.3043478260869" type="line"/>
      <point x="928.195652173913" y="111.77173913043478" type="line"/>
      <point x="751.6630434782609" y="88.19565217391305" type="line"/>
    </contour>
  </outline>
</glyph>
<glyph name="grave" format="2">
  <advance width="781.9239130434783"/>
  <unicode hex="0060"/>
  <anchor x="600.2826086956521" y="1108.6304347826087" name="_top"/>
  <anchor x="678.2282608695652" y="1670.8695652173913" name="top"/>
  <outline>
    <contour>
      <point x="658.5760869565217" y="1259.891304347826" type="curve"/>
      <point x="722.5" y="1318.7173913043478" type="line"/>
      <point x="448.1630434782609" y="1727.2173913043478" type="line"/>
      <point x="307.6304347826087" y="1601.0434782608695" type="line"/>
      <point x="360.7282608695652" y="1505.3695652173913"/>
      <point x="575.8369565217391" y="1308.9565217391305"/>
    </contour>
  </outline>
</glyph>
<glyph name="a" format="2">
  <advance width="1191.0"/>
  <unicode hex="0061"/>
  <anchor x="484.77173913043475" y="0.0" name="bottom"/>
  <anchor x="1098.7065217391305" y="1622.0" name="caron"/>
  <anchor x="940.1195652173914" y="0.0" name="ogonek"/>
  <anchor x="726.3369565217391" y="1108.0" name="top"/>
  <outline>
    <contour>
      <point x="966.554347826087" y="176.8586956521739" type="curve" smooth="yes"/>
      <point x="1110.8804347826087" y="1134.6304347826087" type="line"/>
      <point x="982.5869565217391" y="1099.4782608695652" type="line"/>
      <point x="923.9565217391304" y="1118.108695652174"/>
      <point x="831.5760869565217" y="1136.0"/>
      <point x="740.1847826086956" y="1136.0" type="curve" smooth="yes"/>
      <point x="318.72826086956525" y="1136.0"/>
      <point x="48.73913043478261" y="762.0760869565217"/>
      <point x="48.73913043478261" y="390.7826086956522" type="curve" smooth="yes"/>
      <point x="48.73913043478261" y="158.56521739130437"/>
      <point x="176.9021739130435" y="-20.0"/>
      <point x="418.7173913043478" y="-20.0" type="curve" smooth="yes"/>
      <point x="548.6086956521739" y="-20.0"/>
      <point x="677.0869565217391" y="56.16304347826087"/>
      <point x="769.108695652174" y="169.72826086956522" type="curve"/>
      <point x="762.2065217391305" y="107.27173913043478" type="line"/>
      <point x="760.6195652173914" y="17.260869565217394"/>
      <point x="815.9782608695652" y="-20.0"/>
      <point x="897.9130434782609" y="-20.0" type="curve" smooth="yes"/>
      <point x="1018.5217391304348" y="-20.0"/>
      <point x="1109.3478260869565" y="77.78260869565219"/>
      <point x="1126.5" y="105.25000000000001" type="curve"/>
      <point x="1097.5" y="157.1304347826087" type="line"/>
      <point x="1058.032608695652" y="121.44565217391305"/>
      <point x="1032.4021739130433" y="106.28260869565217"/>
      <point x="1007.6086956521739" y="106.28260869565217" type="curve" smooth="yes"/>
      <point x="981.0326086956521" y="106.28260869565217"/>
      <point x="958.1847826086956" y="118.75"/>
    </contour>
    <contour>
      <point x="876.1847826086956" y="994.0" type="curve"/>
      <point x="769.3478260869566" y="285.85869565217394" type="line"/>
      <point x="713.5434782608695" y="213.5108695652174"/>
      <point x="607.2391304347826" y="112.3913043478261"/>
      <point x="477.29347826086956" y="112.3913043478261" type="curve" smooth="yes"/>
      <point x="360.48913043478257" y="112.3913043478261"/>
      <point x="275.9021739130435" y="208.08695652173913"/>
      <point x="275.9021739130435" y="403.7391304347826" type="curve" smooth="yes"/>
      <point x="275.9021739130435" y="727.608695652174"/>
      <point x="456.4673913043478" y="1027.021739130435"/>
      <point x="733.3369565217391" y="1027.021739130435" type="curve" smooth="yes"/>
      <point x="781.5652173913044" y="1027.021739130435"/>
      <point x="839.1739130434783" y="1016.1195652173913"/>
    </contour>
  </outline>
</glyph>
<glyph name="b" format="2">
  <advance width="1195.1739130434783"/>
  <unicode hex="0062"/>
  <anchor x="443.65217391304344" y="0.0" name="bottom"/>
  <anchor x="810.1630434782609" y="1110.0" name="top"/>
  <outline>
    <contour>
      <point x="419.8152173913044" y="972.3369565217391" type="curve"/>
      <point x="514.2934782608695" y="1608.7391304347825" type="line"/>
      <point x="465.25" y="1634.0" type="line"/>
      <point x="175.8695652173913" y="1597.4782608695652" type="line"/>
      <point x="157.55434782608694" y="1526.695652173913" type="line"/>
      <point x="285.70652173913044" y="1490.858695652174" type="line"/>
      <point x="61.28260869565218" y="-9.728260869565217" type="line"/>
      <point x="177.65217391304347" y="28.16304347826087" type="line"/>
      <point x="233.8586956521739" y="4.739130434782609"/>
      <point x="320.52173913043475" y="-20.315217391304348"/>
      <point x="449.4891304347826" y="-20.315217391304348" type="curve" smooth="yes"/>
      <point x="899.7173913043478" y="-20.315217391304348"/>
      <point x="1139.641304347826" y="387.46739130434787"/>
      <point x="1139.641304347826" y="723.108695652174" type="curve" smooth="yes"/>
      <point x="1139.641304347826" y="964.4782608695652"/>
      <point x="1021.3695652173913" y="1135.6847826086957"/>
      <point x="769.695652173913" y="1135.6847826086957" type="curve" smooth="yes"/>
      <point x="629.3478260869565" y="1135.6847826086957"/>
      <point x="504.3369565217391" y="1060.8695652173913"/>
    </contour>
    <contour>
      <point x="290.8695652173913" y="125.94565217391305" type="curve"/>
      <point x="397.44565217391306" y="838.804347826087" type="line"/>
      <point x="483.3695652173913" y="943.9565217391305"/>
      <point x="595.7173913043478" y="1003.2934782608695"/>
      <point x="704.445652173913" y="1003.2934782608695" type="curve" smooth="yes"/>
      <point x="851.7282608695652" y="1003.2934782608695"/>
      <point x="913.8478260869565" y="893.75"/>
      <point x="913.8478260869565" y="717.0434782608695" type="curve" smooth="yes"/>
      <point x="913.8478260869565" y="418.695652173913"/>
      <point x="757.3043478260869" y="88.66304347826087"/>
      <point x="450.6521739130435" y="88.66304347826087" type="curve" smooth="yes"/>
      <point x="387.90217391304344" y="88.66304347826087"/>
      <point x="335.67391304347825" y="98.1413043478261"/>
    </contour>
  </outline>
</glyph>
<glyph name="c" format="2">
  <advance width="989.7282608695652"/>
  <unicode hex="0063"/>
  <anchor x="485.0" y="0.0" name="bottom"/>
  <anchor x="648.695652173913" y="1110.0" name="top"/>
  <outline>
    <contour>
      <point x="868.25" y="892.4021739130435" type="curve" smooth="yes"/>
      <point x="906.3804347826087" y="882.1304347826086" type="line"/>
      <point x="967.8260869565217" y="1088.7826086956522" type="line"/>
      <point x="906.1521739130435" y="1115.5760869565217"/>
      <point x="817.9891304347826" y="1136.0"/>
      <point x="721.0652173913043" y="1136.0" type="curve" smooth="yes"/>
      <point x="280.6847826086957" y="1136.0"/>
      <point x="53.16304347826087" y="764.1956521739131"/>
      <point x="53.16304347826087" y="433.52173913043475" type="curve" smooth="yes"/>
      <point x="53.16304347826087" y="144.16304347826087"/>
      <point x="214.83695652173913" y="-22.206521739130434"/>
      <point x="481.59782608695656" y="-22.206521739130434" type="curve" smooth="yes"/>
      <point x="685.5434782608696" y="-22.206521739130434"/>
      <point x="836.9021739130435" y="76.65217391304348"/>
      <point x="902.195652173913" y="159.18478260869566" type="curve"/>
      <point x="860.6847826086957" y="235.95652173913044" type="line"/>
      <point x="768.6630434782609" y="163.75"/>
      <point x="675.7826086956522" y="111.59782608695653"/>
      <point x="537.8152173913043" y="111.59782608695653" type="curve" smooth="yes"/>
      <point x="387.57608695652175" y="111.59782608695653"/>
      <point x="277.4782608695652" y="210.3695652173913"/>
      <point x="277.4782608695652" y="449.57608695652175" type="curve" smooth="yes"/>
      <point x="277.4782608695652" y="775.5434782608695"/>
      <point x="442.9130434782609" y="1008.5434782608695"/>
      <point x="675.0326086956521" y="1008.5434782608695" type="curve" smooth="yes"/>
      <point x="734.6739130434783" y="1008.5434782608695"/>
      <point x="792.8695652173914" y="982.5217391304348"/>
    </contour>
  </outline>
</glyph>
<glyph name="d" format="2">
  <advance width="1210.2717391304348"/>
  <unicode hex="0064"/>
  <guideline x="1291.4565217391305" y="857.4565217391305" angle="0.0"/>
  <anchor x="494.79347826086956" y="0.0" name="bottom"/>
  <anchor x="1280.6304347826087" y="1622.0" name="caron"/>
  <anchor x="410.4130434782609" y="1110.0" name="top"/>
  <outline>
    <contour>
      <point x="986.9347826086956" y="174.70652173913044" type="curve"/>
      <point x="1198.0434782608695" y="1608.7391304347825" type="line"/>
      <point x="1147.6304347826085" y="1634.0" type="line"/>
      <point x="846.2065217391305" y="1597.4782608695652" type="line"/>
      <point x="828.5760869565217" y="1526.695652173913" type="line"/>
      <point x="969.4565217391305" y="1490.858695652174" type="line"/>
      <point x="915.7173913043479" y="1113.0434782608695" type="line"/>
      <point x="859.8586956521739" y="1130.3152173913045"/>
      <point x="814.8478260869565" y="1136.0"/>
      <point x="746.6630434782609" y="1136.0" type="curve" smooth="yes"/>
      <point x="315.6195652173913" y="1136.0"/>
      <point x="49.05434782608695" y="766.1304347826086"/>
      <point x="49.05434782608695" y="392.7826086956522" type="curve" smooth="yes"/>
      <point x="49.05434782608695" y="158.19565217391303"/>
      <point x="184.75" y="-20.0"/>
      <point x="417.0978260869565" y="-20.0" type="curve" smooth="yes"/>
      <point x="579.4891304347826" y="-20.0"/>
      <point x="711.0760869565217" y="66.92391304347825"/>
      <point x="788.1739130434783" y="154.7608695652174" type="curve"/>
      <point x="784.3260869565217" y="110.80434782608695" type="line" smooth="yes"/>
      <point x="779.5217391304349" y="24.10869565217391"/>
      <point x="829.4673913043478" y="-20.0"/>
      <point x="920.9239130434784" y="-20.0" type="curve" smooth="yes"/>
      <point x="1016.6847826086956" y="-20.0"/>
      <point x="1103.6195652173913" y="43.25000000000001"/>
      <point x="1150.6195652173913" y="106.6195652173913" type="curve"/>
      <point x="1121.6195652173913" y="158.5" type="line"/>
      <point x="1078.4673913043478" y="121.81521739130434"/>
      <point x="1054.0978260869563" y="106.28260869565217"/>
      <point x="1028.9891304347825" y="106.28260869565217" type="curve" smooth="yes"/>
      <point x="997.7282608695651" y="106.28260869565217"/>
      <point x="979.9347826086956" y="126.70652173913044"/>
    </contour>
    <contour>
      <point x="896.0869565217391" y="986.0" type="curve"/>
      <point x="788.9347826086957" y="267.35869565217394" type="line"/>
      <point x="735.1847826086956" y="200.43478260869563"/>
      <point x="623.6630434782609" y="111.70652173913042"/>
      <point x="483.03260869565213" y="111.70652173913042" type="curve" smooth="yes"/>
      <point x="370.39130434782606" y="111.70652173913042"/>
      <point x="276.2173913043478" y="206.7173913043478"/>
      <point x="276.2173913043478" y="409.2173913043478" type="curve" smooth="yes"/>
      <point x="276.2173913043478" y="729.6630434782609"/>
      <point x="454.04347826086956" y="1027.0217391304348"/>
      <point x="737.7608695652174" y="1027.0217391304348" type="curve" smooth="yes"/>
      <point x="806.5326086956521" y="1027.0217391304348"/>
      <point x="850.391304347826" y="1016.1739130434784"/>
    </contour>
  </outline>
</glyph>
<glyph name="g" format="2">
  <advance width="1194.4782608695652"/>
  <unicode hex="0067"/>
  <anchor x="511.9130434782609" y="0.0" name="bottom"/>
  <anchor x="769.6521739130435" y="580.0" name="tbar"/>
  <anchor x="717.1521739130434" y="1109.2608695652175" name="top"/>
  <outline>
    <contour>
      <point x="949.9891304347826" y="-52.0" type="curve" smooth="yes"/>
      <point x="1128.0978260869567" y="1136.0" type="line"/>
      <point x="999.2826086956522" y="1092.108695652174" type="line"/>
      <point x="941.8152173913044" y="1114.7391304347827"/>
      <point x="847.5760869565217" y="1136.0"/>
      <point x="743.1521739130435" y="1136.0" type="curve" smooth="yes"/>
      <point x="284.30434782608694" y="1136.0"/>
      <point x="48.73913043478261" y="728.2282608695652"/>
      <point x="48.73913043478261" y="396.10869565217394" type="curve" smooth="yes"/>
      <point x="48.73913043478261" y="168.0"/>
      <point x="169.0" y="-20.0"/>
      <point x="423.8369565217392" y="-20.0" type="curve" smooth="yes"/>
      <point x="563.8478260869565" y="-20.0"/>
      <point x="687.2391304347826" y="49.5"/>
      <point x="767.8260869565217" y="136.93478260869566" type="curve"/>
      <point x="732.9239130434783" y="-100.57608695652175" type="line" smooth="yes"/>
      <point x="702.1847826086957" y="-313.6847826086957"/>
      <point x="620.9239130434783" y="-364.3804347826087"/>
      <point x="467.9347826086957" y="-364.3804347826087" type="curve" smooth="yes"/>
      <point x="349.04347826086956" y="-364.3804347826087"/>
      <point x="227.82608695652175" y="-328.17391304347825"/>
      <point x="146.86956521739128" y="-280.8369565217391" type="curve"/>
      <point x="101.03260869565217" y="-446.7391304347826" type="line"/>
      <point x="172.84782608695653" y="-475.72826086956525"/>
      <point x="279.5108695652174" y="-499.8369565217391"/>
      <point x="410.22826086956525" y="-499.8369565217391" type="curve" smooth="yes"/>
      <point x="644.5434782608696" y="-499.8369565217391"/>
      <point x="897.9891304347826" y="-399.04347826086956"/>
    </contour>
    <contour>
      <point x="895.0869565217391" y="986.0" type="curve"/>
      <point x="789.5108695652174" y="272.4021739130435" type="line"/>
      <point x="720.3369565217391" y="183.32608695652175"/>
      <point x="603.8695652173913" y="111.70652173913042"/>
      <point x="492.67391304347825" y="111.70652173913042" type="curve" smooth="yes"/>
      <point x="340.76086956521743" y="111.70652173913042"/>
      <point x="274.2173913043478" y="225.72826086956522"/>
      <point x="274.2173913043478" y="419.75" type="curve" smooth="yes"/>
      <point x="274.2173913043478" y="672.9565217391305"/>
      <point x="415.9782608695652" y="1027.0217391304348"/>
      <point x="736.8260869565217" y="1027.0217391304348" type="curve" smooth="yes"/>
      <point x="803.8478260869566" y="1027.0217391304348"/>
      <point x="857.6521739130435" y="1013.8586956521739"/>
    </contour>
  </outline>
</glyph>
<glyph name="h" format="2">
  <advance width="1249.1413043478262"/>
  <unicode hex="0068"/>
  <anchor x="572.7717391304348" y="0.0" name="bottom"/>
  <anchor x="1062.0760869565217" y="0.0" name="bottomright"/>
  <anchor x="217.46739130434784" y="1814.0" name="cap"/>
  <anchor x="351.5528804347826" y="1292.0" name="tbar"/>
  <anchor x="394.85869565217394" y="1543.0326086956522" name="top"/>
  <outline>
    <contour>
      <point x="404.8695652173913" y="872.3478260869565" type="curve"/>
      <point x="512.9239130434783" y="1608.7391304347825" type="line"/>
      <point x="463.8804347826087" y="1634.0" type="line"/>
      <point x="174.5" y="1597.4782608695652" type="line"/>
      <point x="156.18478260869566" y="1526.695652173913" type="line"/>
      <point x="284.3369565217391" y="1490.858695652174" type="line"/>
      <point x="64.28260869565217" y="0.0" type="line"/>
      <point x="275.29347826086956" y="0.0" type="line"/>
      <point x="382.3478260869565" y="720.0652173913044" type="line"/>
      <point x="474.42391304347825" y="863.7608695652174"/>
      <point x="639.7717391304348" y="987.8260869565217"/>
      <point x="770.445652173913" y="987.8260869565217" type="curve" smooth="yes"/>
      <point x="861.6847826086957" y="987.8260869565217"/>
      <point x="910.0108695652174" y="958.2826086956522"/>
      <point x="910.0108695652174" y="823.0760869565217" type="curve" smooth="yes"/>
      <point x="910.0108695652174" y="719.3804347826087"/>
      <point x="888.0108695652174" y="598.2391304347826"/>
      <point x="870.2173913043478" y="505.32608695652175" type="curve" smooth="yes"/>
      <point x="840.7826086956521" y="352.15217391304344"/>
      <point x="803.6847826086956" y="169.55434782608697"/>
      <point x="803.6847826086956" y="104.28260869565217" type="curve" smooth="yes"/>
      <point x="803.6847826086956" y="29.597826086956523"/>
      <point x="841.3260869565217" y="-20.0"/>
      <point x="940.945652173913" y="-20.0" type="curve" smooth="yes"/>
      <point x="1074.3804347826087" y="-20.0"/>
      <point x="1166.8478260869567" y="77.30434782608695"/>
      <point x="1183.3695652173913" y="102.51086956521739" type="curve"/>
      <point x="1157.4239130434783" y="155.07608695652175" type="line"/>
      <point x="1113.532608695652" y="119.70652173913044"/>
      <point x="1088.108695652174" y="106.28260869565217"/>
      <point x="1062.6847826086957" y="106.28260869565217" type="curve" smooth="yes"/>
      <point x="1045.054347826087" y="106.28260869565217"/>
      <point x="1030.532608695652" y="118.76086956521739"/>
      <point x="1030.532608695652" y="157.85869565217394" type="curve" smooth="yes"/>
      <point x="1030.532608695652" y="225.75"/>
      <point x="1065.75" y="409.75"/>
      <point x="1081.3804347826087" y="488.5217391304348" type="curve" smooth="yes"/>
      <point x="1103.1739130434785" y="602.6847826086956"/>
      <point x="1134.1195652173913" y="770.0434782608696"/>
      <point x="1134.1195652173913" y="857.8478260869565" type="curve" smooth="yes"/>
      <point x="1134.1195652173913" y="1063.4239130434783"/>
      <point x="1025.5434782608695" y="1136.0"/>
      <point x="875.0760869565217" y="1136.0" type="curve" smooth="yes"/>
      <point x="688.3152173913044" y="1136.0"/>
      <point x="508.8804347826087" y="1017.25"/>
    </contour>
  </outline>
</glyph>
<glyph name="l" format="2">
  <advance width="561.6521739130435"/>
  <unicode hex="006C"/>
  <anchor x="240.84782608695653" y="0.0" name="bottom"/>
  <anchor x="627.0434782608695" y="1618.9456521739132" name="caron"/>
  <anchor x="408.5108695652174" y="1562.8913043478262" name="top"/>
  <outline>
    <contour>
      <point x="315.25" y="168.95652173913044" type="curve" smooth="yes"/>
      <point x="528.4130434782609" y="1608.7391304347825" type="line"/>
      <point x="480.05434782608694" y="1634.0" type="line"/>
      <point x="189.9891304347826" y="1597.4782608695652" type="line"/>
      <point x="171.67391304347825" y="1526.695652173913" type="line"/>
      <point x="299.82608695652175" y="1490.858695652174" type="line"/>
      <point x="106.55434782608695" y="184.84782608695653" type="line" smooth="yes"/>
      <point x="102.92391304347825" y="160.80434782608697"/>
      <point x="96.03260869565217" y="111.93478260869566"/>
      <point x="96.03260869565217" y="97.6195652173913" type="curve" smooth="yes"/>
      <point x="96.03260869565217" y="19.73913043478261"/>
      <point x="146.72826086956522" y="-20.0"/>
      <point x="230.82608695652172" y="-20.0" type="curve" smooth="yes"/>
      <point x="369.5326086956522" y="-20.0"/>
      <point x="457.8369565217392" y="79.3586956521739"/>
      <point x="475.7282608695652" y="107.98913043478261" type="curve"/>
      <point x="449.0978260869565" y="159.18478260869566" type="line"/>
      <point x="399.8369565217391" y="111.96739130434783"/>
      <point x="372.6195652173913" y="106.28260869565217"/>
      <point x="347.82608695652175" y="106.28260869565217" type="curve" smooth="yes"/>
      <point x="324.30434782608694" y="106.28260869565217"/>
      <point x="307.6195652173913" y="117.91304347826086"/>
    </contour>
  </outline>
</glyph>
<glyph name="n" format="2">
  <advance width="1257.1956521739132"/>
  <unicode hex="006E"/>
  <anchor x="561.8695652173913" y="0.0" name="bottom"/>
  <anchor x="1079.1847826086955" y="0.0" name="bottomright"/>
  <anchor x="666.9130434782609" y="1110.0" name="top"/>
  <outline>
    <contour>
      <point x="409.2391304347826" y="872.6086956521739" type="curve"/>
      <point x="435.7717391304348" y="1114.7391304347825" type="line"/>
      <point x="391.98913043478257" y="1136.0" type="line"/>
      <point x="122.81521739130434" y="1090.1630434782608" type="line"/>
      <point x="107.5" y="1014.75" type="line"/>
      <point x="210.70652173913044" y="964.9673913043479" type="line"/>
      <point x="77.96739130434783" y="0.0" type="line"/>
      <point x="289.3478260869565" y="0.0" type="line"/>
      <point x="390.4021739130435" y="720.0652173913044" type="line"/>
      <point x="481.10869565217394" y="863.7608695652174"/>
      <point x="643.7173913043478" y="987.8260869565217"/>
      <point x="774.3913043478261" y="987.8260869565217" type="curve" smooth="yes"/>
      <point x="862.2065217391305" y="987.8260869565217"/>
      <point x="918.0108695652174" y="958.2826086956522"/>
      <point x="918.0108695652174" y="823.0760869565217" type="curve" smooth="yes"/>
      <point x="918.0108695652174" y="719.3804347826087"/>
      <point x="896.695652173913" y="598.2391304347826"/>
      <point x="878.2173913043478" y="505.3260869565217" type="curve" smooth="yes"/>
      <point x="848.0978260869565" y="352.1521739130435"/>
      <point x="811.6847826086956" y="169.55434782608697"/>
      <point x="811.6847826086956" y="104.28260869565217" type="curve" smooth="yes"/>
      <point x="811.6847826086956" y="29.597826086956523"/>
      <point x="849.3260869565216" y="-20.0"/>
      <point x="950.7391304347826" y="-20.0" type="curve" smooth="yes"/>
      <point x="1081.1739130434783" y="-20.0"/>
      <point x="1174.9021739130435" y="77.30434782608695"/>
      <point x="1191.4239130434783" y="102.51086956521739" type="curve"/>
      <point x="1165.4782608695652" y="155.07608695652175" type="line"/>
      <point x="1122.271739130435" y="119.70652173913044"/>
      <point x="1093.4239130434783" y="106.28260869565217"/>
      <point x="1067.6847826086955" y="106.28260869565217" type="curve" smooth="yes"/>
      <point x="1050.3695652173913" y="106.28260869565217"/>
      <point x="1039.2717391304348" y="122.18478260869566"/>
      <point x="1039.2717391304348" y="161.2826086956522" type="curve" smooth="yes"/>
      <point x="1039.2717391304348" y="226.94565217391303"/>
      <point x="1073.8043478260868" y="409.75"/>
      <point x="1088.7499999999998" y="488.5217391304348" type="curve" smooth="yes"/>
      <point x="1110.5434782608697" y="602.6847826086956"/>
      <point x="1140.804347826087" y="761.141304347826"/>
      <point x="1140.804347826087" y="848.9456521739131" type="curve" smooth="yes"/>
      <point x="1140.804347826087" y="1054.5217391304348"/>
      <point x="1024.695652173913" y="1136.0"/>
      <point x="876.9673913043478" y="1136.0" type="curve" smooth="yes"/>
      <point x="691.6304347826086" y="1136.0"/>
      <point x="515.304347826087" y="1014.7717391304348"/>
    </contour>
  </outline>
</glyph>
<glyph name="p" format="2">
  <advance width="1207.2282608695652"/>
  <unicode hex="0070"/>
  <guideline x="374.57608695652175" y="599.8152173913043" angle="82.452"/>
  <anchor x="715.7826086956521" y="92.0" name="tick"/>
  <anchor x="679.4347826086957" y="1110.0" name="top"/>
  <outline>
    <contour>
      <point x="9.021739130434781" y="-508.0" type="line"/>
      <point x="219.08695652173913" y="-508.0" type="line"/>
      <point x="288.4021739130435" y="-1.7826086956521736" type="line"/>
      <point x="330.9891304347826" y="-12.576086956521738"/>
      <point x="391.04347826086956" y="-20.315217391304348"/>
      <point x="460.17391304347825" y="-20.315217391304348" type="curve" smooth="yes"/>
      <point x="902.5760869565217" y="-20.315217391304348"/>
      <point x="1151.695652173913" y="377.69565217391306"/>
      <point x="1151.695652173913" y="725.3152173913044" type="curve" smooth="yes"/>
      <point x="1151.695652173913" y="969.2065217391304"/>
      <point x="1026.4347826086957" y="1135.6847826086957"/>
      <point x="784.7934782608696" y="1135.6847826086957" type="curve" smooth="yes"/>
      <point x="633.4130434782609" y="1135.6847826086957"/>
      <point x="503.6630434782609" y="1052.8260869565217"/>
      <point x="417.6086956521739" y="958.3913043478261" type="curve"/>
      <point x="435.7717391304348" y="1114.7391304347825" type="line"/>
      <point x="391.98913043478257" y="1136.0" type="line"/>
      <point x="122.81521739130433" y="1090.1630434782608" type="line"/>
      <point x="108.18478260869566" y="1014.75" type="line"/>
      <point x="210.70652173913044" y="964.9673913043479" type="line"/>
    </contour>
    <contour>
      <point x="306.3478260869565" y="122.83695652173913" type="curve"/>
      <point x="407.5" y="838.804347826087" type="line"/>
      <point x="493.42391304347825" y="942.3804347826087"/>
      <point x="602.3043478260869" y="1003.2934782608695"/>
      <point x="716.7065217391304" y="1003.2934782608695" type="curve" smooth="yes"/>
      <point x="866.5652173913044" y="1003.2934782608695"/>
      <point x="925.9021739130435" y="886.8152173913044"/>
      <point x="925.9021739130435" y="719.25" type="curve" smooth="yes"/>
      <point x="925.9021739130435" y="422.1630434782609"/>
      <point x="771.5108695652175" y="88.66304347826087"/>
      <point x="461.3369565217391" y="88.66304347826087" type="curve" smooth="yes"/>
      <point x="402.53260869565213" y="88.66304347826087"/>
      <point x="346.30434782608694" y="97.1413043478261"/>
    </contour>
  </outline>
</glyph>
<glyph name="q" format="2">
  <advance width="1194.1086956521738"/>
  <unicode hex="0071"/>
  <anchor x="469.1413043478261" y="1580.0" name="cr"/>
  <anchor x="680.2391304347825" y="1226.0" name="top"/>
  <outline>
    <contour>
      <point x="909.9782608695652" y="-327.15217391304344" type="curve" smooth="yes"/>
      <point x="1127.7826086956522" y="1136.0" type="line"/>
      <point x="998.2826086956522" y="1092.108695652174" type="line"/>
      <point x="938.6086956521739" y="1115.054347826087"/>
      <point x="847.8369565217391" y="1136.0"/>
      <point x="740.2608695652174" y="1136.0" type="curve" smooth="yes"/>
      <point x="291.554347826087" y="1136.0"/>
      <point x="48.423913043478265" y="742.2173913043479"/>
      <point x="48.423913043478265" y="394.8478260869565" type="curve" smooth="yes"/>
      <point x="48.423913043478265" y="168.94565217391303"/>
      <point x="168.05434782608694" y="-20.0"/>
      <point x="422.8369565217392" y="-20.0" type="curve" smooth="yes"/>
      <point x="556.858695652174" y="-20.0"/>
      <point x="684.9782608695651" y="45.97826086956522"/>
      <point x="768.0869565217391" y="136.25" type="curve"/>
      <point x="694.2826086956521" y="-368.30434782608694" type="line" smooth="yes"/>
      <point x="680.9673913043479" y="-458.29347826086956"/>
      <point x="723.2282608695652" y="-511.4782608695652"/>
      <point x="823.1847826086956" y="-511.4782608695652" type="curve" smooth="yes"/>
      <point x="972.4239130434783" y="-511.4782608695652"/>
      <point x="1061.0978260869565" y="-402.05434782608694"/>
      <point x="1077.9891304347827" y="-377.8478260869565" type="curve"/>
      <point x="1051.3586956521738" y="-321.7608695652174" type="line"/>
      <point x="1010.0434782608695" y="-361.554347826087"/>
      <point x="972.7173913043479" y="-383.8260869565217"/>
      <point x="945.2391304347826" y="-383.8260869565217" type="curve" smooth="yes"/>
      <point x="919.4021739130435" y="-383.8260869565217"/>
      <point x="904.9782608695651" y="-362.5217391304348"/>
    </contour>
    <contour>
      <point x="894.7717391304348" y="986.0" type="curve"/>
      <point x="790.4565217391305" y="273.0869565217391" type="line"/>
      <point x="725.3804347826086" y="186.84782608695653"/>
      <point x="605.7717391304349" y="111.39130434782608"/>
      <point x="486.6195652173913" y="111.39130434782608" type="curve" smooth="yes"/>
      <point x="347.4891304347826" y="111.39130434782608"/>
      <point x="273.9021739130435" y="224.06521739130434"/>
      <point x="273.9021739130435" y="407.1630434782609" type="curve" smooth="yes"/>
      <point x="273.9021739130435" y="679.0652173913043"/>
      <point x="416.60869565217394" y="1027.0217391304348"/>
      <point x="735.8260869565217" y="1027.0217391304348" type="curve" smooth="yes"/>
      <point x="802.8478260869565" y="1027.0217391304348"/>
      <point x="855.7608695652174" y="1014.1739130434783"/>
    </contour>
  </outline>
</glyph>
<glyph name="r" format="2">
  <advance width="846.858695652174"/>
  <unicode hex="0072"/>
  <anchor x="178.45652173913044" y="0.0" name="bottom"/>
  <anchor x="473.3586956521739" y="1110.0" name="top"/>
  <outline>
    <contour>
      <point x="389.9347826086956" y="851.1630434782609" type="curve"/>
      <point x="398.67391304347825" y="949.2934782608696" type="line"/>
      <point x="414.57608695652175" y="1114.7391304347827" type="line"/>
      <point x="371.1086956521739" y="1136.0" type="line"/>
      <point x="122.81521739130434" y="1090.1630434782608" type="line"/>
      <point x="107.5" y="1014.75" type="line"/>
      <point x="210.70652173913044" y="964.9673913043479" type="line"/>
      <point x="76.28260869565219" y="0.0" type="line"/>
      <point x="287.3478260869565" y="0.0" type="line"/>
      <point x="392.60869565217394" y="736.7717391304348" type="line"/>
      <point x="455.9347826086957" y="859.0543478260869"/>
      <point x="573.1195652173913" y="917.4021739130435"/>
      <point x="690.891304347826" y="917.4021739130435" type="curve" smooth="yes"/>
      <point x="735.8804347826087" y="917.4021739130435"/>
      <point x="779.9239130434783" y="907.8260869565217"/>
      <point x="813.9239130434783" y="887.6739130434783" type="curve"/>
      <point x="860.3260869565217" y="1111.4239130434783" type="line"/>
      <point x="837.0652173913044" y="1124.3152173913045"/>
      <point x="808.3804347826087" y="1134.6304347826087"/>
      <point x="753.0652173913044" y="1134.6304347826087" type="curve" smooth="yes"/>
      <point x="588.8804347826086" y="1134.6304347826087"/>
      <point x="449.70652173913044" y="980.695652173913"/>
    </contour>
  </outline>
</glyph>
<glyph name="s" format="2">
  <advance width="898.8260869565217"/>
  <unicode hex="0073"/>
  <anchor x="359.42391304347825" y="0.0" name="bottom"/>
  <anchor x="547.5217391304349" y="1110.0" name="top"/>
  <outline>
    <contour>
      <point x="817.2391304347826" y="938.7173913043479" type="line"/>
      <point x="852.3369565217391" y="1090.0" type="line"/>
      <point x="791.9239130434783" y="1111.6304347826087"/>
      <point x="702.195652173913" y="1136.3152173913043"/>
      <point x="548.4565217391304" y="1136.3152173913043" type="curve" smooth="yes"/>
      <point x="311.96739130434787" y="1136.3152173913043"/>
      <point x="124.66304347826086" y="1015.75"/>
      <point x="124.66304347826086" y="806.9782608695652" type="curve" smooth="yes"/>
      <point x="124.66304347826086" y="645.4021739130435"/>
      <point x="247.65217391304347" y="565.1956521739131"/>
      <point x="385.45652173913044" y="477.13043478260875" type="curve" smooth="yes"/>
      <point x="493.8369565217391" y="407.80434782608694"/>
      <point x="587.6304347826087" y="344.47826086956525"/>
      <point x="587.6304347826087" y="257.57608695652175" type="curve" smooth="yes"/>
      <point x="587.6304347826087" y="124.66304347826086"/>
      <point x="446.0108695652174" y="84.45652173913044"/>
      <point x="356.90217391304344" y="84.45652173913044" type="curve" smooth="yes"/>
      <point x="221.64130434782606" y="84.45652173913044"/>
      <point x="100.11956521739131" y="160.8695652173913"/>
      <point x="48.326086956521735" y="206.8695652173913" type="curve"/>
      <point x="42.95652173913044" y="206.8695652173913" type="line"/>
      <point x="7.33695652173913" y="50.95652173913043" type="line"/>
      <point x="75.58695652173913" y="8.902173913043478"/>
      <point x="201.38043478260872" y="-22.52173913043478"/>
      <point x="356.70652173913044" y="-22.52173913043478" type="curve" smooth="yes"/>
      <point x="576.445652173913" y="-22.52173913043478"/>
      <point x="793.054347826087" y="91.26086956521739"/>
      <point x="793.054347826087" y="318.70652173913044" type="curve" smooth="yes"/>
      <point x="793.054347826087" y="469.05434782608694"/>
      <point x="672.8152173913044" y="550.0978260869565"/>
      <point x="523.2173913043479" y="647.0108695652174" type="curve" smooth="yes"/>
      <point x="419.89130434782606" y="714.0217391304348"/>
      <point x="324.25" y="777.141304347826"/>
      <point x="324.25" y="871.1630434782609" type="curve" smooth="yes"/>
      <point x="324.25" y="991.5"/>
      <point x="459.3913043478261" y="1028.336956521739"/>
      <point x="542.1304347826087" y="1028.336956521739" type="curve" smooth="yes"/>
      <point x="658.945652173913" y="1028.336956521739"/>
      <point x="766.7934782608696" y="978.695652173913"/>
      <point x="808.608695652174" y="938.7173913043479" type="curve"/>
    </contour>
  </outline>
</glyph>
<glyph name="t" format="2">
  <advance width="770.4891304347826"/>
  <unicode hex="0074"/>
  <guideline x="105.08695652173913" y="1053.217391304348" angle="0.0"/>
  <anchor x="275.9347826086957" y="0.0" name="bottom"/>
  <anchor x="719.8369565217391" y="1309.0" name="car"/>
  <anchor x="660.7282608695652" y="1618.0" name="caron"/>
  <anchor x="293.06943478260877" y="580.0" name="tbar"/>
  <anchor x="455.90217391304344" y="1362.0" name="top"/>
  <outline>
    <contour>
      <point x="362.5978260869565" y="341.3369565217391" type="curve" smooth="yes"/>
      <point x="458.8695652173913" y="978.9239130434783" type="line"/>
      <point x="754.9130434782608" y="978.9239130434783" type="line"/>
      <point x="774.0108695652174" y="1110.0" type="line"/>
      <point x="478.76086956521743" y="1110.0" type="line"/>
      <point x="520.0217391304348" y="1382.0" type="line"/>
      <point x="404.1413043478261" y="1382.0" type="line"/>
      <point x="372.4130434782608" y="1294.9021739130435"/>
      <point x="313.1521739130435" y="1154.0"/>
      <point x="270.2717391304348" y="1107.3695652173913" type="curve"/>
      <point x="105.48913043478261" y="1053.2173913043478" type="line"/>
      <point x="91.28260869565217" y="978.9239130434783" type="line"/>
      <point x="248.80434782608694" y="978.9239130434783" type="line"/>
      <point x="155.6413043478261" y="359.34782608695656" type="line" smooth="yes"/>
      <point x="142.32608695652175" y="272.45652173913044"/>
      <point x="133.69565217391303" y="203.5217391304348"/>
      <point x="133.69565217391303" y="154.14130434782606" type="curve" smooth="yes"/>
      <point x="133.69565217391303" y="27.47826086956522"/>
      <point x="207.7391304347826" y="-20.0"/>
      <point x="337.9347826086957" y="-20.0" type="curve" smooth="yes"/>
      <point x="477.9239130434783" y="-20.0"/>
      <point x="615.5978260869565" y="50.6304347826087"/>
      <point x="690.1630434782609" y="146.7826086956522" type="curve"/>
      <point x="663.8478260869565" y="204.5" type="line"/>
      <point x="595.5760869565217" y="145.4891304347826"/>
      <point x="510.25" y="110.69565217391305"/>
      <point x="431.2826086956522" y="110.69565217391305" type="curve" smooth="yes"/>
      <point x="372.0652173913043" y="110.69565217391305"/>
      <point x="347.9673913043478" y="138.17391304347825"/>
      <point x="347.9673913043478" y="199.02173913043478" type="curve" smooth="yes"/>
      <point x="347.9673913043478" y="234.54347826086956"/>
      <point x="354.5434782608696" y="288.6413043478261"/>
    </contour>
  </outline>
</glyph>
<glyph name="v" format="2">
  <advance width="1087.25"/>
  <unicode hex="0076"/>
  <anchor x="578.7608695652174" y="1110.0" name="top"/>
  <outline>
    <contour>
      <point x="147.82608695652172" y="944.2826086956521" type="curve" smooth="yes"/>
      <point x="243.19565217391303" y="419.65217391304344" type="line"/>
      <point x="324.445652173913" y="-20.0" type="line"/>
      <point x="476.59782608695656" y="-7.369565217391305" type="line"/>
      <point x="669.0217391304349" y="220.3913043478261" type="line" smooth="yes"/>
      <point x="904.3152173913044" y="495.7826086956522"/>
      <point x="1066.7934782608697" y="747.9130434782609"/>
      <point x="1066.7934782608697" y="941.695652173913" type="curve" smooth="yes"/>
      <point x="1066.7934782608697" y="1050.1195652173913"/>
      <point x="1029.7499999999998" y="1134.6304347826087"/>
      <point x="933.0434782608696" y="1134.6304347826087" type="curve" smooth="yes"/>
      <point x="868.7065217391304" y="1134.6304347826087"/>
      <point x="827.4565217391305" y="1094.9673913043478"/>
      <point x="827.4565217391305" y="1023.3586956521739" type="curve" smooth="yes"/>
      <point x="827.4565217391305" y="964.3152173913044"/>
      <point x="860.195652173913" y="922.1521739130435"/>
      <point x="860.195652173913" y="825.4239130434783" type="curve" smooth="yes"/>
      <point x="860.195652173913" y="657.6847826086956"/>
      <point x="770.445652173913" y="504.0869565217391"/>
      <point x="615.6195652173913" y="310.72826086956525" type="curve" smooth="yes"/>
      <point x="427.59782608695656" y="75.28260869565217" type="line"/>
      <point x="501.4130434782609" y="85.90217391304348" type="line"/>
      <point x="446.78260869565213" y="465.6847826086956" type="line"/>
      <point x="373.19565217391306" y="978.2282608695652" type="line" smooth="yes"/>
      <point x="357.98913043478257" y="1083.4673913043478"/>
      <point x="322.3260869565217" y="1134.6304347826087"/>
      <point x="225.44565217391303" y="1134.6304347826087" type="curve" smooth="yes"/>
      <point x="144.7826086956522" y="1134.6304347826087"/>
      <point x="60.065217391304344" y="1085.7391304347825"/>
      <point x="6.130434782608695" y="1026.7934782608695" type="curve"/>
      <point x="32.33695652173913" y="973.5978260869565" type="line"/>
      <point x="54.391304347826086" y="990.0760869565217"/>
      <point x="81.44565217391305" y="1006.2934782608696"/>
      <point x="102.29347826086956" y="1006.2934782608696" type="curve" smooth="yes"/>
      <point x="129.08695652173913" y="1006.2934782608696"/>
      <point x="139.82608695652172" y="987.7065217391304"/>
    </contour>
  </outline>
</glyph>
<glyph name="x" format="2">
  <advance width="1137.4891304347825"/>
  <unicode hex="0078"/>
  <anchor x="977.0108695652175" y="0.0" name="bottomright"/>
  <anchor x="562.6086956521739" y="556.6304347826086" name="center"/>
  <anchor x="659.1847826086956" y="1226.0" name="top"/>
  <outline>
    <contour>
      <point x="847.3586956521739" y="-20.0" type="curve" smooth="yes"/>
      <point x="936.5108695652174" y="-20.0"/>
      <point x="1038.0108695652173" y="33.95652173913044"/>
      <point x="1092.0434782608695" y="112.78260869565217" type="curve"/>
      <point x="1062.6739130434783" y="161.92391304347825" type="line"/>
      <point x="1021.7282608695652" y="123.55434782608695"/>
      <point x="993.304347826087" y="109.96739130434783"/>
      <point x="961.9782608695651" y="109.96739130434783" type="curve" smooth="yes"/>
      <point x="930.6630434782609" y="109.96739130434783"/>
      <point x="918.7173913043479" y="127.85869565217392"/>
      <point x="887.25" y="184.58695652173913" type="curve" smooth="yes"/>
      <point x="628.2608695652175" y="648.4239130434783" type="line"/>
      <point x="602.5326086956522" y="481.9565217391304" type="line"/>
      <point x="1148.086956521739" y="1110.0" type="line"/>
      <point x="919.4782608695652" y="1110.0" type="line"/>
      <point x="552.0869565217391" y="612.4782608695651" type="line"/>
      <point x="633.5217391304349" y="606.5760869565217" type="line"/>
      <point x="478.3804347826087" y="1007.1956521739131" type="line" smooth="yes"/>
      <point x="444.2826086956522" y="1099.3695652173913"/>
      <point x="409.6630434782609" y="1133.2608695652173"/>
      <point x="310.5" y="1133.2608695652173" type="curve" smooth="yes"/>
      <point x="209.8804347826087" y="1133.2608695652173"/>
      <point x="119.58695652173913" y="1073.7391304347825"/>
      <point x="67.80434782608695" y="1011.0543478260869" type="curve"/>
      <point x="99.06521739130434" y="962.2282608695652" type="line"/>
      <point x="121.01086956521739" y="982.6521739130435"/>
      <point x="155.9673913043478" y="1007.6086956521739"/>
      <point x="191.81521739130434" y="1007.6086956521739" type="curve" smooth="yes"/>
      <point x="228.55434782608694" y="1007.6086956521739"/>
      <point x="242.81521739130434" y="981.6630434782609"/>
      <point x="261.5" y="947.2391304347826" type="curve" smooth="yes"/>
      <point x="516.4782608695652" y="486.57608695652175" type="line"/>
      <point x="541.5217391304349" y="648.8804347826086" type="line"/>
      <point x="-22.184782608695652" y="0.0" type="line"/>
      <point x="208.8913043478261" y="0.0" type="line"/>
      <point x="587.7173913043479" y="517.054347826087" type="line"/>
      <point x="510.1630434782609" y="528.3152173913044" type="line"/>
      <point x="679.8804347826087" y="113.03260869565217" type="line" smooth="yes"/>
      <point x="717.1413043478261" y="18.73913043478261"/>
      <point x="755.858695652174" y="-20.0"/>
    </contour>
  </outline>
</glyph>
<glyph name="z" format="2">
  <advance width="1087.391304347826"/>
  <unicode hex="007A"/>
  <anchor x="469.42391304347825" y="0.0" name="bottom"/>
  <anchor x="628.1847826086956" y="1110.0" name="top"/>
  <outline>
    <contour>
      <point x="835.4239130434783" y="944.75" type="curve"/>
      <point x="703.9782608695652" y="817.8695652173914" type="line"/>
      <point x="-11.065217391304348" y="31.836956521739136" type="line"/>
      <point x="42.40217391304348" y="-22.0" type="line"/>
      <point x="70.51086956521739" y="2.0"/>
      <point x="108.13043478260869" y="11.369565217391305"/>
      <point x="141.6086956521739" y="11.369565217391305" type="curve" smooth="yes"/>
      <point x="272.3478260869565" y="11.369565217391305"/>
      <point x="611.4673913043478" y="-19.26086956521739"/>
      <point x="793.3804347826087" y="-19.26086956521739" type="curve" smooth="yes"/>
      <point x="842.0108695652174" y="-19.26086956521739"/>
      <point x="875.9565217391304" y="-9.891304347826088"/>
      <point x="892.641304347826" y="0.7391304347826086" type="curve" smooth="yes"/>
      <point x="960.3152173913043" y="44.30434782608696"/>
      <point x="972.0108695652174" y="234.56521739130437"/>
      <point x="973.3369565217391" y="343.3152173913043" type="curve"/>
      <point x="902.6630434782609" y="343.3152173913043" type="line"/>
      <point x="888.1847826086957" y="231.71739130434784"/>
      <point x="836.0326086956521" y="161.08695652173915"/>
      <point x="729.4565217391305" y="161.08695652173915" type="curve" smooth="yes"/>
      <point x="663.3913043478261" y="161.08695652173915"/>
      <point x="381.8695652173913" y="165.19565217391303"/>
      <point x="256.2826086956522" y="165.8804347826087" type="curve"/>
      <point x="396.1413043478261" y="300.4347826086956" type="line"/>
      <point x="1104.7717391304348" y="1082.163043478261" type="line"/>
      <point x="1057.6739130434785" y="1131.891304347826" type="line"/>
      <point x="1028.25" y="1107.891304347826"/>
      <point x="995.6739130434783" y="1102.0"/>
      <point x="959.0" y="1102.0" type="curve" smooth="yes"/>
      <point x="826.8913043478261" y="1102.0"/>
      <point x="510.5108695652174" y="1130.521739130435"/>
      <point x="358.5760869565217" y="1130.521739130435" type="curve" smooth="yes"/>
      <point x="277.02173913043475" y="1130.521739130435"/>
      <point x="250.23913043478262" y="1120.6304347826087"/>
      <point x="234.8695652173913" y="1109.8913043478262" type="curve" smooth="yes"/>
      <point x="171.67391304347825" y="1067.3695652173915"/>
      <point x="156.97826086956522" y="853.195652173913"/>
      <point x="164.07608695652172" y="766.6195652173914" type="curve"/>
      <point x="235.3804347826087" y="766.6195652173914" type="line"/>
      <point x="241.3804347826087" y="858.5217391304348"/>
      <point x="290.79347826086956" y="948.8043478260869"/>
      <point x="369.82608695652175" y="948.8043478260869" type="curve" smooth="yes"/>
      <point x="453.75" y="948.8043478260869"/>
      <point x="738.9565217391305" y="946.1195652173914"/>
    </contour>
  </outline>
</glyph>
<glyph name="braceleft" format="2">
  <advance width="964.3586956521739"/>
  <unicode hex="007B"/>
  <outline>
    <contour>
      <point x="486.92391304347825" y="-318.30434782608694" type="curve" smooth="yes"/>
      <point x="568.9021739130434" y="-318.30434782608694"/>
      <point x="638.9891304347826" y="-301.1521739130435"/>
      <point x="720.3478260869566" y="-281.1521739130435" type="curve"/>
      <point x="734.2391304347826" y="-186.6521739130435" type="line"/>
      <point x="711.7282608695652" y="-189.70652173913044"/>
      <point x="620.3369565217391" y="-192.7608695652174"/>
      <point x="594.7717391304348" y="-192.7608695652174" type="curve" smooth="yes"/>
      <point x="477.85869565217394" y="-192.7608695652174"/>
      <point x="372.63043478260875" y="-163.2826086956522"/>
      <point x="391.6847826086956" y="-27.380434782608695" type="curve" smooth="yes"/>
      <point x="409.42391304347825" y="96.6304347826087"/>
      <point x="515.6739130434783" y="324.94565217391306"/>
      <point x="535.3586956521739" y="465.47826086956525" type="curve" smooth="yes"/>
      <point x="553.9891304347826" y="597.891304347826"/>
      <point x="426.3586956521739" y="666.8369565217391"/>
      <point x="289.5869565217391" y="686.0978260869565" type="curve"/>
      <point x="432.67391304347825" y="707.0434782608695"/>
      <point x="577.6195652173914" y="766.3043478260869"/>
      <point x="596.2500000000001" y="898.7173913043478" type="curve" smooth="yes"/>
      <point x="615.9347826086956" y="1039.8804347826087"/>
      <point x="569.6847826086957" y="1281.9891304347825"/>
      <point x="587.054347826087" y="1405.6847826086957" type="curve" smooth="yes"/>
      <point x="605.7391304347826" y="1538.2173913043478"/>
      <point x="721.0760869565217" y="1569.695652173913"/>
      <point x="836.25" y="1569.695652173913" type="curve" smooth="yes"/>
      <point x="858.0760869565217" y="1569.695652173913"/>
      <point x="952.5217391304348" y="1568.3260869565217"/>
      <point x="974.0326086956521" y="1565.2717391304348" type="curve"/>
      <point x="986.9239130434783" y="1658.195652173913" type="line"/>
      <point x="911.5652173913044" y="1678.195652173913"/>
      <point x="846.108695652174" y="1693.9782608695652"/>
      <point x="763.7608695652174" y="1693.9782608695652" type="curve" smooth="yes"/>
      <point x="523.5652173913044" y="1693.9782608695652"/>
      <point x="407.0869565217391" y="1603.25"/>
      <point x="383.7717391304348" y="1439.358695652174" type="curve" smooth="yes"/>
      <point x="357.7717391304348" y="1254.304347826087"/>
      <point x="441.32608695652175" y="1059.7717391304348"/>
      <point x="418.69565217391306" y="902.4130434782609" type="curve" smooth="yes"/>
      <point x="405.32608695652175" y="810.195652173913"/>
      <point x="360.9891304347826" y="764.8260869565217"/>
      <point x="126.46739130434783" y="766.195652173913" type="curve"/>
      <point x="105.52173913043478" y="618.0" type="line"/>
      <point x="340.7282608695652" y="619.3695652173913"/>
      <point x="369.75" y="554.4239130434783"/>
      <point x="357.0652173913044" y="461.8913043478261" type="curve" smooth="yes"/>
      <point x="335.1195652173913" y="304.5326086956522"/>
      <point x="204.82608695652172" y="122.10869565217392"/>
      <point x="179.1413043478261" y="-63.99999999999999" type="curve" smooth="yes"/>
      <point x="156.82608695652172" y="-226.20652173913044"/>
      <point x="246.3586956521739" y="-318.30434782608694"/>
    </contour>
  </outline>
</glyph>
<glyph name="bar" format="2">
  <advance width="848.1847826086956"/>
  <unicode hex="007C"/>
  <outline>
    <contour>
      <point x="367.5869565217391" y="1738.0" type="line"/>
      <point x="367.5869565217391" y="-182.0" type="line"/>
      <point x="525.4347826086956" y="-182.0" type="line"/>
      <point x="525.4347826086956" y="1738.0" type="line"/>
    </contour>
  </outline>
</glyph>
<glyph name="cent" format="2">
  <advance width="1143.9021739130435"/>
  <unicode hex="00A2"/>
  <outline>
    <contour>
      <point x="407.27173913043475" y="-236.6304347826087" type="line"/>
      <point x="533.5652173913044" y="-236.6304347826087" type="line"/>
      <point x="582.1956521739131" y="-18.0" type="line"/>
      <point x="774.9130434782609" y="-2.0"/>
      <point x="896.8478260869565" y="101.09782608695652"/>
      <point x="947.7934782608695" y="162.29347826086956" type="curve"/>
      <point x="905.3369565217391" y="239.3804347826087" type="line"/>
      <point x="818.1521739130435" y="171.16304347826087"/>
      <point x="735.6847826086956" y="116.75"/>
      <point x="619.6304347826087" y="116.75" type="curve" smooth="yes"/>
      <point x="461.2826086956522" y="116.75"/>
      <point x="382.94565217391306" y="220.93478260869566"/>
      <point x="382.0" y="457.2173913043478" type="curve" smooth="yes"/>
      <point x="380.42391304347825" y="791.0652173913044"/>
      <point x="531.7173913043479" y="1006.9673913043479"/>
      <point x="724.7826086956522" y="1006.9673913043479" type="curve" smooth="yes"/>
      <point x="817.2173913043479" y="1006.9673913043479"/>
      <point x="882.5108695652175" y="949.8369565217391"/>
      <point x="921.0978260869565" y="871.5434782608695" type="curve"/>
      <point x="993.7826086956521" y="870.1739130434783" type="line"/>
      <point x="1048.1847826086957" y="1077.141304347826" type="line"/>
      <point x="988.0326086956521" y="1102.5108695652175"/>
      <point x="868.445652173913" y="1131.945652173913"/>
      <point x="792.9239130434783" y="1134.6304347826087" type="curve"/>
      <point x="848.554347826087" y="1366.5217391304348" type="line"/>
      <point x="720.891304347826" y="1366.5217391304348" type="line"/>
      <point x="664.3152173913043" y="1124.7391304347825" type="line"/>
      <point x="319.4891304347826" y="1058.1086956521738"/>
      <point x="147.54347826086956" y="713.8260869565217"/>
      <point x="150.3804347826087" y="425.304347826087" type="curve" smooth="yes"/>
      <point x="152.90217391304347" y="182.68478260869566"/>
      <point x="269.5869565217391" y="23.41304347826087"/>
      <point x="458.9021739130435" y="-10.73913043478261" type="curve"/>
    </contour>
  </outline>
</glyph>
<glyph name="section" format="2">
  <advance width="1287.4891304347825"/>
  <unicode hex="00A7"/>
  <outline>
    <contour>
      <point x="1098.7608695652175" y="181.42391304347828" type="curve" smooth="yes"/>
      <point x="1099.3913043478262" y="267.1086956521739"/>
      <point x="1064.7065217391305" y="316.304347826087"/>
      <point x="1008.7065217391304" y="370.4021739130435" type="curve"/>
      <point x="1096.5434782608697" y="456.8913043478261"/>
      <point x="1176.4239130434783" y="596.6413043478261"/>
      <point x="1176.4239130434783" y="718.0869565217391" type="curve" smooth="yes"/>
      <point x="1176.4239130434783" y="1085.6847826086955"/>
      <point x="435.4673913043478" y="1043.9565217391305"/>
      <point x="461.20652173913044" y="1336.4021739130435" type="curve" smooth="yes"/>
      <point x="473.94565217391306" y="1474.1086956521738"/>
      <point x="642.3586956521739" y="1528.8695652173913"/>
      <point x="775.7608695652174" y="1530.9239130434783" type="curve" smooth="yes"/>
      <point x="863.9782608695652" y="1532.2934782608695"/>
      <point x="980.0869565217391" y="1510.554347826087"/>
      <point x="1018.25" y="1470.391304347826" type="curve"/>
      <point x="1052.0978260869563" y="1256.75" type="line"/>
      <point x="1177.0652173913045" y="1256.75" type="line"/>
      <point x="1219.6304347826087" y="1560.0" type="line"/>
      <point x="1164.8478260869565" y="1591.5217391304348"/>
      <point x="991.4347826086956" y="1634.0"/>
      <point x="823.9565217391305" y="1634.0" type="curve" smooth="yes"/>
      <point x="507.6304347826087" y="1634.0"/>
      <point x="259.6739130434783" y="1470.2934782608695"/>
      <point x="258.0978260869565" y="1254.7826086956522" type="curve" smooth="yes"/>
      <point x="257.4673913043478" y="1181.413043478261"/>
      <point x="285.4673913043478" y="1122.0"/>
      <point x="343.57608695652175" y="1067.4782608695652" type="curve"/>
      <point x="261.64130434782606" y="995.4239130434783"/>
      <point x="160.58695652173913" y="893.5217391304348"/>
      <point x="159.32608695652175" y="751.6304347826086" type="curve" smooth="yes"/>
      <point x="155.22826086956525" y="355.59782608695656"/>
      <point x="894.5978260869566" y="409.94565217391306"/>
      <point x="894.5978260869566" y="130.39130434782606" type="curve" smooth="yes"/>
      <point x="894.5978260869566" y="9.065217391304344"/>
      <point x="755.0652173913044" y="-74.18478260869566"/>
      <point x="559.4565217391305" y="-74.18478260869566" type="curve" smooth="yes"/>
      <point x="465.6630434782609" y="-74.18478260869566"/>
      <point x="328.65217391304344" y="-53.086956521739125"/>
      <point x="268.6304347826087" y="9.141304347826088" type="curve"/>
      <point x="246.31521739130434" y="226.52173913043478" type="line"/>
      <point x="117.8695652173913" y="226.52173913043478" type="line"/>
      <point x="72.35869565217392" y="-101.83695652173913" type="line"/>
      <point x="132.97826086956522" y="-135.20652173913044"/>
      <point x="365.5869565217391" y="-182.0"/>
      <point x="540.1086956521739" y="-182.0" type="curve" smooth="yes"/>
      <point x="821.3369565217391" y="-182.0"/>
      <point x="1096.554347826087" y="-56.95652173913043"/>
    </contour>
    <contour>
      <point x="999.9782608695652" y="621.2826086956522" type="curve" smooth="yes"/>
      <point x="999.9782608695652" y="559.9021739130434"/>
      <point x="963.1739130434783" y="490.3586956521739"/>
      <point x="927.4130434782609" y="438.80434782608694" type="curve"/>
      <point x="703.2934782608695" y="576.8043478260869"/>
      <point x="338.34782608695656" y="621.1630434782609"/>
      <point x="338.34782608695656" y="832.2391304347826" type="curve" smooth="yes"/>
      <point x="338.34782608695656" y="906.1630434782609"/>
      <point x="388.0108695652174" y="956.9673913043479"/>
      <point x="421.8152173913043" y="1000.1847826086956" type="curve"/>
      <point x="638.4565217391305" y="867.554347826087"/>
      <point x="999.9782608695652" y="817.5543478260869"/>
    </contour>
  </outline>
</glyph>
<glyph name="ordfeminine" format="2">
  <advance width="897.9891304347826"/>
  <unicode hex="00AA"/>
  <outline>
    <contour>
      <point x="801.1956521739131" y="885.9347826086956" type="curve"/>
      <point x="946.6195652173913" y="1606.5217391304348" type="line"/>
      <point x="839.8695652173913" y="1573.2608695652175" type="line"/>
      <point x="793.5543478260869" y="1587.2608695652175"/>
      <point x="721.9239130434783" y="1602.6304347826087"/>
      <point x="661.6086956521739" y="1602.6304347826087" type="curve" smooth="yes"/>
      <point x="350.42391304347825" y="1602.6304347826087"/>
      <point x="103.47826086956522" y="1317.3695652173913"/>
      <point x="103.47826086956522" y="1044.6739130434783" type="curve" smooth="yes"/>
      <point x="103.47826086956522" y="852.3695652173913"/>
      <point x="200.04347826086956" y="722.0434782608696"/>
      <point x="361.4130434782609" y="723.7282608695652" type="curve" smooth="yes"/>
      <point x="499.82608695652175" y="725.0978260869565"/>
      <point x="569.5326086956522" y="792.7391304347826"/>
      <point x="620.5869565217391" y="856.1630434782609" type="curve"/>
      <point x="604.3695652173913" y="773.2608695652174"/>
      <point x="647.945652173913" y="722.0434782608696"/>
      <point x="719.608695652174" y="723.7282608695652" type="curve" smooth="yes"/>
      <point x="799.1739130434783" y="725.0978260869565"/>
      <point x="899.9891304347826" y="784.6739130434783"/>
      <point x="911.6195652173913" y="798.6739130434783" type="curve"/>
      <point x="885.5217391304348" y="841.6630434782609" type="line"/>
      <point x="852.1521739130435" y="818.8695652173913"/>
      <point x="833.0434782608696" y="811.8152173913044"/>
      <point x="818.9891304347826" y="811.8152173913044" type="curve" smooth="yes"/>
      <point x="798.4565217391304" y="811.8152173913044"/>
      <point x="794.8804347826087" y="843.0326086956521"/>
    </contour>
    <contour>
      <point x="736.8478260869565" y="1472.25" type="curve"/>
      <point x="622.0652173913044" y="924.1630434782609" type="line"/>
      <point x="575.6847826086956" y="879.8369565217391"/>
      <point x="506.14130434782606" y="829.5"/>
      <point x="439.3369565217391" y="829.5" type="curve" smooth="yes"/>
      <point x="341.35869565217394" y="829.5"/>
      <point x="294.25" y="928.4021739130435"/>
      <point x="294.25" y="1059.304347826087" type="curve" smooth="yes"/>
      <point x="294.25" y="1278.9021739130435"/>
      <point x="429.95652173913044" y="1514.163043478261"/>
      <point x="643.2391304347825" y="1514.163043478261" type="curve" smooth="yes"/>
      <point x="672.195652173913" y="1514.163043478261"/>
      <point x="711.3695652173913" y="1498.3152173913045"/>
    </contour>
  </outline>
</glyph>
<glyph name="registered" format="2">
  <advance width="2098.0"/>
  <unicode hex="00AE"/>
  <outline>
    <contour>
      <point x="259.2608695652174" y="979.3695652173913" type="curve" smooth="yes"/>
      <point x="259.2608695652174" y="503.3695652173913"/>
      <point x="635.8369565217391" y="124.46739130434783"/>
      <point x="1108.6304347826087" y="124.46739130434783" type="curve" smooth="yes"/>
      <point x="1582.0" y="124.46739130434783"/>
      <point x="1956.7391304347825" y="503.3695652173913"/>
      <point x="1956.7391304347825" y="979.3695652173913" type="curve" smooth="yes"/>
      <point x="1956.7391304347825" y="1453.3695652173913"/>
      <point x="1582.0" y="1830.9021739130435"/>
      <point x="1108.6304347826087" y="1830.9021739130435" type="curve" smooth="yes"/>
      <point x="635.8369565217391" y="1830.9021739130435"/>
      <point x="259.2608695652174" y="1453.3695652173913"/>
    </contour>
    <contour>
      <point x="382.8695652173913" y="979.3695652173913" type="curve" smooth="yes"/>
      <point x="382.8695652173913" y="1386.0652173913043"/>
      <point x="695.9347826086956" y="1724.5"/>
      <point x="1108.6304347826087" y="1724.5" type="curve" smooth="yes"/>
      <point x="1518.0652173913043" y="1724.5"/>
      <point x="1831.7608695652175" y="1388.2717391304348"/>
      <point x="1831.7608695652175" y="979.3695652173913" type="curve" smooth="yes"/>
      <point x="1831.7608695652175" y="570.6739130434783"/>
      <point x="1518.0652173913043" y="232.23913043478262"/>
      <point x="1108.6304347826087" y="232.23913043478262" type="curve" smooth="yes"/>
      <point x="698.5108695652174" y="232.23913043478262"/>
      <point x="382.8695652173913" y="569.0978260869565"/>
    </contour>
    <contour>
      <point x="805.5978260869565" y="615.0326086956521" type="line"/>
      <point x="717.9565217391304" y="591.1413043478261" type="line"/>
      <point x="717.9565217391304" y="507.2608695652174" type="line"/>
      <point x="1079.0217391304348" y="507.2608695652174" type="line"/>
      <point x="1079.0217391304348" y="591.1413043478261" type="line"/>
      <point x="978.6413043478261" y="612.2934782608696" type="line"/>
      <point x="978.6413043478261" y="885.4891304347826" type="line"/>
      <point x="1123.3695652173913" y="884.1195652173913" type="line"/>
      <point x="1300.2934782608695" y="818.5217391304348"/>
      <point x="1211.7717391304348" y="507.2608695652174"/>
      <point x="1418.9782608695652" y="507.2608695652174" type="curve" smooth="yes"/>
      <point x="1565.7717391304348" y="507.2608695652174" type="line"/>
      <point x="1565.7717391304348" y="613.6521739130435" type="line"/>
      <point x="1415.7065217391305" y="621.5"/>
      <point x="1469.5869565217392" y="845.0326086956521"/>
      <point x="1276.8695652173913" y="929.8804347826087" type="curve"/>
      <point x="1417.3804347826087" y="959.8804347826087"/>
      <point x="1489.25" y="1064.5108695652175"/>
      <point x="1489.25" y="1204.2717391304348" type="curve" smooth="yes"/>
      <point x="1489.25" y="1353.9565217391305"/>
      <point x="1373.8152173913043" y="1452.6304347826087"/>
      <point x="1127.8369565217392" y="1452.6304347826087" type="curve"/>
      <point x="1021.3695652173913" y="1451.2608695652175"/>
      <point x="977.8913043478261" y="1446.0"/>
      <point x="883.1413043478261" y="1447.2608695652175" type="curve" smooth="yes"/>
      <point x="717.9565217391304" y="1447.2608695652175" type="line"/>
      <point x="717.9565217391304" y="1353.4891304347825" type="line"/>
      <point x="805.5978260869565" y="1332.858695652174" type="line"/>
    </contour>
    <contour>
      <point x="978.6413043478261" y="1000.6304347826087" type="curve"/>
      <point x="978.6413043478261" y="1338.858695652174" type="line"/>
      <point x="1026.2391304347825" y="1348.2282608695652"/>
      <point x="1064.5108695652175" y="1348.858695652174"/>
      <point x="1102.4673913043478" y="1348.858695652174" type="curve" smooth="yes"/>
      <point x="1230.391304347826" y="1348.858695652174"/>
      <point x="1295.1521739130435" y="1302.858695652174"/>
      <point x="1295.1521739130435" y="1176.0652173913043" type="curve" smooth="yes"/>
      <point x="1295.1521739130435" y="1077.3695652173913"/>
      <point x="1222.391304347826" y="994.0"/>
      <point x="1129.3695652173913" y="994.0" type="curve" smooth="yes"/>
      <point x="1089.8369565217392" y="994.0"/>
      <point x="1010.6413043478261" y="994.0"/>
    </contour>
  </outline>
</glyph>
<glyph name="degree" format="2">
  <advance width="868.945652173913"/>
  <unicode hex="00B0"/>
  <outline>
    <contour>
      <point x="536.75" y="940.2717391304348" type="curve" smooth="yes"/>
      <point x="727.8478260869565" y="940.2717391304348"/>
      <point x="874.0543478260869" y="1079.4782608695652"/>
      <point x="876.6847826086956" y="1263.2608695652175" type="curve" smooth="yes"/>
      <point x="880.0" y="1439.7282608695652"/>
      <point x="741.2173913043478" y="1585.25"/>
      <point x="556.75" y="1585.25" type="curve" smooth="yes"/>
      <point x="365.6521739130435" y="1585.25"/>
      <point x="222.81521739130437" y="1445.7282608695652"/>
      <point x="219.44565217391306" y="1263.2608695652175" type="curve" smooth="yes"/>
      <point x="216.07608695652175" y="1087.4782608695652"/>
      <point x="355.0217391304348" y="940.2717391304348"/>
    </contour>
    <contour>
      <point x="543.3804347826086" y="1056.2934782608695" type="curve" smooth="yes"/>
      <point x="432.0" y="1056.2934782608695"/>
      <point x="344.9891304347826" y="1149.25"/>
      <point x="346.9891304347826" y="1263.2608695652175" type="curve" smooth="yes"/>
      <point x="348.9891304347826" y="1381.9565217391305"/>
      <point x="434.6847826086957" y="1468.858695652174"/>
      <point x="552.1195652173913" y="1468.858695652174" type="curve" smooth="yes"/>
      <point x="663.5" y="1468.858695652174"/>
      <point x="752.5108695652174" y="1379.3260869565217"/>
      <point x="749.141304347826" y="1263.2608695652175" type="curve" smooth="yes"/>
      <point x="746.4565217391304" y="1145.25"/>
      <point x="661.5" y="1056.2934782608695"/>
    </contour>
  </outline>
</glyph>
<glyph name="acute" format="2">
  <advance width="745.0434782608695"/>
  <unicode hex="00B4"/>
  <anchor x="380.9347826086957" y="1110.0" name="_top"/>
  <anchor x="328.9891304347826" y="1544.0217391304348" name="top"/>
  <outline>
    <contour>
      <point x="269.2608695652174" y="1323.4565217391305" type="line"/>
      <point x="330.71739130434787" y="1272.4239130434783" type="line"/>
      <point x="443.97826086956525" y="1330.75"/>
      <point x="689.3586956521739" y="1542.5217391304348"/>
      <point x="725.3586956521739" y="1607.1521739130435" type="curve"/>
      <point x="572.5434782608695" y="1731.804347826087" type="line"/>
    </contour>
  </outline>
</glyph>
<glyph name="paragraph" format="2">
  <advance width="1501.108695652174"/>
  <unicode hex="00B6"/>
  <outline>
    <contour>
      <point x="274.6195652173913" y="0.0" type="line"/>
      <point x="670.5869565217391" y="0.0" type="line"/>
      <point x="846.6304347826086" y="1537.5978260869565" type="line"/>
      <point x="1106.1630434782608" y="1534.858695652174" type="line"/>
      <point x="938.5978260869565" y="0.0" type="line"/>
      <point x="1319.5217391304348" y="0.0" type="line"/>
      <point x="1325.7826086956522" y="73.72826086956522" type="line"/>
      <point x="1155.6630434782608" y="99.30434782608695" type="line"/>
      <point x="1184.0217391304345" y="374.7282608695652"/>
      <point x="1292.086956521739" y="1330.858695652174"/>
      <point x="1311.9130434782608" y="1536.858695652174" type="curve"/>
      <point x="1496.4021739130435" y="1566.0652173913043" type="line"/>
      <point x="1504.0326086956522" y="1652.7391304347825" type="line"/>
      <point x="1220.7934782608695" y="1652.7391304347825" type="line" smooth="yes"/>
      <point x="1073.141304347826" y="1654.0"/>
      <point x="963.4021739130435" y="1670.7391304347825"/>
      <point x="784.4782608695651" y="1670.7391304347825" type="curve" smooth="yes"/>
      <point x="327.61956521739125" y="1670.7391304347825"/>
      <point x="147.6413043478261" y="1464.445652173913"/>
      <point x="155.17391304347825" y="1192.4021739130433" type="curve"/>
      <point x="161.33695652173913" y="965.1630434782609"/>
      <point x="321.4347826086956" y="803.5326086956521"/>
      <point x="555.9239130434784" y="800.1086956521739" type="curve"/>
      <point x="483.67391304347825" y="99.30434782608695" type="line"/>
      <point x="280.9347826086956" y="73.72826086956522" type="line"/>
    </contour>
  </outline>
</glyph>
<glyph name="cedilla" format="2">
  <advance width="737.5326086956521"/>
  <unicode hex="00B8"/>
  <anchor x="382.9347826086956" y="0.0" name="_bottom"/>
  <outline>
    <contour>
      <point x="377.40217391304344" y="27.83695652173913" type="line"/>
      <point x="325.7391304347826" y="23.83695652173913" type="line"/>
      <point x="334.4782608695652" y="-4.739130434782608"/>
      <point x="347.3152173913044" y="-39.26086956521739"/>
      <point x="345.3695652173913" y="-96.40217391304348" type="curve" smooth="yes"/>
      <point x="343.1630434782609" y="-232.67391304347825"/>
      <point x="272.69565217391306" y="-312.9673913043478"/>
      <point x="148.16304347826087" y="-312.9673913043478" type="curve" smooth="yes"/>
      <point x="107.31521739130434" y="-312.9673913043478"/>
      <point x="64.57608695652173" y="-304.9673913043478"/>
      <point x="47.57608695652174" y="-295.5978260869565" type="curve"/>
      <point x="30.73913043478261" y="-431.7282608695652" type="line"/>
      <point x="60.152173913043484" y="-449.9347826086956"/>
      <point x="121.82608695652175" y="-463.25"/>
      <point x="176.82608695652172" y="-463.25" type="curve" smooth="yes"/>
      <point x="356.63043478260875" y="-463.25"/>
      <point x="472.95652173913044" y="-344.75"/>
      <point x="472.95652173913044" y="-149.5" type="curve" smooth="yes"/>
      <point x="472.95652173913044" y="-74.51086956521739"/>
      <point x="452.8586956521739" y="-12.108695652173914"/>
      <point x="429.9673913043478" y="23.83695652173913" type="curve"/>
    </contour>
  </outline>
</glyph>
<glyph name="guillemetright" format="2">
  <advance width="1350.1195652173915"/>
  <unicode hex="00BB"/>
  <outline>
    <contour>
      <point x="746.6956521739131" y="107.34782608695652" type="line"/>
      <point x="1239.6195652173913" y="545.9130434782609" type="line"/>
      <point x="1257.086956521739" y="674.7826086956521" type="line"/>
      <point x="899.5326086956522" y="1116.6195652173913" type="line"/>
      <point x="799.7826086956521" y="1051.2934782608695" type="line"/>
      <point x="1026.108695652174" y="621.75" type="line"/>
      <point x="649.25" y="167.93478260869566" type="line"/>
    </contour>
    <contour>
      <point x="191.5326086956522" y="110.5" type="line"/>
      <point x="690.554347826087" y="545.9130434782609" type="line"/>
      <point x="708.3369565217391" y="674.7826086956521" type="line"/>
      <point x="348.69565217391306" y="1113.4673913043478" type="line"/>
      <point x="248.63043478260872" y="1048.141304347826" type="line"/>
      <point x="479.5652173913044" y="621.75" type="line"/>
      <point x="94.40217391304348" y="171.08695652173913" type="line"/>
    </contour>
  </outline>
</glyph>
<glyph name="AE" format="2">
  <advance width="2057.0"/>
  <unicode hex="00C6"/>
  <anchor x="1122.9891304347825" y="1486.0" name="top"/>
  <outline>
    <contour>
      <point x="-174.55434782608697" y="0.0" type="line"/>
      <point x="451.8260869565217" y="0.0" type="line"/>
      <point x="461.0869565217391" y="88.19565217391305" type="line"/>
      <point x="225.91304347826087" y="112.51086956521739" type="line"/>
      <point x="420.5217391304348" y="459.3586956521739" type="line"/>
      <point x="970.695652173913" y="459.3586956521739" type="line"/>
      <point x="924.4782608695652" y="112.82608695652173" type="line"/>
      <point x="769.054347826087" y="88.19565217391305" type="line"/>
      <point x="758.4239130434783" y="0.0" type="line"/>
      <point x="1910.6847826086957" y="0.0" type="line"/>
      <point x="1982.5326086956522" y="344.8152173913044" type="line"/>
      <point x="1868.1630434782608" y="364.97826086956525" type="line"/>
      <point x="1754.5" y="134.1195652173913" type="line"/>
      <point x="1144.3695652173913" y="111.76086956521739" type="line"/>
      <point x="1225.478260869565" y="712.7934782608695" type="line"/>
      <point x="1710.108695652174" y="694.75" type="line"/>
      <point x="1727.0434782608695" y="857.4891304347826" type="line"/>
      <point x="1241.3695652173913" y="833.6630434782609" type="line"/>
      <point x="1314.9021739130435" y="1390.858695652174" type="line"/>
      <point x="1800.6521739130435" y="1373.7608695652175" type="line"/>
      <point x="1851.5760869565217" y="1174.5652173913043" type="line"/>
      <point x="1965.6847826086957" y="1174.5652173913043" type="line"/>
      <point x="1977.6195652173915" y="1486.0" type="line"/>
      <point x="458.32608695652175" y="1486.0" type="line"/>
      <point x="446.75" y="1394.9673913043478" type="line"/>
      <point x="782.7065217391304" y="1373.7608695652175" type="line"/>
      <point x="14.923913043478262" y="111.1413043478261" type="line"/>
      <point x="-163.55434782608697" y="88.19565217391305" type="line"/>
    </contour>
    <contour>
      <point x="631.8695652173913" y="573.4891304347826" type="line"/>
      <point x="792.1304347826086" y="1124.7391304347825" type="line"/>
      <point x="1057.1739130434783" y="1376.9021739130435" type="line"/>
      <point x="1021.5760869565217" y="829.445652173913" type="line"/>
    </contour>
  </outline>
</glyph>
<glyph name="eth" format="2">
  <advance width="1169.9021739130435"/>
  <unicode hex="00F0"/>
  <outline>
    <contour>
      <point x="496.95652173913044" y="-22.206521739130434" type="curve" smooth="yes"/>
      <point x="870.804347826087" y="-22.206521739130434"/>
      <point x="1127.6847826086957" y="306.3804347826087"/>
      <point x="1127.6847826086957" y="785.6847826086957" type="curve" smooth="yes"/>
      <point x="1127.6847826086957" y="1094.1739130434783"/>
      <point x="1017.1739130434783" y="1382.2065217391303"/>
      <point x="739.6521739130434" y="1560.978260869565" type="curve"/>
      <point x="723.7608695652174" y="1455.7065217391303" type="line"/>
      <point x="972.3478260869566" y="1659.1521739130435" type="line"/>
      <point x="885.054347826087" y="1741.086956521739" type="line"/>
      <point x="634.8695652173914" y="1529.7826086956522" type="line"/>
      <point x="754.358695652174" y="1550.6847826086957" type="line"/>
      <point x="652.75" y="1623.608695652174"/>
      <point x="529.5217391304348" y="1678.1739130434783"/>
      <point x="417.4130434782609" y="1710.282608695652" type="curve"/>
      <point x="369.6847826086956" y="1597.3695652173915" type="line"/>
      <point x="468.1630434782609" y="1565.1521739130435"/>
      <point x="560.141304347826" y="1513.8695652173915"/>
      <point x="639.6086956521739" y="1452.6739130434783" type="curve"/>
      <point x="658.5" y="1553.9347826086957" type="line"/>
      <point x="396.7608695652174" y="1347.5978260869565" type="line"/>
      <point x="488.57608695652175" y="1267.3478260869565" type="line"/>
      <point x="749.0652173913044" y="1485.0108695652175" type="line"/>
      <point x="622.2717391304348" y="1470.3260869565217" type="line"/>
      <point x="808.0326086956522" y="1335.641304347826"/>
      <point x="897.7391304347826" y="1144.1521739130435"/>
      <point x="908.6956521739131" y="976.9891304347826" type="curve"/>
      <point x="871.5434782608695" y="1026.4347826086955"/>
      <point x="767.1847826086956" y="1084.7391304347827"/>
      <point x="643.1630434782609" y="1084.7391304347827" type="curve" smooth="yes"/>
      <point x="354.1630434782609" y="1084.4239130434783"/>
      <point x="52.58695652173913" y="839.4782608695652"/>
      <point x="52.58695652173913" y="428.69565217391306" type="curve" smooth="yes"/>
      <point x="52.58695652173913" y="138.95652173913044"/>
      <point x="240.05434782608697" y="-22.206521739130434"/>
    </contour>
    <contour>
      <point x="521.8913043478261" y="85.19565217391305" type="curve" smooth="yes"/>
      <point x="390.69565217391306" y="85.19565217391305"/>
      <point x="281.4782608695652" y="197.5"/>
      <point x="281.4782608695652" y="441.3586956521739" type="curve" smooth="yes"/>
      <point x="281.4782608695652" y="663.0217391304348"/>
      <point x="401.4130434782609" y="980.3913043478261"/>
      <point x="653.6630434782609" y="980.3913043478261" type="curve" smooth="yes"/>
      <point x="822.8152173913044" y="980.3913043478261"/>
      <point x="890.5326086956521" y="826.554347826087"/>
      <point x="890.5326086956521" y="750.2391304347826" type="curve" smooth="yes"/>
      <point x="890.5326086956521" y="637.1195652173913"/>
      <point x="879.0108695652174" y="512.1304347826086"/>
      <point x="841.9565217391304" y="402.5108695652174" type="curve" smooth="yes"/>
      <point x="778.054347826087" y="214.6195652173913"/>
      <point x="672.9239130434783" y="85.19565217391305"/>
    </contour>
  </outline>
</glyph>
<glyph name="Hbar" format="2">
  <advance width="1609.2717391304348"/>
  <unicode hex="0126"/>
  <outline>
    <contour>
      <point x="9.804347826086957" y="0.0" type="line"/>
      <point x="551.0326086956521" y="0.0" type="line"/>
      <point x="560.4021739130435" y="86.93478260869564" type="line"/>
      <point x="386.97826086956525" y="112.19565217391305" type="line"/>
      <point x="456.0869565217391" y="627.1739130434783" type="line"/>
      <point x="1169.086956521739" y="627.1739130434783" type="line"/>
      <point x="1099.9782608695652" y="112.19565217391305" type="line"/>
      <point x="933.4347826086956" y="86.93478260869564" type="line"/>
      <point x="922.858695652174" y="0.0" type="line"/>
      <point x="1458.0869565217392" y="0.0" type="line"/>
      <point x="1468.0326086956522" y="86.93478260869564" type="line"/>
      <point x="1317.4021739130435" y="112.19565217391305" type="line"/>
      <point x="1435.5108695652175" y="991.1739130434783" type="line"/>
      <point x="1622.3586956521738" y="991.1739130434783" type="line"/>
      <point x="1636.3586956521738" y="1105.891304347826" type="line"/>
      <point x="1450.4021739130435" y="1105.891304347826" type="line"/>
      <point x="1486.8260869565217" y="1376.5434782608695" type="line"/>
      <point x="1638.25" y="1397.1739130434783" type="line"/>
      <point x="1648.195652173913" y="1486.0" type="line"/>
      <point x="1117.7065217391305" y="1486.0" type="line"/>
      <point x="1107.7608695652173" y="1397.1739130434783" type="line"/>
      <point x="1269.4021739130435" y="1376.5434782608695" type="line"/>
      <point x="1232.9782608695652" y="1105.891304347826" type="line"/>
      <point x="520.2934782608696" y="1105.891304347826" type="line"/>
      <point x="556.7173913043479" y="1376.2282608695652" type="line"/>
      <point x="729.6630434782609" y="1397.4891304347827" type="line"/>
      <point x="740.2934782608696" y="1486.0" type="line"/>
      <point x="205.07608695652172" y="1486.0" type="line"/>
      <point x="193.81521739130434" y="1397.4891304347827" type="line"/>
      <point x="339.92391304347825" y="1376.2282608695652" type="line"/>
      <point x="303.5" y="1105.891304347826" type="line"/>
      <point x="111.06521739130434" y="1105.891304347826" type="line"/>
      <point x="95.80434782608695" y="991.4891304347825" type="line"/>
      <point x="288.6086956521739" y="991.4891304347825" type="line"/>
      <point x="170.18478260869566" y="112.19565217391305" type="line"/>
      <point x="19.804347826086957" y="86.93478260869564" type="line"/>
    </contour>
    <contour>
      <point x="471.6630434782609" y="741.2608695652174" type="line"/>
      <point x="505.4021739130434" y="991.4891304347825" type="line"/>
      <point x="1218.0869565217392" y="991.1739130434783" type="line"/>
      <point x="1184.3478260869565" y="741.2608695652174" type="line"/>
    </contour>
  </outline>
</glyph>
<glyph name="Eng" format="2">
  <advance width="1557.0108695652173"/>
  <unicode hex="014A"/>
  <outline>
    <contour>
      <point x="762.7934782608695" y="-396.72826086956525" type="line"/>
      <point x="1027.5" y="-380.7826086956522"/>
      <point x="1238.2173913043478" y="-202.91304347826087"/>
      <point x="1281.3152173913045" y="99.47826086956522" type="curve" smooth="yes"/>
      <point x="1463.6739130434783" y="1373.804347826087" type="line"/>
      <point x="1615.3152173913045" y="1397.1739130434783" type="line"/>
      <point x="1625.3152173913043" y="1486.0" type="line"/>
      <point x="1138.6847826086955" y="1486.0" type="line"/>
      <point x="1130.054347826087" y="1397.1739130434783" type="line"/>
      <point x="1306.8152173913045" y="1373.804347826087" type="line"/>
      <point x="1166.1847826086955" y="219.94565217391303" type="line"/>
      <point x="1084.5978260869565" y="444.0869565217391" type="line"/>
      <point x="573.7826086956522" y="1486.0" type="line"/>
      <point x="191.69565217391303" y="1486.0" type="line"/>
      <point x="179.80434782608697" y="1397.1739130434783" type="line"/>
      <point x="329.9130434782609" y="1376.5434782608695" type="line"/>
      <point x="158.3804347826087" y="112.19565217391305" type="line"/>
      <point x="6.108695652173914" y="86.93478260869564" type="line"/>
      <point x="-3.2608695652173916" y="0.0" type="line"/>
      <point x="492.19565217391306" y="0.0" type="line"/>
      <point x="500.82608695652175" y="86.93478260869564" type="line"/>
      <point x="315.8695652173913" y="112.19565217391303" type="line"/>
      <point x="452.195652173913" y="1309.6304347826087" type="line"/>
      <point x="538.8913043478261" y="1072.054347826087" type="line"/>
      <point x="1071.8695652173913" y="0.0" type="line"/>
      <point x="1035.9891304347825" y="-187.15217391304347"/>
      <point x="893.4130434782609" y="-275.5326086956522"/>
      <point x="728.75" y="-312.17391304347825" type="curve"/>
    </contour>
  </outline>
</glyph>
<glyph name="eng" format="2">
  <advance width="1255.2934782608697"/>
  <unicode hex="014B"/>
  <outline>
    <contour>
      <point x="409.2391304347826" y="872.6086956521739" type="curve"/>
      <point x="435.7717391304348" y="1114.7391304347825" type="line"/>
      <point x="391.98913043478257" y="1136.0" type="line"/>
      <point x="122.81521739130434" y="1090.1630434782608" type="line"/>
      <point x="107.5" y="1014.75" type="line"/>
      <point x="210.70652173913044" y="964.9673913043479" type="line"/>
      <point x="77.65217391304348" y="0.0" type="line"/>
      <point x="288.7173913043478" y="0.0" type="line"/>
      <point x="390.4021739130435" y="720.0652173913044" type="line"/>
      <point x="481.1086956521739" y="863.7608695652174"/>
      <point x="643.7173913043478" y="987.8260869565217"/>
      <point x="774.3913043478261" y="987.8260869565217" type="curve" smooth="yes"/>
      <point x="862.2065217391305" y="987.8260869565217"/>
      <point x="918.0108695652174" y="958.2826086956522"/>
      <point x="918.0108695652174" y="823.0760869565217" type="curve" smooth="yes"/>
      <point x="918.0108695652174" y="718.195652173913"/>
      <point x="886.1413043478261" y="499.75"/>
      <point x="820.3695652173913" y="58.52173913043478" type="curve" smooth="yes"/>
      <point x="783.3152173913043" y="-192.32608695652175"/>
      <point x="731.0326086956521" y="-401.2391304347826"/>
      <point x="542.1739130434784" y="-401.2391304347826" type="curve" smooth="yes"/>
      <point x="505.0652173913044" y="-401.2391304347826"/>
      <point x="457.10869565217394" y="-388.44565217391306"/>
      <point x="431.85869565217394" y="-378.86956521739125" type="curve"/>
      <point x="398.76086956521743" y="-468.57608695652175" type="line"/>
      <point x="444.39130434782606" y="-494.57608695652175"/>
      <point x="504.3804347826087" y="-510.1521739130435"/>
      <point x="572.8586956521739" y="-510.1521739130435" type="curve" smooth="yes"/>
      <point x="811.4782608695652" y="-510.1521739130435"/>
      <point x="972.5434782608695" y="-336.60869565217394"/>
      <point x="1024.4347826086957" y="1.3695652173913064" type="curve" smooth="yes"/>
      <point x="1110.2173913043478" y="560.5108695652174"/>
      <point x="1140.8043478260868" y="771.3478260869565"/>
      <point x="1140.8043478260868" y="848.9456521739131" type="curve" smooth="yes"/>
      <point x="1140.8043478260868" y="1054.5217391304348"/>
      <point x="1024.6956521739132" y="1136.0"/>
      <point x="876.9673913043478" y="1136.0" type="curve" smooth="yes"/>
      <point x="691.6304347826086" y="1136.0"/>
      <point x="515.304347826087" y="1014.7717391304348"/>
    </contour>
  </outline>
</glyph>
<glyph name="OE" format="2">
  <advance width="2334.913043478261"/>
  <unicode hex="0152"/>
  <outline>
    <contour>
      <point x="1200.4239130434783" y="0.0" type="line"/>
      <point x="2187.2282608695655" y="0.0" type="line"/>
      <point x="2263.869565217391" y="368.78260869565213" type="line"/>
      <point x="2147.445652173913" y="391.0" type="line"/>
      <point x="2031.7282608695652" y="134.80434782608697" type="line"/>
      <point x="1429.2717391304348" y="111.76086956521739" type="line"/>
      <point x="1510.3804347826087" y="713.4782608695652" type="line"/>
      <point x="2000.3478260869565" y="694.75" type="line"/>
      <point x="2013.1739130434783" y="852.695652173913" type="line"/>
      <point x="1526.2717391304348" y="833.6630434782609" type="line"/>
      <point x="1601.0652173913043" y="1390.858695652174" type="line"/>
      <point x="2084.728260869565" y="1374.445652173913" type="line"/>
      <point x="2132.913043478261" y="1156.7608695652175" type="line"/>
      <point x="2251.8152173913045" y="1156.7608695652175" type="line"/>
      <point x="2262.3804347826085" y="1486.0" type="line"/>
      <point x="1400.0" y="1486.0" type="line"/>
      <point x="1359.9891304347827" y="1190.336956521739" type="line"/>
      <point x="1276.0" y="1380.5978260869565"/>
      <point x="1109.0434782608697" y="1506.0"/>
      <point x="860.445652173913" y="1506.0" type="curve" smooth="yes"/>
      <point x="385.0326086956522" y="1506.0"/>
      <point x="93.65217391304347" y="1118.445652173913"/>
      <point x="93.65217391304347" y="640.2608695652174" type="curve" smooth="yes"/>
      <point x="93.65217391304347" y="264.5760869565217"/>
      <point x="284.8152173913044" y="-20.0"/>
      <point x="684.25" y="-20.0" type="curve" smooth="yes"/>
      <point x="915.5760869565217" y="-20.0"/>
      <point x="1104.6956521739132" y="80.5"/>
      <point x="1233.3804347826087" y="243.5434782608696" type="curve"/>
    </contour>
    <contour>
      <point x="702.9782608695651" y="83.56521739130434" type="curve" smooth="yes"/>
      <point x="434.89130434782606" y="83.56521739130434"/>
      <point x="329.69565217391306" y="359.6521739130435"/>
      <point x="329.69565217391306" y="662.1086956521739" type="curve" smooth="yes"/>
      <point x="329.69565217391306" y="1075.5652173913045"/>
      <point x="535.945652173913" y="1401.804347826087"/>
      <point x="844.8695652173914" y="1401.804347826087" type="curve" smooth="yes"/>
      <point x="1103.1847826086955" y="1401.804347826087"/>
      <point x="1215.6304347826085" y="1157.8695652173913"/>
      <point x="1217.5217391304348" y="833.9782608695652" type="curve" smooth="yes"/>
      <point x="1217.5217391304348" y="412.01086956521743"/>
      <point x="1023.8804347826087" y="83.56521739130434"/>
    </contour>
  </outline>
</glyph>
<glyph name="Schwa" format="2">
  <advance width="1373.054347826087"/>
  <unicode hex="018F"/>
  <outline>
    <contour>
      <point x="179.90217391304347" y="1123.554347826087" type="line"/>
      <point x="301.3152173913043" y="1123.554347826087" type="line"/>
      <point x="375.29347826086956" y="1304.695652173913" type="line"/>
      <point x="429.7826086956522" y="1356.6304347826085"/>
      <point x="546.4021739130435" y="1406.0652173913043"/>
      <point x="704.0652173913044" y="1406.0652173913043" type="curve" smooth="yes"/>
      <point x="960.4021739130435" y="1406.0652173913043"/>
      <point x="1110.304347826087" y="1214.8695652173915"/>
      <point x="1105.2608695652175" y="871.7173913043478" type="curve" smooth="yes"/>
      <point x="1105.2608695652175" y="831.2826086956521"/>
      <point x="1103.945652173913" y="794.9673913043478"/>
      <point x="1100.2065217391303" y="761.3695652173913" type="curve"/>
      <point x="106.16304347826087" y="760.6847826086956" type="line"/>
      <point x="82.79347826086956" y="705.3152173913044"/>
      <point x="63.69565217391304" y="582.0"/>
      <point x="64.3804347826087" y="481.69565217391306" type="curve" smooth="yes"/>
      <point x="67.1195652173913" y="156.0"/>
      <point x="245.8913043478261" y="-22.0"/>
      <point x="569.7282608695652" y="-22.0" type="curve" smooth="yes"/>
      <point x="1040.1413043478262" y="-22.0"/>
      <point x="1340.9891304347827" y="368.0"/>
      <point x="1340.9891304347827" y="876.608695652174" type="curve" smooth="yes"/>
      <point x="1340.9891304347827" y="1262.6304347826087"/>
      <point x="1112.8260869565217" y="1502.0"/>
      <point x="769.7608695652174" y="1502.0" type="curve" smooth="yes"/>
      <point x="461.35869565217394" y="1502.0"/>
      <point x="348.1195652173913" y="1424.2717391304348"/>
      <point x="227.90217391304347" y="1420.1630434782608" type="curve"/>
    </contour>
    <contour>
      <point x="1089.5760869565217" y="652.3369565217391" type="line"/>
      <point x="1032.4130434782608" y="258.96739130434787"/>
      <point x="836.8369565217391" y="81.66304347826087"/>
      <point x="601.6630434782609" y="81.66304347826087" type="curve" smooth="yes"/>
      <point x="387.0978260869565" y="81.66304347826087"/>
      <point x="288.2173913043478" y="245.95652173913044"/>
      <point x="288.2173913043478" y="439.4782608695652" type="curve" smooth="yes"/>
      <point x="288.2173913043478" y="537.2391304347826"/>
      <point x="299.1630434782609" y="582.3913043478261"/>
      <point x="316.1630434782609" y="652.3369565217391" type="curve"/>
    </contour>
  </outline>
</glyph>
<glyph name="florin" format="2">
  <advance width="1027.2282608695652"/>
  <unicode hex="0192"/>
  <outline>
    <contour>
      <point x="398.75" y="1178.108695652174" type="curve" smooth="yes"/>
      <point x="392.0652173913044" y="1119.0978260869565" type="line"/>
      <point x="167.41304347826087" y="1071.2608695652175" type="line"/>
      <point x="161.1521739130435" y="985.0869565217391" type="line"/>
      <point x="382.5978260869565" y="985.0869565217391" type="line"/>
      <point x="222.70652173913044" y="-348.0" type="line"/>
      <point x="424.59782608695656" y="-348.0" type="line"/>
      <point x="580.9130434782609" y="985.0869565217391" type="line"/>
      <point x="902.1630434782609" y="985.0869565217391" type="line"/>
      <point x="911.7391304347825" y="1119.0978260869565" type="line"/>
      <point x="593.2717391304348" y="1119.0978260869565" type="line"/>
      <point x="606.9565217391304" y="1246.4673913043478" type="line" smooth="yes"/>
      <point x="616.6956521739131" y="1339.695652173913"/>
      <point x="637.75" y="1497.7826086956522"/>
      <point x="870.1521739130435" y="1497.7826086956522" type="curve" smooth="yes"/>
      <point x="955.9782608695652" y="1497.7826086956522"/>
      <point x="1014.7282608695651" y="1473.945652173913"/>
      <point x="1030.7717391304348" y="1465.3152173913043" type="curve"/>
      <point x="1039.0326086956522" y="1634.0" type="line"/>
      <point x="1030.0326086956522" y="1640.3695652173913"/>
      <point x="962.4673913043478" y="1650.0"/>
      <point x="910.3804347826086" y="1650.0" type="curve" smooth="yes"/>
      <point x="643.7282608695652" y="1650.0"/>
      <point x="427.32608695652175" y="1429.9565217391305"/>
    </contour>
  </outline>
</glyph>
<glyph name="jdotless" format="2">
  <advance width="561.3369565217391"/>
  <unicode hex="0237"/>
  <anchor x="339.94565217391306" y="1110.0" name="top"/>
  <outline>
    <contour>
      <point x="318.6304347826087" y="1.3695652173913064" type="curve" smooth="yes"/>
      <point x="469.7826086956522" y="1114.7391304347825" type="line"/>
      <point x="427.0" y="1136.0" type="line"/>
      <point x="148.6195652173913" y="1090.1630434782608" type="line"/>
      <point x="133.30434782608694" y="1014.75" type="line"/>
      <point x="237.19565217391303" y="964.6521739130435" type="line"/>
      <point x="115.19565217391305" y="58.52173913043478" type="line" smooth="yes"/>
      <point x="81.19565217391305" y="-192.6413043478261"/>
      <point x="27.22826086956521" y="-401.2391304347826"/>
      <point x="-140.4021739130435" y="-401.2391304347826" type="curve" smooth="yes"/>
      <point x="-180.25" y="-401.2391304347826"/>
      <point x="-228.20652173913044" y="-388.44565217391306"/>
      <point x="-253.45652173913044" y="-378.86956521739125" type="curve"/>
      <point x="-286.554347826087" y="-468.57608695652175" type="line"/>
      <point x="-240.92391304347825" y="-494.57608695652175"/>
      <point x="-180.93478260869566" y="-510.1521739130435"/>
      <point x="-113.82608695652173" y="-510.1521739130435" type="curve" smooth="yes"/>
      <point x="105.98913043478261" y="-510.1521739130435"/>
      <point x="272.10869565217394" y="-342.40217391304344"/>
    </contour>
  </outline>
</glyph>
<glyph name="schwa" format="2">
  <advance width="1073.804347826087"/>
  <unicode hex="0259"/>
  <anchor x="399.1847826086957" y="1.3695652173913042" name="bottom"/>
  <anchor x="601.4565217391304" y="1110.0" name="top"/>
  <outline>
    <contour>
      <point x="111.58695652173913" y="915.5326086956521" type="curve"/>
      <point x="155.8913043478261" y="841.391304347826" type="line"/>
      <point x="248.56521739130434" y="939.9565217391304"/>
      <point x="382.3152173913044" y="1005.6086956521739"/>
      <point x="514.1739130434783" y="1005.6086956521739" type="curve" smooth="yes"/>
      <point x="714.2717391304348" y="1005.6086956521739"/>
      <point x="807.5869565217391" y="854.9673913043479"/>
      <point x="793.2173913043479" y="654.945652173913" type="curve"/>
      <point x="417.2391304347826" y="643.4673913043479"/>
      <point x="42.75" y="487.53260869565213"/>
      <point x="42.75" y="214.6195652173913" type="curve" smooth="yes"/>
      <point x="42.75" y="82.20652173913044"/>
      <point x="139.59782608695653" y="-26.630434782608695"/>
      <point x="368.04347826086956" y="-26.630434782608695" type="curve" smooth="yes"/>
      <point x="750.5326086956521" y="-26.630434782608695"/>
      <point x="1021.5869565217391" y="281.1630434782609"/>
      <point x="1021.5869565217391" y="689.3152173913044" type="curve" smooth="yes"/>
      <point x="1021.5869565217391" y="905.8369565217391"/>
      <point x="910.6521739130435" y="1132.5217391304348"/>
      <point x="587.5543478260869" y="1132.5217391304348" type="curve" smooth="yes"/>
      <point x="372.1304347826087" y="1132.5217391304348"/>
      <point x="205.1195652173913" y="1034.858695652174"/>
    </contour>
    <contour>
      <point x="416.6086956521739" y="77.82608695652173" type="curve" smooth="yes"/>
      <point x="331.6413043478261" y="77.82608695652173"/>
      <point x="258.34782608695656" y="122.19565217391305"/>
      <point x="258.34782608695656" y="230.57608695652175" type="curve" smooth="yes"/>
      <point x="258.34782608695656" y="431.4891304347826"/>
      <point x="559.4565217391304" y="555.641304347826"/>
      <point x="789.3260869565217" y="564.1630434782609" type="curve"/>
      <point x="771.8478260869565" y="354.25"/>
      <point x="647.4565217391304" y="77.82608695652173"/>
    </contour>
  </outline>
</glyph>
<glyph name="ezh" format="2">
  <advance width="1025.6739130434783"/>
  <unicode hex="0292"/>
  <anchor x="580.6304347826086" y="1110.0" name="top"/>
  <outline>
    <contour>
      <point x="177.3586956521739" y="-494.21739130434787" type="curve" smooth="yes"/>
      <point x="620.6739130434784" y="-494.21739130434787"/>
      <point x="894.0760869565217" y="-231.19565217391303"/>
      <point x="894.0760869565217" y="125.84782608695652" type="curve" smooth="yes"/>
      <point x="894.0760869565217" y="332.6413043478261"/>
      <point x="774.4347826086956" y="464.1630434782609"/>
      <point x="537.4891304347826" y="464.1630434782609" type="curve" smooth="yes"/>
      <point x="520.6521739130436" y="464.1630434782609"/>
      <point x="499.3913043478261" y="463.1630434782609"/>
      <point x="480.92391304347825" y="461.5326086956522" type="curve"/>
      <point x="1031.9782608695652" y="1080.108695652174" type="line"/>
      <point x="984.8804347826087" y="1129.836956521739" type="line"/>
      <point x="955.4565217391304" y="1105.836956521739"/>
      <point x="922.5652173913044" y="1099.945652173913"/>
      <point x="885.891304347826" y="1099.945652173913" type="curve" smooth="yes"/>
      <point x="753.7826086956522" y="1099.945652173913"/>
      <point x="425.7065217391304" y="1131.2065217391305"/>
      <point x="273.77173913043475" y="1131.2065217391305" type="curve" smooth="yes"/>
      <point x="192.2173913043478" y="1131.2065217391305"/>
      <point x="165.43478260869566" y="1121.3152173913043"/>
      <point x="150.06521739130434" y="1110.5760869565217" type="curve" smooth="yes"/>
      <point x="90.0217391304348" y="1069.6304347826087"/>
      <point x="70.28260869565217" y="859.9673913043479"/>
      <point x="79.27173913043478" y="764.5652173913044" type="curve"/>
      <point x="150.57608695652175" y="764.5652173913044" type="line"/>
      <point x="156.57608695652175" y="856.4673913043478"/>
      <point x="205.98913043478262" y="948.804347826087"/>
      <point x="291.1847826086956" y="948.8043478260869" type="curve" smooth="yes"/>
      <point x="360.04347826086956" y="948.8043478260869"/>
      <point x="478.70652173913044" y="948.1739130434783"/>
      <point x="759.3804347826087" y="944.0652173913044" type="curve"/>
      <point x="627.4456521739131" y="820.2173913043479" type="line"/>
      <point x="270.7173913043478" y="417.17391304347825" type="line"/>
      <point x="316.48913043478257" y="355.554347826087" type="line"/>
      <point x="356.22826086956525" y="368.70652173913044"/>
      <point x="386.0652173913043" y="374.59782608695656"/>
      <point x="426.9673913043478" y="374.59782608695656" type="curve" smooth="yes"/>
      <point x="596.9130434782608" y="374.59782608695656"/>
      <point x="665.5869565217391" y="251.61956521739128"/>
      <point x="665.5869565217391" y="122.52173913043478" type="curve" smooth="yes"/>
      <point x="665.5869565217391" y="-158.6195652173913"/>
      <point x="480.95652173913044" y="-382.6195652173913"/>
      <point x="173.89130434782606" y="-382.6195652173913" type="curve" smooth="yes"/>
      <point x="75.96739130434783" y="-382.6195652173913"/>
      <point x="10.434782608695652" y="-371.30434782608694"/>
      <point x="-58.30434782608695" y="-347.3586956521739" type="curve"/>
      <point x="-72.82608695652173" y="-457.75" type="line"/>
      <point x="0.18478260869565055" y="-479.75"/>
      <point x="76.59782608695652" y="-494.21739130434787"/>
    </contour>
  </outline>
</glyph>
<glyph name="ringhalfright" format="2">
  <advance width="310.3804347826087"/>
  <unicode hex="02BE"/>
  <anchor x="86.68478260869566" y="1110.0" name="_top"/>
  <anchor x="177.31521739130434" y="1745.25" name="top"/>
  <outline>
    <contour>
      <point x="113.42391304347827" y="1308.9673913043478" type="line"/>
      <point x="276.1847826086956" y="1308.9673913043478"/>
      <point x="440.0652173913044" y="1398.0652173913043"/>
      <point x="440.0652173913044" y="1594.108695652174" type="curve" smooth="yes"/>
      <point x="440.0652173913044" y="1714.2391304347825"/>
      <point x="338.6195652173913" y="1809.5"/>
      <point x="183.83695652173913" y="1809.5" type="curve"/>
      <point x="169.31521739130434" y="1710.108695652174" type="line"/>
      <point x="247.27173913043478" y="1709.4782608695652"/>
      <point x="301.3152173913044" y="1663.891304347826"/>
      <point x="301.3152173913044" y="1573.9565217391305" type="curve" smooth="yes"/>
      <point x="301.3152173913044" y="1452.7391304347825"/>
      <point x="211.47826086956522" y="1412.0434782608695"/>
      <point x="127.94565217391305" y="1412.0434782608695" type="curve"/>
    </contour>
  </outline>
</glyph>
<glyph name="caron" format="2">
  <advance width="960.9673913043479"/>
  <unicode hex="02C7"/>
  <anchor x="544.5434782608695" y="1110.0" name="_top"/>
  <anchor x="613.0652173913043" y="1597.5" name="top"/>
  <outline>
    <contour>
      <point x="312.5217391304348" y="1641.9673913043478" type="line"/>
      <point x="509.34782608695656" y="1273.5326086956522" type="line"/>
      <point x="650.2173913043478" y="1273.5326086956522" type="line"/>
      <point x="944.8043478260869" y="1635.1195652173913" type="line"/>
      <point x="871.1521739130435" y="1684.2717391304348" type="line"/>
      <point x="770.2608695652174" y="1598.108695652174"/>
      <point x="694.0108695652174" y="1509.7934782608695"/>
      <point x="596.0108695652174" y="1423.0" type="curve"/>
      <point x="526.4347826086956" y="1510.108695652174"/>
      <point x="458.804347826087" y="1598.108695652174"/>
      <point x="392.1195652173913" y="1684.2717391304348" type="curve"/>
    </contour>
  </outline>
</glyph>
<glyph name="ring" format="2">
  <advance width="896.5869565217391"/>
  <unicode hex="02DA"/>
  <anchor x="529.9565217391305" y="1110.0" name="_top"/>
  <anchor x="829.4673913043479" y="1424.0" name="top"/>
  <outline>
    <contour>
      <point x="551.2717391304348" y="1255.5869565217392" type="curve" smooth="yes"/>
      <point x="706.8695652173913" y="1255.5869565217392"/>
      <point x="864.2173913043479" y="1343.3695652173913"/>
      <point x="864.2173913043479" y="1540.4130434782608" type="curve" smooth="yes"/>
      <point x="864.2173913043479" y="1657.0217391304348"/>
      <point x="766.4565217391305" y="1754.804347826087"/>
      <point x="612.945652173913" y="1754.804347826087" type="curve" smooth="yes"/>
      <point x="467.5978260869565" y="1754.804347826087"/>
      <point x="293.2608695652174" y="1678.1739130434783"/>
      <point x="293.2608695652174" y="1477.5652173913043" type="curve" smooth="yes"/>
      <point x="293.2608695652174" y="1350.2173913043478"/>
      <point x="387.8695652173913" y="1255.5869565217392"/>
    </contour>
    <contour>
      <point x="561.0" y="1357.9782608695652" type="curve" smooth="yes"/>
      <point x="486.72826086956525" y="1357.9782608695652"/>
      <point x="427.1630434782609" y="1419.2391304347825"/>
      <point x="427.1630434782609" y="1492.7173913043478" type="curve" smooth="yes"/>
      <point x="427.1630434782609" y="1608.304347826087"/>
      <point x="517.6847826086956" y="1656.4130434782608"/>
      <point x="599.2173913043479" y="1656.4130434782608" type="curve" smooth="yes"/>
      <point x="673.3804347826087" y="1656.4130434782608"/>
      <point x="730.945652173913" y="1610.8260869565217"/>
      <point x="730.945652173913" y="1519.2608695652175" type="curve" smooth="yes"/>
      <point x="730.945652173913" y="1399.0434782608695"/>
      <point x="641.7934782608696" y="1357.9782608695652"/>
    </contour>
  </outline>
</glyph>
<glyph name="ogonek" format="2">
  <advance width="770.4347826086956"/>
  <unicode hex="02DB"/>
  <anchor x="347.3804347826087" y="0.0" name="_ogonek"/>
  <outline>
    <contour>
      <point x="225.81521739130437" y="-413.95652173913044" type="curve" smooth="yes"/>
      <point x="341.8260869565217" y="-415.32608695652175"/>
      <point x="434.54347826086956" y="-357.92391304347825"/>
      <point x="488.804347826087" y="-306.04347826086956" type="curve"/>
      <point x="462.3913043478261" y="-224.75" type="line"/>
      <point x="411.9782608695652" y="-264.69565217391306"/>
      <point x="361.76086956521743" y="-288.9021739130435"/>
      <point x="307.5" y="-288.9021739130435" type="curve" smooth="yes"/>
      <point x="267.1847826086956" y="-288.9021739130435"/>
      <point x="243.66304347826087" y="-270.10869565217394"/>
      <point x="243.97826086956522" y="-220.95652173913044" type="curve" smooth="yes"/>
      <point x="244.29347826086956" y="-132.52173913043478"/>
      <point x="331.6195652173913" y="-53.53260869565217"/>
      <point x="428.5326086956522" y="15.771739130434783" type="curve"/>
      <point x="388.6195652173913" y="50.46739130434783" type="line"/>
      <point x="336.1521739130435" y="27.934782608695652" type="line"/>
      <point x="211.9673913043478" y="-38.32608695652174"/>
      <point x="51.47826086956521" y="-124.30434782608695"/>
      <point x="51.47826086956521" y="-280.2826086956522" type="curve" smooth="yes"/>
      <point x="51.47826086956521" y="-353.4347826086956"/>
      <point x="109.31521739130434" y="-412.5869565217391"/>
    </contour>
  </outline>
</glyph>
<glyph name="tilde" format="2">
  <advance width="1009.6413043478261"/>
  <unicode hex="02DC"/>
  <anchor x="591.6304347826087" y="1110.0" name="_top"/>
  <anchor x="657.4782608695652" y="1497.4239130434783" name="top"/>
  <outline>
    <contour>
      <point x="276.1086956521739" y="1369.0869565217392" type="curve"/>
      <point x="357.9021739130435" y="1307.391304347826" type="line"/>
      <point x="396.0652173913044" y="1358.9565217391305"/>
      <point x="434.69565217391306" y="1392.108695652174"/>
      <point x="490.2173913043478" y="1392.108695652174" type="curve" smooth="yes"/>
      <point x="590.9021739130435" y="1392.108695652174"/>
      <point x="608.4239130434783" y="1275.695652173913"/>
      <point x="750.6304347826087" y="1275.695652173913" type="curve" smooth="yes"/>
      <point x="864.4347826086956" y="1275.695652173913"/>
      <point x="948.9347826086956" y="1359.9782608695652"/>
      <point x="966.7391304347826" y="1444.5652173913043" type="curve"/>
      <point x="885.6847826086956" y="1505.6304347826087" type="line"/>
      <point x="855.6847826086956" y="1459.5434782608695"/>
      <point x="810.1521739130435" y="1424.695652173913"/>
      <point x="752.0" y="1424.695652173913" type="curve" smooth="yes"/>
      <point x="668.1521739130435" y="1424.695652173913"/>
      <point x="652.054347826087" y="1540.4782608695652"/>
      <point x="495.1630434782609" y="1540.4782608695652" type="curve" smooth="yes"/>
      <point x="400.88043478260875" y="1540.4782608695652"/>
      <point x="300.7608695652174" y="1476.9347826086957"/>
    </contour>
  </outline>
</glyph>
<glyph name="hungarumlaut" format="2">
  <advance width="1218.8152173913043"/>
  <unicode hex="02DD"/>
  <anchor x="560.6847826086956" y="1110.0" name="_top"/>
  <outline>
    <contour>
      <point x="268.2608695652174" y="1315.4565217391305" type="line"/>
      <point x="337.9673913043478" y="1253.3695652173913" type="line"/>
      <point x="450.1847826086957" y="1313.695652173913"/>
      <point x="691.0434782608695" y="1537.5652173913043"/>
      <point x="733.1521739130435" y="1638.195652173913" type="curve"/>
      <point x="589.5108695652175" y="1732.5869565217392" type="line"/>
    </contour>
    <contour>
      <point x="722.4347826086956" y="1315.4565217391305" type="line"/>
      <point x="794.195652173913" y="1253.3695652173913" type="line"/>
      <point x="891.2934782608696" y="1306.8478260869565"/>
      <point x="1154.967391304348" y="1524.9347826086957"/>
      <point x="1201.7608695652175" y="1630.304347826087" type="curve"/>
      <point x="1054.695652173913" y="1728.1739130434783" type="line"/>
    </contour>
  </outline>
</glyph>
<glyph name="gravecomb" format="2">
  <unicode hex="0300"/>
  <anchor x="446.2826086956522" y="1108.6304347826087" name="_top"/>
  <anchor x="524.2282608695652" y="1670.8695652173913" name="top"/>
  <outline>
    <contour>
      <point x="504.57608695652175" y="1258.3152173913043" type="curve"/>
      <point x="565.6630434782609" y="1317.141304347826" type="line"/>
      <point x="294.1630434782609" y="1725.641304347826" type="line"/>
      <point x="153.6304347826087" y="1599.4673913043478" type="line"/>
      <point x="206.72826086956522" y="1503.7934782608695"/>
      <point x="421.8369565217391" y="1307.3804347826087"/>
    </contour>
  </outline>
</glyph>
<glyph name="acutecomb" format="2">
  <unicode hex="0301"/>
  <anchor x="226.93478260869566" y="1110.0" name="_top"/>
  <anchor x="174.9891304347826" y="1544.0217391304348" name="top"/>
  <outline>
    <contour>
      <point x="114.94565217391305" y="1310.0326086956522" type="line"/>
      <point x="176.40217391304347" y="1259.0" type="line"/>
      <point x="289.6630434782609" y="1317.3260869565217"/>
      <point x="535.0434782608695" y="1529.0978260869565"/>
      <point x="571.0434782608695" y="1583.9565217391305" type="curve"/>
      <point x="418.2282608695652" y="1718.3804347826087" type="line"/>
    </contour>
  </outline>
</glyph>
<glyph name="hookabovecomb" format="2">
  <unicode hex="0309"/>
  <anchor x="212.1195652173913" y="1110.0" name="_top"/>
  <anchor x="304.17391304347825" y="1724.0" name="top"/>
  <outline>
    <contour>
      <point x="179.56521739130434" y="1236.4239130434783" type="curve"/>
      <point x="269.47826086956525" y="1248.4239130434783" type="line"/>
      <point x="266.84782608695656" y="1289.0434782608695"/>
      <point x="283.05434782608694" y="1309.6739130434783"/>
      <point x="306.2608695652174" y="1325.5652173913043" type="curve" smooth="yes"/>
      <point x="368.84782608695656" y="1367.6739130434783"/>
      <point x="469.96739130434787" y="1404.7717391304348"/>
      <point x="489.0217391304348" y="1500.4130434782608" type="curve" smooth="yes"/>
      <point x="516.8586956521739" y="1638.7065217391303"/>
      <point x="412.42391304347825" y="1711.336956521739"/>
      <point x="261.42391304347825" y="1711.336956521739" type="curve" smooth="yes"/>
      <point x="237.68478260869563" y="1711.336956521739"/>
      <point x="177.09782608695653" y="1703.9673913043478"/>
      <point x="170.46739130434784" y="1697.9130434782608" type="curve"/>
      <point x="148.05434782608694" y="1562.641304347826" type="line"/>
      <point x="159.1086956521739" y="1568.0108695652173"/>
      <point x="200.58695652173913" y="1568.695652173913"/>
      <point x="218.64130434782606" y="1568.0108695652173" type="curve" smooth="yes"/>
      <point x="298.8586956521739" y="1565.2717391304348"/>
      <point x="325.3369565217391" y="1521.6847826086957"/>
      <point x="316.4347826086956" y="1478.5760869565217" type="curve" smooth="yes"/>
      <point x="314.3804347826087" y="1469.836956521739" type="line"/>
      <point x="284.64130434782606" y="1399.6304347826085"/>
      <point x="166.52173913043478" y="1391.945652173913"/>
      <point x="152.83695652173913" y="1322.4130434782608" type="curve"/>
      <point x="148.83695652173913" y="1293.945652173913"/>
      <point x="166.56521739130434" y="1254.532608695652"/>
    </contour>
  </outline>
</glyph>
<glyph name="hungarumlautcomb" format="2">
  <unicode hex="030B"/>
  <anchor x="406.6847826086956" y="1110.0" name="_top"/>
  <outline>
    <contour>
      <point x="114.26086956521739" y="1315.4565217391305" type="line"/>
      <point x="183.96739130434784" y="1253.3695652173913" type="line"/>
      <point x="296.1847826086957" y="1313.695652173913"/>
      <point x="537.0434782608695" y="1537.5652173913043"/>
      <point x="579.1521739130435" y="1638.195652173913" type="curve"/>
      <point x="435.5108695652174" y="1732.5869565217392" type="line"/>
    </contour>
    <contour>
      <point x="568.4347826086956" y="1315.4565217391305" type="line"/>
      <point x="640.195652173913" y="1253.3695652173913" type="line"/>
      <point x="737.2934782608696" y="1306.8478260869565"/>
      <point x="1000.9673913043479" y="1524.9347826086957"/>
      <point x="1047.7608695652175" y="1630.304347826087" type="curve"/>
      <point x="900.6956521739131" y="1728.1739130434783" type="line"/>
    </contour>
  </outline>
</glyph>
<glyph name="caroncomb" format="2">
  <unicode hex="030C"/>
  <anchor x="390.54347826086956" y="1110.0" name="_top"/>
  <anchor x="459.0652173913044" y="1597.5" name="top"/>
  <outline>
    <contour>
      <point x="158.52173913043478" y="1641.9673913043478" type="line"/>
      <point x="355.34782608695656" y="1273.5326086956522" type="line"/>
      <point x="496.21739130434787" y="1273.5326086956522" type="line"/>
      <point x="790.8043478260869" y="1635.1195652173913" type="line"/>
      <point x="717.1521739130435" y="1684.2717391304348" type="line"/>
      <point x="616.2608695652174" y="1598.108695652174"/>
      <point x="540.0108695652174" y="1509.7934782608695"/>
      <point x="442.01086956521743" y="1423.0" type="curve"/>
      <point x="372.4347826086957" y="1510.108695652174"/>
      <point x="304.804347826087" y="1598.108695652174"/>
      <point x="238.11956521739128" y="1684.2717391304348" type="curve"/>
    </contour>
  </outline>
</glyph>
<glyph name="commaaccentcomb" format="2">
  <unicode hex="0326"/>
  <anchor x="77.65217391304348" y="0.0" name="_bottom"/>
  <outline>
    <contour>
      <point x="-88.84782608695652" y="-523.8804347826087" type="line"/>
      <point x="-0.3478260869565215" y="-560.2934782608696" type="line"/>
      <point x="70.06521739130434" y="-541.6630434782609"/>
      <point x="181.0978260869565" y="-446.4673913043478"/>
      <point x="175.30434782608694" y="-301.14130434782606" type="curve" smooth="yes"/>
      <point x="172.56521739130434" y="-220.67391304347825"/>
      <point x="140.67391304347825" y="-132.67391304347828"/>
      <point x="56.83695652173913" y="-101.83695652173913" type="curve"/>
      <point x="-89.26086956521739" y="-172.5108695652174" type="line"/>
      <point x="-89.26086956521739" y="-233.6521739130435" type="line"/>
      <point x="-47.57608695652174" y="-245.5"/>
      <point x="-23.043478260869566" y="-291.6630434782609"/>
      <point x="-22.41304347826087" y="-341.25" type="curve" smooth="yes"/>
      <point x="-21.15217391304348" y="-415.8369565217391"/>
      <point x="-47.78260869565217" y="-475.60869565217394"/>
      <point x="-88.21739130434783" y="-503.304347826087" type="curve"/>
    </contour>
  </outline>
</glyph>
<glyph name="ogonekcomb" format="2">
  <unicode hex="0328"/>
  <anchor x="193.3804347826087" y="0.0" name="_ogonek"/>
  <outline>
    <contour>
      <point x="80.03260869565217" y="-413.95652173913044" type="curve" smooth="yes"/>
      <point x="196.04347826086956" y="-415.32608695652175"/>
      <point x="288.07608695652175" y="-359.9782608695652"/>
      <point x="345.76086956521743" y="-306.04347826086956" type="curve"/>
      <point x="320.7173913043478" y="-224.75" type="line"/>
      <point x="253.8695652173913" y="-270.85869565217394"/>
      <point x="207.76086956521738" y="-288.9021739130435"/>
      <point x="164.45652173913044" y="-288.9021739130435" type="curve" smooth="yes"/>
      <point x="113.18478260869566" y="-288.9021739130435"/>
      <point x="91.03260869565217" y="-264.6304347826087"/>
      <point x="91.34782608695652" y="-218.21739130434784" type="curve" smooth="yes"/>
      <point x="91.66304347826086" y="-129.7826086956522"/>
      <point x="170.77173913043478" y="-55.42391304347826"/>
      <point x="270.42391304347825" y="13.880434782608695" type="curve"/>
      <point x="231.8804347826087" y="48.57608695652174" type="line"/>
      <point x="183.52173913043478" y="21.934782608695652" type="line"/>
      <point x="48.380434782608695" y="-44.326086956521735"/>
      <point x="-88.82608695652175" y="-148.27173913043478"/>
      <point x="-88.82608695652175" y="-276.17391304347825" type="curve" smooth="yes"/>
      <point x="-88.82608695652175" y="-350.0108695652174"/>
      <point x="-35.09782608695652" y="-412.5869565217391"/>
    </contour>
  </outline>
</glyph>
<glyph name="strokeshortcomb" format="2">
  <unicode hex="0335"/>
  <anchor x="253.38043478260872" y="557.054347826087" name="_bar"/>
  <anchor x="388.02173913043475" y="558.7391304347826" name="_center"/>
  <outline>
    <contour>
      <point x="2.4239130434782608" y="502.3804347826087" type="line"/>
      <point x="747.8586956521739" y="502.3804347826087" type="line"/>
      <point x="764.3804347826087" y="620.3586956521739" type="line"/>
      <point x="19.57608695652174" y="620.3586956521739" type="line"/>
    </contour>
  </outline>
</glyph>
<glyph name="slashshortcomb" format="2">
  <unicode hex="0337"/>
  <anchor x="347.1195652173913" y="743.0" name="_center"/>
  <outline>
    <contour>
      <point x="77.8804347826087" y="663.9347826086956" type="line"/>
      <point x="313.2717391304348" y="758.9239130434783" type="line"/>
      <point x="396.97826086956525" y="792.5434782608695" type="line"/>
      <point x="944.7608695652174" y="1014.5652173913044" type="line"/>
      <point x="903.0869565217391" y="1132.0" type="line"/>
      <point x="410.15217391304344" y="926.7173913043479" type="line"/>
      <point x="327.8478260869565" y="893.1956521739131" type="line"/>
      <point x="39.684782608695656" y="774.1086956521739" type="line"/>
    </contour>
  </outline>
</glyph>
<glyph name="Delta" format="2">
  <advance width="1479.7608695652175"/>
  <unicode hex="0394"/>
  <outline>
    <contour>
      <point x="-18.42391304347826" y="0.0" type="line"/>
      <point x="1358.6413043478262" y="0.0" type="line"/>
      <point x="1377.5326086956522" y="30.097826086956523" type="line"/>
      <point x="892.9347826086956" y="1491.6304347826087" type="line"/>
      <point x="833.0869565217391" y="1491.6304347826087" type="line"/>
      <point x="-35.20652173913044" y="28.934782608695652" type="line"/>
    </contour>
    <contour>
      <point x="789.0" y="1165.1739130434783" type="line"/>
      <point x="839.5760869565217" y="1001.25" type="line"/>
      <point x="1136.2826086956522" y="67.48913043478261" type="line"/>
      <point x="1181.6195652173913" y="143.1086956521739" type="line"/>
      <point x="82.36956521739131" y="143.1086956521739" type="line"/>
      <point x="140.8695652173913" y="71.43478260869566" type="line"/>
      <point x="695.6413043478261" y="996.1413043478261" type="line"/>
    </contour>
  </outline>
</glyph>
<glyph name="pi" format="2">
  <advance width="1513.7717391304348"/>
  <unicode hex="03C0"/>
  <outline>
    <contour>
      <point x="197.6413043478261" y="-17.26086956521739" type="line"/>
      <point x="372.9130434782609" y="0.8586956521739122"/>
      <point x="516.3478260869565" y="90.1086956521739"/>
      <point x="579.7717391304348" y="428.04347826086956" type="curve" smooth="yes"/>
      <point x="676.4239130434783" y="923.7282608695652" type="line"/>
      <point x="971.1195652173913" y="923.7282608695652" type="line"/>
      <point x="890.2608695652174" y="479.8369565217391"/>
      <point x="850.6413043478261" y="302.0"/>
      <point x="839.054347826087" y="171.5" type="curve"/>
      <point x="836.3152173913044" y="55.09782608695652"/>
      <point x="908.2934782608695" y="-17.26086956521739"/>
      <point x="1037.4239130434783" y="-17.26086956521739" type="curve" smooth="yes"/>
      <point x="1269.9130434782608" y="-17.26086956521739"/>
      <point x="1401.8152173913045" y="162.67391304347825"/>
      <point x="1437.2391304347827" y="322.79347826086956" type="curve"/>
      <point x="1309.4239130434785" y="322.79347826086956" type="line"/>
      <point x="1272.163043478261" y="199.3804347826087"/>
      <point x="1180.195652173913" y="150.72826086956522"/>
      <point x="1113.391304347826" y="150.72826086956522" type="curve" smooth="yes"/>
      <point x="1066.25" y="151.3586956521739"/>
      <point x="1037.1847826086957" y="188.97826086956522"/>
      <point x="1041.8695652173913" y="252.45652173913044" type="curve"/>
      <point x="1051.9782608695652" y="344.85869565217394"/>
      <point x="1077.8260869565217" y="444.1630434782609"/>
      <point x="1140.804347826087" y="923.7282608695652" type="curve"/>
      <point x="1216.913043478261" y="923.7282608695652" type="line" smooth="yes"/>
      <point x="1395.1630434782608" y="923.7282608695652"/>
      <point x="1495.195652173913" y="1032.7391304347825"/>
      <point x="1515.3695652173915" y="1209.0978260869565" type="curve"/>
      <point x="1388.6630434782608" y="1209.0978260869565" type="line"/>
      <point x="1359.5978260869565" y="1131.0978260869565"/>
      <point x="1310.445652173913" y="1109.3695652173913"/>
      <point x="1198.1739130434783" y="1109.3695652173913" type="curve" smooth="yes"/>
      <point x="448.3695652173913" y="1109.6847826086957" type="line" smooth="yes"/>
      <point x="250.23913043478257" y="1110.0"/>
      <point x="94.27173913043478" y="993.0434782608695"/>
      <point x="94.27173913043478" y="800.2934782608695" type="curve"/>
      <point x="210.30434782608697" y="787.6086956521739" type="line"/>
      <point x="229.6195652173913" y="849.6086956521739"/>
      <point x="307.32608695652175" y="924.0434782608695"/>
      <point x="413.304347826087" y="923.7282608695652" type="curve" smooth="yes"/>
      <point x="513.695652173913" y="923.7282608695652" type="line"/>
      <point x="393.3152173913043" y="477.14130434782606" type="line"/>
      <point x="340.0652173913043" y="285.8369565217391"/>
      <point x="276.55434782608694" y="156.40217391304347"/>
      <point x="60.65217391304348" y="112.21739130434783" type="curve"/>
    </contour>
  </outline>
</glyph>
<glyph name="Dje-cy" format="2">
  <advance width="1679.8913043478262"/>
  <unicode hex="0402"/>
  <outline>
    <contour>
      <point x="270.89130434782606" y="0.0" type="line"/>
      <point x="968.5434782608695" y="0.0" type="line"/>
      <point x="975.1195652173914" y="84.19565217391305" type="line"/>
      <point x="753.9565217391304" y="105.34782608695652" type="line"/>
      <point x="827.4891304347825" y="658.6521739130435" type="line"/>
      <point x="891.2934782608696" y="682.6521739130435"/>
      <point x="1003.0108695652174" y="728.8695652173913"/>
      <point x="1131.054347826087" y="728.8695652173913" type="curve" smooth="yes"/>
      <point x="1343.5978260869565" y="728.8695652173913"/>
      <point x="1398.1195652173913" y="610.1086956521739"/>
      <point x="1398.1195652173913" y="434.95652173913044" type="curve" smooth="yes"/>
      <point x="1398.1195652173913" y="309.26086956521743"/>
      <point x="1332.5108695652173" y="117.40217391304348"/>
      <point x="1189.5108695652175" y="91.45652173913044" type="curve" smooth="yes"/>
      <point x="1163.4021739130437" y="86.19565217391305"/>
      <point x="1116.2500000000002" y="82.82608695652173"/>
      <point x="1100.2500000000002" y="84.82608695652173" type="curve"/>
      <point x="1093.6195652173913" y="0.0" type="line"/>
      <point x="1109.6195652173913" y="-2.0"/>
      <point x="1136.9891304347825" y="-4.0"/>
      <point x="1163.6195652173915" y="-4.0" type="curve" smooth="yes"/>
      <point x="1445.6195652173915" y="-4.0"/>
      <point x="1614.141304347826" y="292.0"/>
      <point x="1614.141304347826" y="498.0" type="curve" smooth="yes"/>
      <point x="1614.141304347826" y="634.0"/>
      <point x="1565.6195652173913" y="850.0"/>
      <point x="1239.6195652173913" y="850.0" type="curve" smooth="yes"/>
      <point x="1062.304347826087" y="850.0"/>
      <point x="922.2282608695652" y="794.5760869565217"/>
      <point x="840.695652173913" y="758.5760869565217" type="curve"/>
      <point x="924.8043478260869" y="1391.1739130434783" type="line"/>
      <point x="1315.2065217391305" y="1372.0217391304348" type="line"/>
      <point x="1326.771739130435" y="1037.4782608695652" type="line"/>
      <point x="1443.25" y="1038.8478260869565" type="line"/>
      <point x="1493.3369565217392" y="1486.0" type="line"/>
      <point x="197.25" y="1486.0" type="line"/>
      <point x="117.0" y="1038.2173913043478" type="line"/>
      <point x="238.79347826086956" y="1039.5869565217392" type="line"/>
      <point x="348.1195652173913" y="1372.0217391304348" type="line"/>
      <point x="707.3260869565217" y="1391.1739130434783" type="line"/>
      <point x="537.8478260869565" y="105.34782608695652" type="line"/>
      <point x="277.3586956521739" y="84.19565217391305" type="line"/>
    </contour>
  </outline>
</glyph>
<glyph name="Nje-cy" format="2">
  <advance width="2207.7934782608695"/>
  <unicode hex="040A"/>
  <outline>
    <contour>
      <point x="-3.891304347826088" y="5.551115123125783e-17" type="line"/>
      <point x="540.4891304347825" y="5.551115123125783e-17" type="line"/>
      <point x="549.8586956521739" y="86.93478260869566" type="line"/>
      <point x="376.4347826086956" y="112.19565217391305" type="line"/>
      <point x="546.1739130434783" y="1376.2282608695652" type="line"/>
      <point x="719.1195652173913" y="1397.4891304347825" type="line"/>
      <point x="729.75" y="1486.0" type="line"/>
      <point x="191.38043478260872" y="1486.0" type="line"/>
      <point x="180.1195652173913" y="1397.4891304347825" type="line"/>
      <point x="326.22826086956525" y="1376.2282608695652" type="line"/>
      <point x="156.4891304347826" y="112.19565217391305" type="line"/>
      <point x="6.108695652173914" y="86.93478260869566" type="line"/>
    </contour>
    <contour>
      <point x="427.1413043478261" y="700.3260869565217" type="line"/>
      <point x="1244.3369565217392" y="700.3260869565217" type="line"/>
      <point x="1243.6521739130435" y="814.4130434782609" type="line"/>
      <point x="425.77173913043475" y="814.4130434782609" type="line"/>
    </contour>
    <contour>
      <point x="1502.858695652174" y="-10.0" type="curve" smooth="yes"/>
      <point x="1974.336956521739" y="-10.0"/>
      <point x="2181.4347826086955" y="240.23913043478262"/>
      <point x="2181.4347826086955" y="524.4673913043478" type="curve" smooth="yes"/>
      <point x="2181.4347826086955" y="784.7282608695652"/>
      <point x="2005.608695652174" y="922.4239130434783"/>
      <point x="1659.0108695652175" y="922.4239130434783" type="curve" smooth="yes"/>
      <point x="1551.8152173913043" y="922.4239130434783"/>
      <point x="1464.7608695652175" y="909.5326086956522"/>
      <point x="1399.2282608695652" y="892.5326086956522" type="curve"/>
      <point x="1385.967391304348" y="789.5" type="line"/>
      <point x="1444.141304347826" y="799.554347826087"/>
      <point x="1520.0" y="813.3478260869565"/>
      <point x="1604.663043478261" y="813.3478260869565" type="curve" smooth="yes"/>
      <point x="1850.0" y="813.3478260869565"/>
      <point x="1952.0108695652175" y="712.2391304347826"/>
      <point x="1952.0108695652175" y="505.3695652173913" type="curve" smooth="yes"/>
      <point x="1952.0108695652175" y="274.0"/>
      <point x="1828.7065217391305" y="88.25"/>
      <point x="1479.858695652174" y="88.25" type="curve" smooth="yes"/>
      <point x="1420.4239130434783" y="88.25"/>
      <point x="1357.086956521739" y="93.93478260869566"/>
      <point x="1307.1195652173913" y="102.98913043478261" type="curve"/>
      <point x="1480.9130434782608" y="1377.5978260869565" type="line"/>
      <point x="1645.641304347826" y="1398.5434782608695" type="line"/>
      <point x="1654.9021739130435" y="1486.0" type="line"/>
      <point x="1110.3695652173913" y="1486.0" type="line"/>
      <point x="1099.7934782608697" y="1398.8586956521738" type="line"/>
      <point x="1259.5978260869565" y="1377.5978260869565" type="line"/>
      <point x="1087.804347826087" y="108.08695652173913" type="line"/>
      <point x="945.6413043478261" y="85.56521739130434" type="line"/>
      <point x="934.9565217391304" y="0.0" type="line"/>
      <point x="1187.6304347826087" y="0.0" type="line" smooth="yes"/>
      <point x="1272.8369565217392" y="0.0"/>
      <point x="1411.1739130434783" y="-10.0"/>
    </contour>
  </outline>
</glyph>
<glyph name="Be-cy" format="2">
  <advance width="1346.1847826086957"/>
  <unicode hex="0411"/>
  <anchor x="607.0978260869565" y="-166.0" name="btm"/>
  <anchor x="783.0652173913044" y="1486.0" name="top"/>
  <outline>
    <contour>
      <point x="578.2934782608695" y="-13.684782608695652" type="curve" smooth="yes"/>
      <point x="1006.3695652173913" y="-13.684782608695652"/>
      <point x="1277.554347826087" y="203.60869565217394"/>
      <point x="1277.554347826087" y="534.1195652173913" type="curve" smooth="yes"/>
      <point x="1277.554347826087" y="767.9021739130435"/>
      <point x="1082.5978260869565" y="898.695652173913"/>
      <point x="735.0760869565217" y="898.695652173913" type="curve" smooth="yes"/>
      <point x="653.7065217391305" y="898.695652173913"/>
      <point x="542.4456521739131" y="882.5869565217391"/>
      <point x="496.96739130434787" y="871.9565217391305" type="curve"/>
      <point x="564.6521739130434" y="1389.1739130434783" type="line"/>
      <point x="1086.0108695652173" y="1380.2391304347827" type="line"/>
      <point x="1100.1304347826087" y="1076.6195652173913" type="line"/>
      <point x="1210.913043478261" y="1076.6195652173913" type="line"/>
      <point x="1256.6739130434783" y="1486.0" type="line"/>
      <point x="209.5978260869565" y="1486.0" type="line"/>
      <point x="197.5978260869565" y="1397.1739130434783" type="line"/>
      <point x="343.70652173913044" y="1376.5434782608695" type="line"/>
      <point x="170.8586956521739" y="105.34782608695653" type="line"/>
      <point x="13.054347826086957" y="80.08695652173913" type="line"/>
      <point x="5.054347826086956" y="0.0" type="line"/>
      <point x="257.1521739130435" y="0.0" type="line" smooth="yes"/>
      <point x="337.1521739130435" y="0.0"/>
      <point x="532.2934782608695" y="-13.684782608695652"/>
    </contour>
    <contour>
      <point x="578.2934782608695" y="85.1413043478261" type="curve" smooth="yes"/>
      <point x="487.20652173913044" y="85.1413043478261"/>
      <point x="429.92391304347825" y="93.61956521739131"/>
      <point x="387.4891304347826" y="100.35869565217392" type="curve"/>
      <point x="481.70652173913044" y="767.3478260869565" type="line"/>
      <point x="521.4021739130435" y="775.3478260869565"/>
      <point x="601.4239130434783" y="789.5652173913044"/>
      <point x="679.7717391304348" y="789.5652173913044" type="curve" smooth="yes"/>
      <point x="934.6630434782609" y="789.5652173913044"/>
      <point x="1049.445652173913" y="687.6739130434783"/>
      <point x="1049.445652173913" y="508.3369565217391" type="curve" smooth="yes"/>
      <point x="1049.445652173913" y="233.56521739130432"/>
      <point x="882.7282608695651" y="85.1413043478261"/>
    </contour>
  </outline>
</glyph>
<glyph name="De-cy" format="2">
  <advance width="1460.2282608695652"/>
  <unicode hex="0414"/>
  <outline>
    <contour>
      <point x="-125.35869565217392" y="-374.5" type="curve"/>
      <point x="-14.543478260869565" y="-374.5" type="line"/>
      <point x="14.91304347826087" y="-300.79347826086956"/>
      <point x="108.79347826086956" y="-48.90217391304348"/>
      <point x="128.05434782608697" y="0.0" type="curve"/>
      <point x="1175.2934782608697" y="0.0" type="line"/>
      <point x="1164.9673913043478" y="-109.59782608695652"/>
      <point x="1146.7065217391305" y="-264.5869565217391"/>
      <point x="1133.858695652174" y="-374.5" type="curve"/>
      <point x="1256.2391304347827" y="-374.5" type="line"/>
      <point x="1282.0760869565217" y="-292.7282608695652"/>
      <point x="1339.5434782608697" y="-99.2608695652174"/>
      <point x="1377.913043478261" y="114.19565217391303" type="curve"/>
      <point x="1172.9239130434783" y="114.19565217391303" type="line"/>
      <point x="1354.195652173913" y="1376.2282608695652" type="line"/>
      <point x="1496.086956521739" y="1397.4891304347827" type="line"/>
      <point x="1505.0326086956522" y="1486.0" type="line"/>
      <point x="344.76086956521743" y="1486.0" type="line"/>
      <point x="333.5" y="1397.4891304347827" type="line"/>
      <point x="531.1739130434783" y="1375.5978260869565" type="line"/>
      <point x="505.9130434782608" y="1212.5760869565217" type="line" smooth="yes"/>
      <point x="396.05434782608694" y="515.4239130434783"/>
      <point x="168.68478260869566" y="186.30434782608697"/>
      <point x="96.46739130434783" y="114.19565217391303" type="curve"/>
      <point x="-33.20652173913044" y="114.19565217391303" type="line"/>
      <point x="-54.47826086956522" y="2.413043478260874"/>
      <point x="-96.20652173913044" y="-210.90217391304347"/>
    </contour>
    <contour>
      <point x="270.65217391304344" y="114.19565217391303" type="line"/>
      <point x="342.02173913043475" y="202.93478260869566"/>
      <point x="541.5652173913043" y="605.0543478260869"/>
      <point x="634.0" y="1200.891304347826" type="curve" smooth="yes"/>
      <point x="661.5760869565217" y="1380.1739130434783" type="line"/>
      <point x="1133.358695652174" y="1380.1739130434783" type="line"/>
      <point x="952.9239130434783" y="114.19565217391303" type="line"/>
    </contour>
  </outline>
</glyph>
<glyph name="Ze-cy" format="2">
  <advance width="1205.5434782608695"/>
  <unicode hex="0417"/>
  <anchor x="491.7608695652174" y="0.0" name="bottom"/>
  <anchor x="662.2826086956521" y="1486.0" name="top"/>
  <outline>
    <contour>
      <point x="441.52173913043475" y="-16.630434782608695" type="curve" smooth="yes"/>
      <point x="853.4673913043479" y="-16.630434782608695"/>
      <point x="1126.2608695652173" y="151.57608695652175"/>
      <point x="1126.2608695652173" y="452.0652173913044" type="curve" smooth="yes"/>
      <point x="1126.2608695652173" y="645.8804347826087"/>
      <point x="981.1521739130435" y="760.4673913043478"/>
      <point x="744.1630434782609" y="775.6847826086956" type="curve"/>
      <point x="979.8369565217391" y="819.5978260869566"/>
      <point x="1161.532608695652" y="952.0"/>
      <point x="1161.532608695652" y="1164.695652173913" type="curve" smooth="yes"/>
      <point x="1161.532608695652" y="1364.4782608695652"/>
      <point x="994.7065217391305" y="1502.0"/>
      <point x="658.6195652173914" y="1502.0" type="curve" smooth="yes"/>
      <point x="463.17391304347825" y="1502.0"/>
      <point x="356.1304347826087" y="1443.945652173913"/>
      <point x="248.94565217391303" y="1437.5760869565217" type="curve"/>
      <point x="200.58695652173913" y="1096.554347826087" type="line"/>
      <point x="337.5652173913043" y="1096.554347826087" type="line"/>
      <point x="405.3913043478261" y="1311.1847826086957" type="line"/>
      <point x="440.97826086956525" y="1361.6521739130435"/>
      <point x="513.9021739130435" y="1398.3369565217392"/>
      <point x="627.3804347826087" y="1398.3369565217392" type="curve" smooth="yes"/>
      <point x="843.7826086956521" y="1398.3369565217392"/>
      <point x="942.9021739130435" y="1300.8695652173913"/>
      <point x="942.9021739130435" y="1146.2282608695652" type="curve" smooth="yes"/>
      <point x="942.9021739130435" y="945.0760869565216"/>
      <point x="775.3369565217391" y="828.8913043478261"/>
      <point x="550.9565217391304" y="835.4673913043479" type="curve" smooth="yes"/>
      <point x="401.6521739130435" y="840.9891304347826" type="line"/>
      <point x="385.8152173913044" y="697.5978260869565" type="line"/>
      <point x="563.6956521739131" y="709.4891304347826" type="line"/>
      <point x="796.1086956521739" y="712.9130434782609"/>
      <point x="889.695652173913" y="597.2282608695652"/>
      <point x="889.695652173913" y="445.02173913043475" type="curve" smooth="yes"/>
      <point x="889.695652173913" y="216.77173913043478"/>
      <point x="740.5652173913043" y="86.77173913043478"/>
      <point x="458.70652173913044" y="86.77173913043478" type="curve" smooth="yes"/>
      <point x="325.92391304347825" y="86.77173913043478"/>
      <point x="264.59782608695656" y="113.93478260869566"/>
      <point x="211.0326086956522" y="144.23913043478262" type="curve"/>
      <point x="195.72826086956522" y="404.7608695652174" type="line"/>
      <point x="79.94565217391305" y="404.7608695652174" type="line"/>
      <point x="23.836956521739133" y="64.03260869565217" type="line"/>
      <point x="99.34782608695652" y="41.40217391304348"/>
      <point x="242.5" y="-16.630434782608695"/>
    </contour>
  </outline>
</glyph>
<glyph name="Ii-cy" format="2">
  <advance width="1597.0652173913043"/>
  <unicode hex="0418"/>
  <anchor x="1465.4565217391305" y="0.0" name="bottomright"/>
  <anchor x="921.7391304347826" y="1486.0" name="top"/>
  <outline>
    <contour>
      <point x="4.108695652173913" y="0.0" type="line"/>
      <point x="526.0" y="0.0" type="line"/>
      <point x="532.6304347826087" y="80.08695652173913" type="line"/>
      <point x="371.5869565217391" y="105.34782608695652" type="line"/>
      <point x="399.4782608695652" y="314.10869565217394" type="line"/>
      <point x="323.6630434782609" y="151.8586956521739" type="line"/>
      <point x="1088.4565217391305" y="944.2391304347826" type="line"/>
      <point x="1285.836956521739" y="1167.6630434782608" type="line"/>
      <point x="1238.641304347826" y="1193.858695652174" type="line"/>
      <point x="1093.5326086956522" y="105.34782608695652" type="line"/>
      <point x="918.858695652174" y="80.08695652173913" type="line"/>
      <point x="911.7065217391305" y="0.0" type="line"/>
      <point x="1447.6847826086955" y="0.0" type="line"/>
      <point x="1454.9456521739132" y="80.08695652173913" type="line"/>
      <point x="1308.4239130434785" y="105.34782608695652" type="line"/>
      <point x="1478.5326086956522" y="1376.5434782608695" type="line"/>
      <point x="1624.4239130434783" y="1397.1739130434783" type="line"/>
      <point x="1635.054347826087" y="1486.0" type="line"/>
      <point x="1128.7499999999998" y="1486.0" type="line"/>
      <point x="1118.858695652174" y="1397.1739130434783" type="line"/>
      <point x="1260.9565217391305" y="1376.5434782608695" type="line"/>
      <point x="1234.1739130434783" y="1172.5326086956522" type="line"/>
      <point x="1309.9347826086955" y="1334.4673913043478" type="line"/>
      <point x="530.5652173913044" y="521.4673913043479" type="line"/>
      <point x="348.02173913043475" y="308.6630434782609" type="line"/>
      <point x="395.3260869565217" y="299.04347826086956" type="line"/>
      <point x="543.0108695652174" y="1376.5434782608697" type="line"/>
      <point x="706.0" y="1397.1739130434783" type="line"/>
      <point x="717.2608695652174" y="1486.0" type="line"/>
      <point x="212.33695652173913" y="1486.0" type="line"/>
      <point x="201.70652173913044" y="1397.1739130434783" type="line"/>
      <point x="328.75" y="1376.5434782608697" type="line"/>
      <point x="155.58695652173913" y="105.34782608695652" type="line"/>
      <point x="12.108695652173914" y="80.08695652173913" type="line"/>
    </contour>
  </outline>
</glyph>
<glyph name="Che-cy" format="2">
  <advance width="1452.836956521739"/>
  <unicode hex="0427"/>
  <anchor x="732.1739130434783" y="0.0" name="bottomleft"/>
  <anchor x="1307.717391304348" y="0.0" name="bottomright"/>
  <anchor x="815.9456521739131" y="1486.0" name="top"/>
  <outline>
    <contour>
      <point x="734.4891304347825" y="0.0" type="line"/>
      <point x="1302.7717391304348" y="0.0" type="line"/>
      <point x="1314.771739130435" y="86.93478260869564" type="line"/>
      <point x="1152.7934782608695" y="112.19565217391303" type="line"/>
      <point x="1322.2173913043478" y="1377.5978260869565" type="line"/>
      <point x="1475.2934782608695" y="1397.4891304347827" type="line"/>
      <point x="1485.9239130434783" y="1486.0" type="line"/>
      <point x="962.0108695652175" y="1486.0" type="line"/>
      <point x="952.75" y="1397.4891304347827" type="line"/>
      <point x="1102.271739130435" y="1377.5978260869565" type="line"/>
      <point x="1015.8478260869565" y="743.3152173913044" type="line"/>
      <point x="954.1521739130434" y="722.8913043478261"/>
      <point x="830.6739130434783" y="699.2065217391304"/>
      <point x="708.8369565217391" y="699.2065217391304" type="curve" smooth="yes"/>
      <point x="487.01086956521743" y="699.2065217391304"/>
      <point x="434.42391304347825" y="776.804347826087"/>
      <point x="434.42391304347825" y="920.0760869565217" type="curve" smooth="yes"/>
      <point x="434.42391304347825" y="980.2282608695652"/>
      <point x="444.054347826087" y="1051.4782608695652"/>
      <point x="455.63043478260875" y="1135.141304347826" type="curve" smooth="yes"/>
      <point x="489.79347826086956" y="1376.5978260869565" type="line"/>
      <point x="648.4130434782609" y="1397.4891304347827" type="line"/>
      <point x="659.358695652174" y="1486.0" type="line"/>
      <point x="133.0" y="1486.0" type="line"/>
      <point x="122.42391304347827" y="1397.4891304347827" type="line"/>
      <point x="269.4782608695652" y="1376.913043478261" type="line"/>
      <point x="220.05434782608694" y="1012.0" type="line" smooth="yes"/>
      <point x="215.42391304347825" y="976.8478260869566"/>
      <point x="211.47826086956522" y="940.8043478260869"/>
      <point x="211.47826086956522" y="905.8152173913044" type="curve" smooth="yes"/>
      <point x="211.47826086956522" y="703.3152173913044"/>
      <point x="325.1413043478261" y="586.8586956521739"/>
      <point x="652.0" y="586.8586956521739" type="curve" smooth="yes"/>
      <point x="764.6956521739131" y="586.8586956521739"/>
      <point x="901.7934782608695" y="610.804347826087"/>
      <point x="1002.5869565217391" y="643.804347826087" type="curve"/>
      <point x="932.1630434782609" y="112.19565217391303" type="line"/>
      <point x="745.3804347826086" y="87.25" type="line"/>
    </contour>
  </outline>
</glyph>
<glyph name="Sha-cy" format="2">
  <advance width="2214.1413043478265"/>
  <unicode hex="0428"/>
  <anchor x="2066.0760869565215" y="0.0" name="bottomright"/>
  <outline>
    <contour>
      <point x="7.163043478260869" y="0.0" type="line"/>
      <point x="2062.7608695652175" y="0.0" type="line"/>
      <point x="2072.7065217391305" y="86.93478260869564" type="line"/>
      <point x="1919.2934782608695" y="112.51086956521739" type="line"/>
      <point x="2089.717391304348" y="1376.5434782608695" type="line"/>
      <point x="2243.6086956521735" y="1397.1739130434783" type="line"/>
      <point x="2253.5543478260865" y="1486.0" type="line"/>
      <point x="1716.5" y="1486.0" type="line"/>
      <point x="1707.2391304347827" y="1397.1739130434783" type="line"/>
      <point x="1870.0869565217392" y="1376.5434782608695" type="line"/>
      <point x="1700.3478260869565" y="112.82608695652173" type="line"/>
      <point x="1153.5434782608695" y="112.82608695652173" type="line"/>
      <point x="1323.2826086956522" y="1375.913043478261" type="line"/>
      <point x="1483.5869565217392" y="1397.1739130434783" type="line"/>
      <point x="1492.2173913043478" y="1486.0" type="line"/>
      <point x="957.5978260869565" y="1486.0" type="line"/>
      <point x="948.3369565217391" y="1397.1739130434783" type="line"/>
      <point x="1103.6521739130435" y="1375.913043478261" type="line"/>
      <point x="934.5978260869565" y="112.82608695652173" type="line"/>
      <point x="391.1630434782609" y="112.82608695652173" type="line"/>
      <point x="560.5869565217391" y="1375.913043478261" type="line"/>
      <point x="731.6413043478261" y="1397.1739130434783" type="line"/>
      <point x="742.2717391304348" y="1486.0" type="line"/>
      <point x="203.3804347826087" y="1486.0" type="line"/>
      <point x="191.43478260869566" y="1397.1739130434783" type="line"/>
      <point x="341.6413043478261" y="1376.5434782608695" type="line"/>
      <point x="172.2173913043478" y="112.88043478260869" type="line"/>
      <point x="17.054347826086953" y="86.93478260869564" type="line"/>
    </contour>
  </outline>
</glyph>
<glyph name="Ereversed-cy" format="2">
  <advance width="1360.2717391304348"/>
  <unicode hex="042D"/>
  <anchor x="795.7608695652174" y="1486.0" name="top"/>
  <outline>
    <contour>
      <point x="488.1195652173913" y="-15.999999999999998" type="curve" smooth="yes"/>
      <point x="970.4347826086957" y="-15.999999999999998"/>
      <point x="1320.3586956521738" y="324.6521739130435"/>
      <point x="1320.3586956521738" y="863.5434782608696" type="curve" smooth="yes"/>
      <point x="1320.3586956521738" y="1182.7282608695652"/>
      <point x="1160.5326086956522" y="1502.6304347826087"/>
      <point x="712.0869565217391" y="1502.6304347826087" type="curve" smooth="yes"/>
      <point x="468.82608695652175" y="1502.6304347826087"/>
      <point x="310.0326086956522" y="1439.5978260869567"/>
      <point x="212.2826086956522" y="1396.3478260869565" type="curve"/>
      <point x="168.18478260869566" y="1065.4347826086957" type="line"/>
      <point x="300.3913043478261" y="1065.4347826086957" type="line"/>
      <point x="321.7065217391304" y="1138.3804347826087"/>
      <point x="347.1195652173913" y="1227.0760869565217"/>
      <point x="372.5326086956522" y="1298.9673913043478" type="curve"/>
      <point x="436.8369565217391" y="1365.4891304347825"/>
      <point x="576.4565217391304" y="1386.3478260869565"/>
      <point x="674.75" y="1386.3478260869565" type="curve" smooth="yes"/>
      <point x="961.6847826086956" y="1386.3478260869565"/>
      <point x="1075.1739130434785" y="1140.7608695652173"/>
      <point x="1082.4239130434783" y="881.2717391304348" type="curve" smooth="yes"/>
      <point x="1083.6847826086957" y="855.2282608695651"/>
      <point x="1083.6304347826087" y="828.8695652173914"/>
      <point x="1082.9456521739132" y="801.8804347826087" type="curve"/>
      <point x="887.3695652173913" y="814.5108695652174"/>
      <point x="614.804347826087" y="826.6086956521739"/>
      <point x="491.57608695652175" y="831.2391304347826" type="curve"/>
      <point x="462.3152173913044" y="673.6086956521739" type="line"/>
      <point x="1074.2608695652173" y="692.5434782608696" type="line"/>
      <point x="1030.0434782608697" y="368.7717391304348"/>
      <point x="853.7608695652174" y="89.1413043478261"/>
      <point x="516.1521739130435" y="89.1413043478261" type="curve" smooth="yes"/>
      <point x="386.30434782608694" y="89.1413043478261"/>
      <point x="312.9891304347826" y="108.46739130434781"/>
      <point x="267.7173913043478" y="128.73913043478262" type="curve"/>
      <point x="248.47826086956522" y="409.1413043478261" type="line"/>
      <point x="116.28260869565219" y="409.1413043478261" type="line"/>
      <point x="55.80434782608696" y="42.108695652173914" type="line"/>
      <point x="129.6413043478261" y="33.05434782608695"/>
      <point x="287.054347826087" y="-15.999999999999998"/>
    </contour>
  </outline>
</glyph>
